<?xml version="1.0" encoding="UTF-8" standalone="no"?>
<svg
   xmlns:dc="http://purl.org/dc/elements/1.1/"
   xmlns:cc="http://creativecommons.org/ns#"
   xmlns:rdf="http://www.w3.org/1999/02/22-rdf-syntax-ns#"
   xmlns:svg="http://www.w3.org/2000/svg"
   xmlns="http://www.w3.org/2000/svg"
   xmlns:sodipodi="http://sodipodi.sourceforge.net/DTD/sodipodi-0.dtd"
   xmlns:inkscape="http://www.inkscape.org/namespaces/inkscape"
   id="svg"
   version="1.1"
   width="969.68182"
   height="1020"
   viewBox="0 0 969.68182 1020"
   inkscape:version="0.92.3 (2405546, 2018-03-11)"
   sodipodi:docname="LaTeReslogo.svg">
  <metadata
     id="metadata4145">
    <rdf:RDF>
      <cc:Work
         rdf:about="">
        <dc:format>image/svg+xml</dc:format>
        <dc:type
           rdf:resource="http://purl.org/dc/dcmitype/StillImage" />
        <dc:title />
      </cc:Work>
    </rdf:RDF>
  </metadata>
  <defs
     id="defs4143" />
  <sodipodi:namedview
     pagecolor="#00ffff"
     bordercolor="#666666"
     borderopacity="1"
     objecttolerance="10"
     gridtolerance="10"
     guidetolerance="10"
     inkscape:pageopacity="0"
     inkscape:pageshadow="2"
     inkscape:window-width="1920"
     inkscape:window-height="1017"
     id="namedview4141"
     showgrid="false"
     fit-margin-top="10"
     fit-margin-left="10"
     fit-margin-right="10"
     fit-margin-bottom="10"
     inkscape:zoom="0.70710678"
     inkscape:cx="860.20371"
     inkscape:cy="481.64928"
     inkscape:window-x="-8"
     inkscape:window-y="-8"
     inkscape:window-maximized="1"
     inkscape:current-layer="svg" />
  <g
     id="g4579">
    <path
       id="path0"
       d="m 459.08731,177.43107 c -70.95441,6.64292 -140.63563,11.49799 -151.90538,61.98936 -1.32716,4.96439 0.67139,4.15936 -7.17999,0.29422 -8.53988,-4.20228 -19.64601,-4.67562 -20.92806,-1.23545 -1.64293,4.40408 -4.89713,13.09927 -3.86911,18.70942 1.77825,9.70797 2.87248,6.27853 -2.32458,6.59667 -12.34093,0.75736 -27.13384,8.69815 -45.65948,30.36956 -58.76781,68.74644 -85.24877,180.77904 -68.31857,266.36071 4.25214,21.49098 7.54815,29.68065 18.89906,38.65263 0.74549,0.5888 0.41006,1.57237 -2.86867,4.97455 -16.69315,15.43502 -9.849,24.68398 10.52375,27.91047 3.96486,0.62916 5.15862,0.43993 5.07315,0.93614 -0.0855,0.4962 -0.12144,3.14902 -0.75771,6.28293 -4.5774,22.50474 32.71434,83.23857 78.2604,122.59043 34.58452,29.88129 81.19204,55.77253 120.42044,66.50139 6.79012,1.85661 14.47592,1.89986 16.30403,2.41981 26.31054,7.481 55.48189,9.39038 64.08588,1.30871 l 1.26761,-1.7787 1.32486,5.48459 c 3.17901,6.65954 11.35002,14.30313 14.03758,14.30313 2.81102,0 15.77894,-8.17752 18.81313,-14.46906 3.37844,-7.00618 0.94157,-3.73623 5.79437,-0.44089 9.34473,6.3509 25.8991,6.24777 52.48742,0.76344 82.83951,-17.08689 167.18062,-78.97194 208.16353,-149.60109 19.10256,-32.91785 24.12747,-51.57623 18.59565,-65.05202 -0.53181,-1.29629 -2.03323,1.18324 3.36563,0.27631 21.37939,-3.58974 26.89048,-15.6222 12.04955,-29.94556 l -5.40952,-4.27804 3.54332,-2.99494 c 18.88889,-18.53277 23.3445,-98.03469 7.60375,-156.21607 -0.72649,-2.68519 -2.08157,-9.09594 -3.14757,-13.01332 -1.06601,-3.91738 -2.60689,-10.11396 -3.97441,-13.77018 -1.36752,-3.65622 -3.49352,-8.05254 -3.90188,-9.35833 -17.52374,-56.11111 -80.25272,-137.18861 -109.30543,-139.32297 -7.34093,-0.53894 -4.95983,4.19476 -3.84634,-2.65235 1.00902,-6.22032 1.24874,-15.60895 -0.48203,-19.40524 -1.60019,-3.51377 -17.84953,-6.09177 -26.57935,-1.45502 -7.71842,4.09782 -3.46377,3.9714 -4.80517,-0.50153 -9.20228,-30.71463 -119.11014,-59.20192 -193.44299,-52.24323 m 65.33641,15.3948 c 46.13486,6.35565 84.82203,20.50753 103.49725,35.09205 15.33001,11.97293 16.21897,23.51852 -1.44485,51.16336 -16.94207,26.51234 -10.73262,44.43131 9.76833,32.56284 2.76353,-1.60019 13.01161,-8.03224 19.66878,-16.88551 18.16002,-24.15005 17.22383,-24.45416 29.84492,-23.87724 29.59164,1.35565 78.64662,71.68889 100.89971,140.20741 20.01424,61.61918 24.77415,144.05767 6.30548,163.31692 -9.33285,9.7341 -14.05771,9.79291 -38.47367,2.88407 -19.4848,-5.51044 -28.39905,-5.35926 -35.00873,-1.48699 -6.60257,3.8699 -7.15724,7.15637 -4.8638,12.52674 3.87465,9.06932 8.28904,10.46455 29.62094,18.12362 24.29962,8.72744 26.25917,10.93967 29.70646,21.90121 8.93163,28.39031 -49.7689,104.90779 -109.78077,145.40161 -51.99667,35.08547 -122.27364,59.5826 -145.28646,48.83474 -13.38794,-6.25119 -16.86698,-7.57061 -18.44105,-38.35171 -1.08262,-21.17047 -2.61045,-24.11014 -9.02782,-30.55601 -4.8813,-4.90266 -8.4321,-4.91593 -13.19943,-0.61156 -6.39364,5.77873 -6.99906,9.61336 -8.3096,32.46949 -1.30104,22.65907 -4.07089,26.51735 -8.91894,31.64319 -11.085,11.71889 -24.19041,11.03292 -62.87275,-0.10423 -75.8452,-21.83761 -139.97929,-69.32239 -181.76466,-135.34328 -23.74881,-37.52144 -22.41494,-50.57372 11.57841,-63.52956 6.4435,-2.45489 14.28712,-6.22737 17.01979,-7.28388 2.88226,-1.11586 7.77349,-4.76006 9.63247,-6.81847 14.85517,-16.44349 -3.78108,-26.53955 -30.83949,-17.53908 -27.19611,9.04796 -31.22063,9.22603 -41.54114,1.12061 -19.0622,-14.97388 -21.25016,-97.867 -5.43582,-156.25731 0.74549,-2.75403 2.09461,-7.0976 2.85909,-9.92523 17.96771,-66.41026 68.42797,-140.97987 96.62597,-140.97987 11.10874,0 12.749,1.49238 29.74331,22.48003 11.4245,14.10969 18.18791,18.1595 27.51602,18.3708 l 8.40596,-2.07837 0.65228,-6.65086 c 2.15812,-8.74406 0.68376,-14.33321 -10.34425,-29.69883 -26.75689,-37.27921 -19.28505,-43.04935 32.5668,-66.14289 6.69041,-2.97721 24.46966,-11.5158 30.32199,-13.03052 1.56695,-0.40598 9.04003,1.43427 14.00204,0.11425 15.74549,-4.18804 35.04905,-11.37076 54.116,-12.93296 9.64388,-0.78822 49.54663,-0.38395 59.40655,0.97408 m 147.52745,58.48021 c 0,8.20986 -0.71515,8.46869 -2.81867,9.91219 -5.22317,3.58499 -12.89722,12.81455 -19.55676,21.24285 -10.45109,13.22412 -8.81123,13.81873 -6.96888,9.01579 1.51472,-3.94587 28.6076,-44.37897 29.51216,-44.0727 m -373.09385,11.01686 c 6.3794,2.85375 4.9265,1.86249 6.46734,6.56572 2.38841,7.29819 7.81849,12.77547 15.65087,24.68905 6.23457,9.48243 7.82966,9.76783 6.25558,9.76783 -1.23694,0 -34.88786,-43.71526 -34.34418,-44.59371 m 78.84157,88.09124 c -3.30247,1.68566 -8.27742,5.47372 -9.22709,8.70734 -0.46534,1.59069 2.42984,3.80216 12.02386,10.1222 l 11.45774,7.54985 1.81149,-2.32668 c 12.33184,-16.18977 -1.62868,-31.42925 -16.066,-24.05271 m 209.50626,0.72429 c -8.85802,2.45964 -11.94216,13.47324 -6.93741,22.01313 2.22459,3.79392 24.71985,26.05413 26.33191,26.05413 1.72364,0 0.47483,-2.4359 -3.82954,-7.46914 -13.46866,-15.74786 -13.49952,-15.87369 -5.85945,-24.52754 6.96581,-7.89173 8.79599,-10.32324 5.13972,-15.00871 -3.31925,-4.25359 -12.00221,-3.59186 -14.76593,-1.45843 m -240.49249,6.74729 c -3.78917,2.97959 -3.23837,5.8001 2.00855,10.29678 5.4131,4.6415 6.90645,4.78157 10.12345,0.95679 3.33571,-3.96249 3.15052,-4.85518 -1.94682,-9.34236 -4.99525,-4.39696 -6.6358,-4.70323 -10.18518,-1.91121 m 262.05854,0.14293 c -4.19278,3.41643 -14.00774,14.45572 -14.89568,16.11289 -1.35327,2.52849 2.58996,7.49105 5.63839,6.72657 4.97389,-1.24881 19.37842,-15.73796 19.37842,-19.6506 0,-5.82146 -4.74463,-7.13174 -9.16771,-3.52537 m 9.38594,11.3117 c -1.58119,1.41975 -5.95204,5.31339 -9.71035,8.65147 -7.21984,6.41026 -9.32775,10.10997 -7.45928,12.36069 3.62536,4.37084 27.22949,-12.27783 27.22949,-19.06321 0,-5.76448 -5.2308,-6.28656 -10.05986,-1.94895 m -258.06742,2.3458 c -10.23267,12.75403 -26.23957,35.31137 -27.17262,39.97186 -0.53656,2.68044 6.4273,9.52826 21.56975,20.88153 6.27493,4.7056 7.09623,4.11337 11.93478,-2.97115 2.03229,-2.97721 9.2189,-13.42355 15.97104,-23.217 9.33998,-13.54226 12.12963,-18.26448 11.66191,-19.73884 -1.02326,-3.21938 -10.01134,-12.60033 -14.58637,-14.68485 -12.92735,-5.88794 -15.59793,-7.09571 -19.37849,-0.24155 m -26.2291,0.1301 c -3.04606,4.64862 5.54297,13.50012 11.87725,12.76175 4.13343,-0.48195 7.51479,-5.98734 5.07652,-8.71289 -5.51282,-6.16334 -13.84931,-8.46477 -16.44903,-4.49753 m 291.41762,8.35988 c -17.52612,12.82288 -21.99329,17.41149 -16.96717,20.1038 5.09734,2.72792 30.84019,-12.47588 30.12419,-18.33208 -0.95344,-7.79805 -6.77051,-6.44171 -13.15702,-1.77172 m -299.62013,2.16761 c -3.80817,3.80817 -2.20086,7.01093 6.91595,13.75831 l 3.59212,2.65907 2.32669,-2.18661 c 4.19515,-3.93874 3.9886,-5.41073 -1.54559,-11.01614 -5.50807,-5.57692 -8.16951,-6.33428 -11.28917,-3.21463 m 317.72449,0.0271 c -3.6301,2.54273 -3.38452,6.90551 -3.38452,14.9302 v 7.45726 l -4.4943,2.18186 c -2.47151,1.20133 -6.33929,2.63837 -8.2505,4.15309 -4.51567,3.5755 -5.3986,4.27284 -12.84162,-0.22151 -5.9283,-3.58025 -10.46058,-7.23172 -25.68138,-20.69326 -10.47009,-9.25925 -13.58975,-7.97483 -22.10352,9.10969 -7.07977,14.20228 -4.39933,21.29155 13.42118,35.49145 14.98101,11.93732 22.26021,13.38557 35.67427,7.08927 15.17806,-7.12013 28.4924,-19.88129 33.48765,-32.09164 2.29107,-5.60067 2.50475,-26.04463 0.2849,-27.45014 -1.88984,-1.19896 -2.92104,-2.29689 -5.38305,-0.57325 m -16.4878,14.45264 c -11.31291,7.87274 -14.18763,10.89027 -10.32248,13.59682 5.21472,4.0665 16.38611,-3.02702 18.30444,-8.02465 3.16952,-8.25973 -0.41401,-13.66039 -7.98196,-5.57217 m -311.7559,-2.75727 c -5.12108,2.98908 -3.78025,9.82745 3.47046,14.98414 6.53372,4.64388 13.48286,2.16297 13.48286,-4.40873 0,-4.01947 -13.04193,-13.02609 -16.28029,-11.13626 m 63.59475,23.13531 c -17.12013,25.68613 -16.3509,22.60209 -9.7151,38.96011 l 4.05271,9.98101 13.81529,-0.0214 c 16.52659,-0.0237 21.0575,0.0309 28.32483,-7.92032 16.88984,-18.47816 16.65142,-41.68794 2.09539,-52.37408 -4.19515,-3.07929 -20.57455,-10.9093 -22.82051,-10.9093 -0.4962,0 -7.58309,10.02849 -15.75261,22.28395 m 278.45617,-18.6444 c -0.51995,0.6529 -2.91249,7.00389 -6.09388,13.62783 -7.45014,15.51282 -24.72222,31.4791 -39.50854,36.51709 -14.52517,4.94777 -5.75024,24.08832 11.04463,24.08832 5.67189,0 6.84473,-1.59307 8.31197,-11.28918 1.58594,-10.47245 6.51946,-15.74074 28.58262,-30.52231 16.31054,-10.92593 21.12053,-18.36807 16.74969,-26.86047 -3.52327,-6.8471 -15.94449,-9.32336 -19.00717,-5.48196 M 297.07502,401.8558 c -7.98742,-0.0703 -10.41033,11.28671 -6.16057,16.54074 1.70703,2.11064 3.64632,1.37237 16.02287,1.83058 l 13.1434,0.48433 10.92117,7.59734 10.92118,7.59497 0.58642,7.89174 c 0.90456,12.14862 4.02897,15.66714 12.00855,13.51852 5.46059,-1.47199 6.39838,-3.06743 6.39838,-10.89032 0,-10.38461 -6.02564,-17.23172 -32.80626,-37.28395 l -9.06458,-6.78775 -9.45394,-0.46533 c -5.19943,-0.25641 -10.83334,-0.27066 -12.51662,-0.0309 m 253.566,8.15052 c -4.59402,4.99763 -35.62204,62.68519 -42.0133,78.11017 -3.22887,7.79677 -9.16192,24.36372 -10.54131,29.43969 -0.42497,1.56695 -1.88271,6.90883 -3.23599,11.87085 -8.76781,32.13912 -11.55033,62.77777 -6.34378,69.89553 8.217,11.23694 33.89838,30.13058 51.42213,37.83238 3.39506,1.49336 8.85565,3.93163 12.132,5.42261 3.27873,1.4886 6.13248,2.70892 6.34378,2.70892 0.2113,0 3.08642,1.24407 6.38651,2.76591 29.96439,13.80579 41.96819,17.92735 47.51187,16.31766 17.33856,-5.03798 42.53562,-34.34235 42.53562,-49.46818 0,-36.03751 -26.57408,-57.09402 -75.05936,-59.48006 -15.27778,-0.75024 -14.66049,-1.01614 -29.80294,12.85138 -10.39649,9.52042 -16.97056,13.38556 -22.77066,13.38556 -4.88604,0 -4.08119,-0.73361 6.69516,-6.11823 8.96724,-4.48006 15.60067,-10.33001 13.77968,-12.151 -2.0869,-2.08689 -14.81244,-0.40598 -19.02422,2.51425 -4.48243,3.10541 -6.00427,2.64957 -3.72032,-1.11349 2.97008,-4.89553 6.79012,-6.13248 16.92545,-5.48908 10.55318,0.66952 17.52849,-1.12298 24.47768,-6.28917 7.91073,-5.88082 9.62963,-12.80864 15.40598,-62.09402 1.71415,-14.61538 3.83191,-24.7056 7.46914,-35.56505 5.73362,-17.11776 5.80959,-15.54606 -0.93542,-19.69373 -9.51805,-5.85233 -17.03467,-11.86135 -25.08072,-20.0546 -8.14815,-8.29773 -9.51567,-8.90789 -12.55698,-5.5983 m -240.87132,19.8077 c -19.16667,19.66524 -56.17046,65.08784 -67.92497,83.37844 l -3.91026,6.08262 v 21.69516 c 0,11.93257 0.35612,21.69515 0.79297,21.69515 0.43685,0 8.66334,-2.38841 18.2811,-5.30864 9.61776,-2.91785 20.47958,-6.19183 24.1358,-7.27445 8.18614,-2.42403 8.00808,-2.25072 12.35518,-12.10827 1.95869,-4.43969 4.31861,-9.78157 5.24929,-11.87084 0.9283,-2.08927 5.75736,-13.05081 10.73124,-24.3566 4.97151,-11.30817 9.92403,-22.5 11.00428,-24.86942 6.21082,-13.63248 17.79976,-39.1235 17.79976,-39.85 0,-1.17047 -5.64146,-5.56954 -7.61676,-5.57429 -0.97816,0 -5.68633,5.82078 -10.85252,13.21631 -4.65337,6.65955 -15.00475,21.50997 -23.0057,33.00095 -15.24454,21.89934 -23.77018,33.7132 -24.33048,33.7132 -0.51995,0 31.65004,-49.50142 48.43779,-74.53229 4.83856,-7.2151 5.72764,-6.80674 0.42612,-11.00427 l -4.72811,-3.05556 -6.84473,7.0228 m 336.70227,3.88651 -10.62678,8.77493 v 5.95916 c 0,4.98339 0.67664,7.46914 4.1453,15.2208 4.94777,11.05888 7.50238,18.34758 9.57028,27.31007 0.8452,3.65622 1.74501,7.50237 2.0038,8.54701 1.38889,5.64102 3.26685,33.59686 3.26923,48.70845 l 0.005,17.36942 19.23076,12.57122 c 10.57693,6.91358 20.38937,13.30485 21.80675,14.20466 l 2.57597,1.6358 0.88082,-3.56126 c 0.48433,-1.95631 1.38414,-6.33665 1.99905,-9.73171 0.61491,-3.39507 1.5527,-8.09592 2.07977,-10.44635 4.48718,-19.95014 -3.90788,-59.65812 -19.94302,-94.34947 -1.48623,-3.21225 -3.24549,-7.33619 -3.91026,-9.1643 -2.07977,-5.72412 -20.43376,-43.44211 -21.49264,-43.79112 -0.55555,-0.18281 -5.75095,5.91601 -11.59378,10.74269 m -221.45323,-1.4672 c -0.78348,0.22079 -2.46677,2.79914 -3.73932,5.72649 -6.46961,14.87892 -15.93067,20.24217 -35.7075,20.24217 h -12.7849 l -0.019,4.03608 c -0.0309,6.01377 2.85138,41.03989 3.99573,48.58975 1.99905,13.18376 11.16809,18.59924 31.48386,18.59924 12.80389,0 14.1453,-0.40836 22.2602,-6.78775 3.37132,-2.6472 8.46154,-5.88319 11.31055,-7.18661 6.4886,-2.97009 6.40313,-2.70181 5.08784,-16.35328 -1.18946,-12.33143 -3.54463,-21.8471 -9.05983,-36.62393 -4.47293,-11.98243 -8.0793,-23.81292 -8.0793,-26.5076 0,-1.96343 -1.66429,-4.48718 -2.80152,-4.24739 -0.28727,0.0617 -1.16334,0.29203 -1.94681,0.51283 m 157.86552,13.58437 c 0.48433,1.52422 -0.46277,2.75527 -1.61662,2.04302 -1.72839,-1.06837 -1.68813,-4.08893 0.13058,-3.73518 0.87132,0.16856 1.20335,0.97156 1.36717,1.49387 m -4.28274,13.02655 c -0.34188,1.36514 -1.03752,2.22697 -1.54559,1.91358 -1.05413,-0.6529 -1.16232,-4.28512 -0.18898,-5.25853 1.23931,-1.23694 2.35415,0.87581 1.73449,3.34495 m -3.41635,10.00237 c 0,1.89933 -0.47484,2.849 -1.4245,2.849 -1.43638,0 -2.03467,-3.82241 -0.7906,-5.0641 1.3604,-1.36277 2.2151,-0.50807 2.2151,2.2151 m -0.16382,15.58404 c -0.17094,1.38415 -0.73837,2.61159 -1.26068,2.72555 -1.14198,0.25166 -1.80912,-3.59212 -0.99478,-5.717 0.89031,-2.31719 2.6282,-0.0119 2.25546,2.99145 m -3.63485,11.085 c 0,3.63485 -2.11028,3.32125 -2.5495,-0.37533 -0.21131,-1.79962 0.007,-2.55202 1.06089,-2.55202 1.03039,0 1.48861,0.90218 1.48861,2.92735 m -205.34568,17.06921 c -2.07265,2.20323 -0.30959,4.01104 -0.75356,12.9664 l -0.49383,10.02374 -7.35992,6.75926 c -9.04796,8.31197 -9.05508,8.64435 -0.19943,9.96202 17.19373,2.55698 27.36704,13.72507 33.1244,36.36752 2.33381,9.18091 3.01045,12.7849 6.3058,33.55413 2.44539,15.42735 2.48338,15.54606 5.2018,16.22744 3.67284,0.92118 5.61491,-0.2754 10.77161,-6.63105 l 4.90266,-6.03989 v -10.41073 c 0,-20.43447 -6.16572,-35.45109 -22.67094,-55.20418 -7.41928,-8.87939 -7.65907,-8.69183 11.20132,-8.69183 37.82764,0 70.02375,-16.9207 62.44302,-32.81814 -4.12868,-8.65384 -17.54273,-5.96154 -34.82668,6.98956 -20.55793,15.40598 -53.29535,9.49192 -60.30389,-10.89269 -1.54321,-4.4943 -3.97234,-6.19027 -6.86646,-3.11334 m 205.08027,0.48504 c 0.74786,1.95157 -0.31904,5.01645 -1.56073,4.60335 -0.58642,-0.19469 -0.94205,-0.83975 -1.11774,-1.74193 -0.66714,-3.44255 1.52721,-5.88284 2.66444,-2.9175 m -3.99513,19.51961 c 0,0.49145 -0.64103,0.89269 -1.42451,0.89269 -1.46961,0 -1.88746,-1.12061 -0.81671,-2.18899 0.75736,-0.75973 2.24122,0.0974 2.24122,1.2963 m 0,7.14388 c 0,1.67853 -2.04416,1.38651 -2.63058,-0.37512 -0.20656,-0.61966 0.29914,-1.12773 1.12773,-1.12773 0.82621,0 1.50285,0.67663 1.50285,1.50285 m -105.19468,2.18186 c -10.28965,8.80816 -27.63058,14.03846 -49.70798,14.99287 -16.07075,0.69564 -15.89506,0.56031 -9.98813,7.76354 12.25546,14.94064 18.62536,31.49335 18.65622,48.47578 0.019,11.066 0.095,11.12298 8.46391,6.26068 3.8794,-2.25546 11.14435,-5.94017 16.14435,-8.19088 19.52279,-8.78443 28.09354,-13.52802 27.92498,-15.45821 -1.16097,-13.30722 -2.45252,-25.77873 -3.11016,-29.98813 -0.44635,-2.87275 -1.31767,-9.06933 -1.93258,-13.77018 -1.93494,-14.73884 -1.60968,-14.23077 -6.45061,-10.08547 m 100.54605,2.29344 c -1.22032,1.22033 -2.45726,0.27778 -1.5527,-1.18233 0.349,-0.56505 1.07075,-0.75974 1.60019,-0.42973 0.65052,0.39886 0.6339,0.93068 -0.0475,1.61206 m -6.97172,6.48569 c 0,1.23694 -2.86648,1.76272 -4.7397,1.04335 -2.67806,-1.02802 -1.83084,-1.94293 1.6402,-1.94293 1.82811,0 3.05743,0.32876 3.05743,0.81546 m -205.94425,6.90207 c -2.44065,1.43874 -0.29694,2.5202 4.06916,8.28468 8.23836,10.87845 22.05365,43.57075 30.7906,72.868 0.74311,2.4905 4.89553,3.47103 7.49525,1.76875 2.71605,-1.78062 2.91548,-3.48528 1.45536,-12.35042 -0.52706,-3.19326 -1.61918,-10.2944 -2.42402,-15.77873 -3.47104,-23.60636 -7.07633,-37.28561 -15.88925,-46.02968 -7.68993,-7.6282 -21.0693,-12.00562 -25.04841,-9.65994 m -19.02673,3.94461 c -7.80152,3.92687 -7.63533,5.23504 3.69183,28.81528 3.67522,7.64958 8.50902,17.75404 10.74312,22.4549 20.75023,43.65621 20.26828,42.86087 25.32288,41.75213 15.56591,-2.79261 13.59621,-6.39542 5.5454,-29.76911 -18.11491,-52.58784 -28.73001,-75.45712 -45.30323,-63.2532 m -26.72379,9.09069 c -13.44729,6.09686 -8.01505,9.73647 19.52294,65.17331 16.10161,32.41691 19.07751,36.12994 29.21759,30.8854 9.29012,-4.80294 8.81184,-8.67505 4.17747,-18.8721 -22.46202,-49.4207 -35.58027,-85.27372 -43.05328,-80.37916 -0.0522,0.0119 -6.16828,1.45354 -8.51871,2.51954 m 445.38302,25.64376 c 8.87939,2.40978 19.91586,5.60425 26.44482,7.373 18.18139,4.92878 15.62536,5.04395 16.76541,5.82515 -0.70396,1.08654 -13.21018,4.3621 -19.31417,-0.0166 -5.27303,-3.78205 -12.29642,-7.48277 -22.55758,-11.26957 -12.14339,-5.80994 -16.41538,-5.19534 -2.23582,-2.13706 m -255.09793,-2.50918 c 0,0.78347 -0.42735,1.4245 -0.94967,1.4245 -0.52232,0 -0.94967,-0.64103 -0.94967,-1.4245 0,-0.78348 0.42735,-1.42451 0.94967,-1.42451 0.52232,0 0.94967,0.64103 0.94967,1.42451 m 16.14435,3.79867 c 0,0.78347 -0.64103,1.4245 -1.4245,1.4245 -0.78348,0 -1.4245,-0.64103 -1.4245,-1.4245 0,-0.78348 0.64102,-1.42451 1.4245,-1.42451 0.78347,0 1.4245,0.64103 1.4245,1.42451 m -274.3605,1.03846 c -3.23362,1.26306 -18.68247,6.37794 -26.96832,9.34328 -3.39506,1.2132 -9.80532,3.33929 -14.24501,4.99884 -13.02132,4.3599 -16.02742,4.0863 -10.6717,-1.06494 4.40645,-5.98053 4.13373,-4.79012 14.22158,-5.26733 8.31196,-0.39174 12.62354,-1.76574 27.90132,-6.06536 4.36847,-1.22982 9.87797,-3.2958 9.87797,-2.39836 m 262.16489,3.21408 c 0.11633,0.52231 -1.17997,1.08262 -2.8775,1.24644 -2.91785,0.28252 -3.91263,-0.57693 -2.40978,-2.08215 0.95442,-0.95204 5.03799,-0.30864 5.28728,0.83571 m 11.60493,9.49667 c 0,1.47911 -0.53418,2.868 -1.18708,3.08642 -0.80484,0.26828 -1.18708,-0.72175 -1.18708,-3.08642 0,-2.36467 0.38224,-3.3547 1.18708,-3.08642 0.6529,0.21843 1.18708,1.60732 1.18708,3.08642 m 18.51852,-1.89933 c 0,0.78347 -0.42735,1.4245 -0.94967,1.4245 -0.52231,0 -0.94966,-0.64103 -0.94966,-1.4245 0,-0.78348 0.42735,-1.4245 0.94966,-1.4245 0.52232,0 0.94967,0.64102 0.94967,1.4245 m 14.67237,4.38984 c 0.52706,0.4867 -1.14673,0.83333 -4.03609,0.83333 -4.59402,0 -5.86182,-0.65765 -4.29487,-2.22697 0.80009,-0.79772 7.10114,0.25403 8.33096,1.39364 m -11.03039,9.50854 c -0.17569,1.23457 -0.74549,2.16287 -1.26781,2.05841 -1.21795,-0.23979 -1.75451,-2.80627 -0.99952,-4.77446 0.85945,-2.23646 2.66144,-0.076 2.26733,2.71605 m 22.94872,0.007 c 0,1.87559 -0.41311,2.73504 -1.18709,2.47625 -1.39839,-0.46533 -2.05128,-3.07692 -1.27493,-5.10209 0.8642,-2.24833 2.46202,-0.54368 2.46202,2.62584 m -18.99336,5.08784 c 0,0.78348 -0.40123,1.4245 -0.89268,1.4245 -1.19896,0 -2.05603,-1.48385 -1.2963,-2.24121 1.06838,-1.07075 2.18898,-0.6529 2.18898,0.81671 m 11.31054,3.48053 c -1.19658,2.23884 -2.76353,1.39839 -2.76353,-1.47911 0,-2.98195 1.14435,-3.84615 2.54986,-1.92307 0.83096,1.13722 0.89269,2.13437 0.21367,3.40218 m 19.07883,-3.48053 c 0,0.78348 -0.64103,1.4245 -1.42451,1.4245 -0.78347,0 -1.4245,-0.64102 -1.4245,-1.4245 0,-0.78348 0.64103,-1.4245 1.4245,-1.4245 0.78348,0 1.42451,0.64102 1.42451,1.4245 m -8.07218,8.07217 c 0,1.6453 -3.18613,2.3077 -5.10684,1.06126 -0.71937,-0.46771 -0.99952,-1.34853 -0.62203,-1.95869 0.97816,-1.58357 5.72887,-0.84046 5.72887,0.89743 m 23.02944,-0.71225 c -0.21842,0.6529 -1.60731,1.18709 -3.08642,1.18709 -1.47911,0 -2.86799,-0.53419 -3.08642,-1.18709 -0.26828,-0.80484 0.72175,-1.18708 3.08642,-1.18708 2.36467,0 3.3547,0.38224 3.08642,1.18708 m -11.33666,5.69801 c -0.16381,1.69753 -0.72412,3.08642 -1.24643,3.08642 -0.52232,0 -1.08263,-1.38889 -1.24644,-3.08642 -0.22555,-2.33856 0.076,-3.08642 1.24644,-3.08642 1.17046,0 1.47198,0.74786 1.24643,3.08642 m 7.55698,1.83998 c -0.58642,1.76163 -2.63058,2.05366 -2.63058,0.37512 0,-0.82621 0.67664,-1.50285 1.50285,-1.50285 0.82859,0 1.33429,0.50807 1.12773,1.12773 m 15.19469,0 c -0.58642,1.76163 -2.63058,2.05366 -2.63058,0.37512 0,-0.82621 0.67663,-1.50285 1.50285,-1.50285 0.82858,0 1.33428,0.50807 1.12773,1.12773 m 14.93827,3.62061 c 0,0.91405 -1.10874,1.53134 -3.08642,1.72127 -2.97484,0.28727 -4.19516,-1.24644 -2.40978,-3.03181 1.20133,-1.20133 5.4962,-0.17807 5.4962,1.31054 m -26.11586,0.47483 c 0,0.78348 -0.64103,1.4245 -1.4245,1.4245 -0.78348,0 -1.42451,-0.64102 -1.42451,-1.4245 0,-0.78347 0.64103,-1.4245 1.42451,-1.4245 0.78347,0 1.4245,0.64103 1.4245,1.4245 m 10.92118,3.32384 c 0,1.66666 -4.05746,2.49525 -5.43923,1.11348 -1.51472,-1.51472 0.17094,-3.14814 2.91786,-2.83001 1.47911,0.17094 2.52137,0.88082 2.52137,1.71653 m 26.8471,3.97673 c -0.58642,1.76163 -2.63058,2.05366 -2.63058,0.37512 0,-0.82621 0.67664,-1.50285 1.50285,-1.50285 0.82858,0 1.33428,0.50807 1.12773,1.12773 m -14.97626,4.15242 c 0,0.75261 -0.64103,1.36752 -1.4245,1.36752 -1.42925,0 -1.95157,-2.00379 -0.81672,-3.13865 0.88557,-0.88794 2.24122,0.18281 2.24122,1.77113 m -120.6019,135.5844 c 0.0494,21.40786 -0.21486,41.83749 -3.28143,38.25603 -4.53229,-7.01329 -4.42096,-7.62379 -2.58098,-11.19691 1.96581,-3.81529 3.16405,-17.1416 4.41286,-31.96116 0.59117,-7.00855 0.49839,-9.34622 0.76667,-10.04186 1.36752,-3.566 -0.0456,-3.34318 0.52424,13.67486"
       inkscape:connector-curvature="0"
       style="fill:#faf9f9;fill-rule:evenodd;stroke:none;stroke-width:2.37416911"
       sodipodi:nodetypes="ccccccsccccscscccccsccsccccccsssccccccccccccccccccccscsccccsccccccccsccccccccccccccccccscccccccccsccscccccccccsccccscccccccccccccccsccccccccsccccccsccccccccccscccccccsccccsccccccccccccscccccccccccsccsccscsccccccccccccsscsccccscccsccccccscccccccccscccccccscccsccccscccccccccccsccccccccscccccccccccssscccccccccsccccscccccccccccccccccsccccccccccccccccccccccccscccsssccsssccccccccccccccscccsssccscccccccccccscccscccsssccccccscsccscsccssccsscccsccsssccscccssccscccccccc" />
    <path
       id="path2"
       d="m 430.22791,16.836816 c -0.41548,1.137227 -1.65242,7.359924 -10.94254,55.085469 l -4.02184,20.652896 -3.43068,0.816714 c -1.88746,0.451093 -6.21082,1.339032 -9.60589,1.977683 -15,2.815765 -39.8338,9.591642 -55.52231,15.147202 -3.11729,1.10398 -6.19184,2.00617 -6.83523,2.00617 -0.6434,0 -13.00095,-13.568377 -27.45964,-30.151947 C 297.95109,65.787432 285.74074,52.074232 285.2754,51.89617 c -0.46534,-0.178063 -9.27825,4.553656 -19.58215,10.51282 -10.30626,5.961538 -31.87796,18.433048 -47.93922,27.718423 -16.06125,9.283001 -29.20228,17.443017 -29.20228,18.131527 0,1.09212 3.67759,12.01092 22.03229,65.43922 l 3.88889,11.31767 -6.0755,5.23741 c -7.62583,6.57408 -36.6263,35.52469 -44.13105,44.05508 l -5.62916,6.40076 -4.2735,-1.52184 c -22.51187,-8.01045 -68.523265,-23.49003 -70.854699,-23.83666 -3.141026,-0.46771 -3.276354,-0.28965 -13.665717,18.25499 -3.535138,6.31054 -36.951567,64.10019 -41.130104,71.13248 l -3.896011,6.55508 3.373694,2.94159 c 1.8566,1.61681 14.874169,12.94397 28.924501,25.16857 14.052706,12.22459 26.517093,23.14102 27.701804,24.25688 l 2.155745,2.02754 -4.69848,14.20466 c -5.33001,16.11111 -10.470086,35.77397 -13.891263,53.11965 -1.631054,8.27398 -1.937322,8.66097 -7.542735,9.57265 -3.990978,0.64815 -44.973883,8.61824 -48.69658,9.46819 L 10,452.54431 l 0.244539,60.93067 0.24454,60.9283 24.216524,4.66287 c 13.319088,2.56648 25.923551,5.15907 28.008071,5.76448 l 3.791548,1.10162 1.695157,8.54701 c 3.053181,15.40835 8.402184,35.81434 13.504273,51.52421 l 5.014245,15.43447 -30.042734,26.2322 c -16.524217,14.42782 -30.334758,26.73077 -30.693257,27.34093 -0.356126,0.61016 4.9264,10.70513 11.737891,22.43352 6.813865,11.73077 19.012346,32.86562 27.108262,46.96819 8.095916,14.10256 15.22792,26.18233 15.849952,26.84235 0.904559,0.95917 3.587369,0.35613 13.4283,-3.01994 6.764009,-2.32194 23.573119,-8.09592 37.355179,-12.83476 30.07122,-10.33713 26.76638,-10.21605 34.46581,-1.25356 8.65384,10.0736 27.81576,29.23077 39.00522,38.9981 5.09259,4.44444 9.25926,8.36657 9.25926,8.71557 0,0.54606 -10.13295,30.46059 -22.29107,65.80959 -4.33524,12.59734 -4.98813,11.21558 9.11443,19.27588 6.46486,3.69421 19.01709,10.91406 27.89649,16.04701 36.46011,21.07075 41.14435,23.77018 48.09591,27.7113 3.99098,2.26496 7.63533,4.11681 8.09354,4.11681 0.46059,0 12.74929,-13.67521 27.3077,-30.38936 14.5584,-16.71415 27.10826,-30.38937 27.88936,-30.38937 0.77873,0 6.51472,1.72365 12.74691,3.82954 6.2322,2.10351 13.75831,4.48955 16.72365,5.29677 10.03561,2.73504 27.20085,6.86135 33.40693,8.03181 13.44017,2.53087 11.63106,-0.11158 16.23694,23.67759 0.55556,2.87274 1.38177,6.93257 1.83524,9.02184 0.45346,2.08927 1.95156,9.78158 3.33095,17.09402 3.71083,19.69843 6.27493,32.19843 6.76401,33.00093 0.6529,1.0708 111.2132,0.888 111.87797,-0.1875 0.30389,-0.4939 2.49525,-10.8571 4.86467,-23.02948 9.63913,-49.47768 10.92355,-55.38461 12.28158,-56.41263 0.75736,-0.57455 5.33713,-1.79725 10.17569,-2.71842 13.79629,-2.62109 36.32953,-8.56363 50.39648,-13.28585 7.07265,-2.37655 13.29297,-4.31862 13.82004,-4.31862 0.52706,0 12.79439,13.56838 27.26021,30.15195 14.46581,16.58357 26.68091,30.29677 27.14862,30.47483 0.7716,0.2944 15.55318,-8.01044 57.31244,-32.20323 8.35707,-4.84093 20.48195,-11.82573 26.94682,-15.51994 6.46248,-3.6942 11.95631,-7.25308 12.20797,-7.91073 0.43685,-1.13248 -4.99762,-17.75403 -19.29012,-59.0076 l -6.37702,-18.40455 5.60304,-4.85755 c 13.0888,-11.35091 34.14293,-32.39554 45.49145,-45.47246 l 4.74359,-5.46296 4.27351,1.53608 c 6.46486,2.32906 67.51899,23.22175 70.53893,24.14055 3.10542,0.94492 3.77731,-0.0261 20.37987,-29.46818 2.39554,-4.25214 16.07312,-27.95109 28.68471,-49.70086 l 9.81956,-16.93969 -2.2697,-2.16287 c -1.25119,-1.19183 -14.45157,-12.74691 -29.33761,-25.68139 -14.88604,-12.93447 -27.82763,-24.23789 -28.76068,-25.11633 -1.62156,-1.53134 -1.50997,-2.15337 2.54511,-14.36135 6.32953,-19.05033 10.15669,-33.58737 14.35422,-54.51804 1.84948,-9.2284 -0.77398,-7.61396 18.63248,-11.45537 17.39791,-3.44492 21.94682,-4.38034 30.02849,-6.17284 l 4.98576,-1.10873 v -61.56933 c 0,-57.80626 -0.10209,-61.60019 -1.66192,-62.08689 -1.50285,-0.46771 -14.73172,-3.08642 -38.94825,-7.7113 -11.36989,-2.16999 -11.22982,-2.02992 -13.60161,-13.74169 -3.23599,-15.98291 -3.49003,-17.11301 -5.97578,-26.5907 -1.95394,-7.44539 -10.03562,-32.96771 -11.59307,-36.61443 -0.36562,-0.85707 9.53941,-9.76021 54.85517,-49.31624 3.58263,-3.1244 6.31055,-6.20845 6.06363,-6.84948 -0.24691,-0.64102 -11.29155,-19.87891 -24.54653,-42.74928 -13.25499,-22.87037 -25.47958,-44.03134 -27.16762,-47.02517 -1.68803,-2.99145 -3.36182,-5.61253 -3.72269,-5.82383 -0.78111,-0.46059 -1.94207,-0.0855 -44.51092,14.43019 l -33.41169,11.39364 -6.80674,-8.22887 c -11.02326,-13.32858 -31.57645,-35.28965 -39.25213,-41.94207 -8.25024,-7.14862 -8.15053,-6.75451 -4.31624,-17.18423 1.61206,-4.38984 3.28585,-9.05034 3.72032,-10.35613 0.4321,-1.30579 2.99858,-8.57075 5.70275,-16.14435 10.88794,-30.47958 14.46582,-40.91405 14.12156,-41.18233 -0.33951,-0.26354 -18.95774,-11.324789 -60.66714,-36.044636 -9.66287,-5.726496 -21.02564,-12.473884 -25.24929,-14.995252 -4.22364,-2.521367 -8.3357,-4.836182 -9.1358,-5.144824 -1.44587,-0.553181 -2.67569,0.776353 -44.28537,47.792022 -7.48813,8.46391 -14.27113,15.38699 -15.0736,15.38699 -0.8001,0 -5.96629,-1.50997 -11.47674,-3.35233 -14.01946,-4.69136 -35.39886,-10.410728 -50.52231,-13.516142 l -12.82051,-2.630579 -5.92356,-29.900284 c -3.25736,-16.443495 -6.34378,-32.034662 -6.85897,-34.646248 -0.51282,-2.611586 -1.28205,-6.45774 -1.7094,-8.547009 l -0.77636,-3.79867 -56.73314,-0.24454 c -44.89078,-0.194681 -56.82573,0.0047 -57.16999,0.949668 m 79.13343,161.272554 c 19.57502,1.41975 36.58594,4.07407 55.25878,8.62535 46.11349,11.23932 83.61586,30.34188 88.28585,44.97151 1.77588,5.56743 2.05603,5.63391 8.68234,2.0869 18.57312,-9.9359 24.85992,-5.24217 22.32906,16.66904 l -0.74074,6.41025 h 4.81481 c 19.18566,0 55.66477,35.3775 82.68044,80.18519 25.28252,41.93257 40.27303,85.95679 46.09211,135.36087 1.6453,13.98148 1.91833,55.53419 0.4321,65.84758 -2.43589,16.91358 -3.16002,20.58642 -5.46059,27.72317 -2.9867,9.25688 -5.46058,13.38319 -10.72887,17.89174 l -4.03133,3.45204 5.24691,5.49857 c 8.43305,8.84141 11.4245,15.9283 8.03419,19.02422 -4.15955,3.79867 -14.73172,7.75166 -20.80247,7.77778 -1.43637,0.007 -2.61159,0.18993 -2.61159,0.41073 0,0.21842 0.66239,2.98195 1.47199,6.14197 2.84188,11.09687 -1.25119,24.13818 -16.434,52.33856 -21.44587,39.83855 -63.69658,82.98433 -109.10256,111.41975 -56.99668,35.69088 -134.24027,55.56743 -154.96201,39.87179 -1.73315,-1.31291 -3.28111,-2.23646 -3.44255,-2.05128 -0.15907,0.18281 -1.4886,2.79915 -2.95109,5.81434 -9.05271,18.66572 -18.97911,18.7132 -27.93685,0.14008 l -3.0057,-6.23457 -2.46913,1.61681 c -8.74881,5.73362 -8.37132,5.6434 -23.52327,5.6434 -17.55698,0 -24.9074,-1.28205 -57.91073,-10.09022 -70.82621,-18.90313 -151.06125,-84.01709 -185.91642,-150.87844 -9.32337,-17.87987 -10.83571,-24.54653 -9.05746,-39.86942 0.25879,-2.22934 -0.0546,-2.39554 -5.89981,-3.10304 -9.77208,-1.18471 -18.99335,-5.698 -18.99335,-9.29724 0,-3.36658 5.39411,-12.64483 9.89079,-17.01567 5.29202,-5.1472 5.2849,-4.71748 0.16856,-8.32384 C 154.52516,580.48828 149.14292,494.89236 166.2132,428.28743 186.36514,349.65732 242.9131,266.3691 276.14909,266.3691 c 3.68234,0 3.79155,-0.0878 3.26449,-2.71605 -5.29915,-26.50285 2.19373,-31.60019 27.05365,-18.40693 0.34663,0.18281 0.93305,-0.65052 1.30105,-1.85423 4.05745,-13.28822 14.45631,-22.01329 42.83238,-35.93779 45.37512,-22.26733 104.80532,-33.25024 158.76068,-29.34473 m -36.38414,9.08119 c -64.2189,2.45727 -143.73694,30.9378 -154.59164,55.37275 -4.87654,10.97578 -2.47151,18.11728 13.89364,41.23457 10.79059,15.24216 11.764,17.69705 10.6244,26.81861 -0.8547,6.83286 -2.34805,8.23362 -7.97483,7.47388 -10.90218,-1.46961 -12.56648,-2.69943 -26.15622,-19.32573 -17.32194,-21.19184 -23.42593,-24.87417 -36.5622,-22.05603 -25.8547,5.54368 -73.65147,76.03038 -91.83761,135.43447 -20.1472,65.80484 -20.18518,152.92497 -0.0784,174.14292 9.4302,9.95014 16.79488,9.96439 47.70656,0.0831 15.96153,-5.10208 24.4848,-4.47056 31.58357,2.33856 3.77018,3.61586 -6.10162,17.75641 -14.55603,20.85233 -38.9245,14.25688 -44.36135,18.566 -44.46344,35.25166 -0.19468,32.30769 67.93684,111.15859 121.415,140.51757 2.61159,1.43399 5.17569,2.94396 5.69801,3.35707 5.52231,4.37085 41.99192,20.59354 57.92972,25.76686 45.58405,14.80294 68.01282,15.90693 79.97626,3.94349 5.30627,-5.30627 6.61443,-11.02801 7.81576,-34.22602 1.14435,-22.06553 2.09877,-25.33001 9.07882,-31.04938 5.05224,-4.14055 4.92641,-4.14055 9.82906,0.0546 7.55698,6.46962 9.40409,14.22603 9.57978,40.28016 0.18281,27.05365 14.01234,36.99192 44.33523,31.85422 84.45631,-14.30912 164.38983,-68.09591 211.79012,-142.51187 20.00475,-31.4055 24.55603,-44.54178 19.87891,-57.39078 -3.54226,-9.72697 -9.10256,-13.33571 -33.75356,-21.90171 -22.75641,-7.90599 -33.01756,-19.32811 -23.1434,-25.75736 8.35708,-5.4416 13.953,-5.8001 27.86088,-1.78538 45.92117,13.25499 55.24691,6.38177 59.83618,-44.08832 7.92498,-87.19135 -29.75784,-188.76068 -92.38841,-249.01234 -25.3039,-24.34473 -37.40741,-22.81814 -60.39411,7.60921 -13.69421,18.12678 -17.76354,21.09212 -27.91786,20.34663 -3.77493,-0.27778 -3.9981,-0.47246 -5.22792,-4.56315 -2.71842,-9.04084 -1.27967,-13.83428 8.93163,-29.72934 15.70275,-24.44207 17.22459,-29.93828 11.4886,-41.49573 -12.87744,-25.94256 -100.29909,-50.51283 -170.2065,-47.83952 m 125.50095,35.47721 c 27.49287,2.48101 37.6377,27.09877 22.19848,53.87464 -15.11396,26.21795 -11.65717,42.02517 8.94349,40.8642 13.35233,-0.75498 17.67332,-3.09354 34.14055,-18.48053 15.10921,-14.11918 23.25499,-15.7075 39.03609,-7.61633 13.94587,7.15099 19.78395,20.61253 26.04938,60.0546 10.66002,67.09402 18.75356,91.72839 42.24359,128.59924 22.16999,34.79819 26.05176,48.72032 18.15527,65.13533 -9.31861,19.37559 -17.67806,22.85137 -50.83571,21.1301 -23.15527,-1.19896 -25.38936,-0.71937 -28.49952,6.13485 -5.63865,12.42403 -0.66714,20.16619 21.35328,33.24549 22.9772,13.64672 27.88698,22.3433 21.04938,37.27683 -7.97009,17.41215 -21.92308,30.00237 -64.89079,58.5565 -38.97673,25.90219 -56.7735,39.95964 -85.28727,67.37417 -11.03514,10.60779 -17.15812,16.24406 -21.84473,20.11159 -17.67332,14.57739 -42.2707,18.89404 -59.06083,10.88122 -6.86134,-3.27398 -9.21671,-6.78092 -15.74093,-31.44141 -5.99715,-22.66856 -12.91904,-29.59651 -23.04724,-27.69717 -7.46676,1.40076 -11.30342,7.78015 -14.60589,24.2735 -1.09687,5.48433 -2.68519,13.39031 -3.53039,17.56885 -3.46866,17.17711 -8.35707,20.81197 -27.88936,20.74074 -22.41216,-0.0807 -36.39839,-8.93162 -74.07408,-46.86847 C 335.8547,729.71667 326.4791,722.4992 300.1377,708.4821 c -4.70086,-2.50237 -9.82906,-5.28965 -11.39601,-6.19658 -1.56696,-0.90693 -8.83191,-4.75071 -16.14435,-8.54226 -44.24027,-22.92972 -56.50523,-33.71557 -56.50523,-49.68898 0,-14.62013 4.61064,-19.71035 25.09972,-27.72317 20.84283,-8.15052 24.65574,-11.80674 24.71985,-23.7132 0.0926,-16.62631 -9.19753,-19.94065 -40.2849,-14.37085 -23.56363,4.22365 -26.99064,3.49383 -39.91799,-15.86514 -3.31189,-6.69129 -3.80471,-11.96743 -3.80471,-19.22982 0,-21.72128 2.40266,-29.4397 19.72934,-63.38319 23.11254,-45.27778 26.9397,-57.81339 30.63628,-100.38937 3.66097,-42.17711 10.17332,-64.39696 22.98196,-78.4093 6.07312,-6.6453 8.86514,-7.52137 23.99335,-7.52849 17.46914,-0.01 19.26401,0.94729 28.51377,15.19468 7.73029,11.90408 10.18756,13.92213 19.22127,15.77635 24.30674,4.99051 30.50095,-16.63342 12.77066,-44.59401 -12.88699,-20.32051 -9.70798,-38.25499 8.6942,-49.03846 7.02992,-4.11919 35.16382,-4.33286 68.97674,-0.52232 27.85137,3.13865 36.44586,3.76781 51.75688,3.78917 23.6396,0.0332 47.45964,-2.19135 84.52042,-7.89173 30.59591,-4.70561 30.95441,-4.7341 44.7792,-3.48766 m 69.07407,25.82859 c -2.45014,3.82241 -10.15907,15.79534 -17.132,26.60493 -16.3699,25.38462 -16.00428,27.19611 1.10636,5.46297 8.2265,-10.44872 13.23837,-15.50808 18.3642,-18.53514 3.65147,-2.15812 5.11158,-6.62156 4.70085,-14.37797 -0.39648,-7.4359 -1.8471,-7.26021 -7.03941,0.84521 m -377.23646,2.58547 c -0.93542,0.57929 32.18661,43.24074 38.40931,49.4753 4.39696,4.40409 0.0831,-3.94112 -8.54701,-16.53371 -5.42973,-7.92498 -9.80057,-16.41026 -11.6358,-22.58547 -1.66667,-5.61253 -14.29488,-12.78727 -18.2265,-10.35612 M 735.0451,589.18961 c 0.29914,0.48433 6.84235,3.3452 14.53703,6.35802 15.35138,6.00665 20.74787,8.6586 26.04701,12.80627 3.93875,3.08405 6.51472,3.34046 13.87939,1.38177 12.23172,-3.25736 10.78111,-4.29013 -15.96153,-11.34378 -4.96202,-1.30817 -15.5152,-4.11444 -23.45205,-6.2322 -15.88556,-4.24026 -15.82858,-4.23077 -15.04985,-2.97008 m -508.03181,7.27208 c -14.24026,3.84615 -22.42877,5.2849 -30.1472,5.29677 l -7.35517,0.01 -5.22792,5.77635 c -5.5888,6.17521 -6.89459,9.87179 -3.09117,8.74881 1.8471,-0.54606 30.05935,-10.70513 50.5698,-18.21225 12.41216,-4.54178 9.60826,-5.49857 -4.74834,-1.61918 m 256.57407,177.58784 c -0.2944,0.99952 -0.99952,7.58547 -1.56458,14.63675 -1.23931,15.46771 -2.42402,22.53324 -4.78157,28.51614 l -1.78063,4.5133 2.87512,5.56505 c 7.8585,15.22792 8.31671,13.94112 7.72555,-21.73789 -0.47246,-28.53276 -1.0755,-36.22032 -2.47389,-31.49335"
       inkscape:connector-curvature="0"
       style="fill:#000000;fill-opacity:1;fill-rule:evenodd;stroke:#ffffff;stroke-width:25;stroke-miterlimit:4;stroke-dasharray:none;stroke-opacity:1"
       sodipodi:nodetypes="ccccccsssccsccccccccccccccccccccccccccccccscccscsccccsssccccscccccccsscccccccccccccccsccccccsccccccsscccccccccccsccsccccccccccsccccssccccccccscccccccccsscccscssscccccccccccccccccccccsccccscccccccscccccccccccscccccscccsccccccscscccccscccccccscccccsccccccccccccccccccscccccccccc" />
    <path
       id="path2-9"
       d="m 430.22791,16.836812 c -0.41548,1.137227 -1.65242,7.359924 -10.94254,55.085469 l -4.02184,20.652896 -3.43068,0.816714 c -1.88746,0.451093 -6.21082,1.339032 -9.60589,1.977683 -15,2.815765 -39.8338,9.591646 -55.52231,15.147206 -3.11729,1.10398 -6.19184,2.00617 -6.83523,2.00617 -0.6434,0 -13.00095,-13.568381 -27.45964,-30.151951 -14.45869,-16.583571 -26.66904,-30.296771 -27.13438,-30.474833 -0.46534,-0.178063 -9.27825,4.553656 -19.58215,10.51282 -10.30626,5.961538 -31.87796,18.433048 -47.93922,27.718423 -16.06125,9.283001 -29.20228,17.443021 -29.20228,18.131531 0,1.09212 3.67759,12.01092 22.03229,65.43922 l 3.88889,11.31767 -6.0755,5.23741 c -7.62583,6.57408 -36.6263,35.52469 -44.13105,44.05508 l -5.62916,6.40076 -4.2735,-1.52184 c -22.51187,-8.01045 -68.52326,-23.49003 -70.8547,-23.83666 -3.14102,-0.46771 -3.27635,-0.28965 -13.66572,18.25499 -3.53513,6.31054 -36.95156,64.10019 -41.1301,71.13248 l -3.89601,6.55508 3.37369,2.94159 c 1.8566,1.61681 14.87417,12.94397 28.9245,25.16857 14.05271,12.22459 26.5171,23.14102 27.70181,24.25688 l 2.15574,2.02754 -4.69848,14.20466 c -5.33001,16.11111 -10.47008,35.77397 -13.89126,53.11965 -1.63105,8.27398 -1.93732,8.66097 -7.54273,9.57265 -3.99098,0.64815 -44.97389,8.61824 -48.69658,9.46819 L 10,452.54431 l 0.24454,60.93067 0.24454,60.9283 24.21652,4.66287 c 13.31909,2.56648 25.92355,5.15907 28.00807,5.76448 l 3.79155,1.10162 1.69516,8.54701 c 3.05318,15.40835 8.40218,35.81434 13.50427,51.52421 l 5.01425,15.43447 -30.04274,26.2322 c -16.52421,14.42782 -30.33475,26.73077 -30.69325,27.34093 -0.35613,0.61016 4.9264,10.70513 11.73789,22.43352 6.81386,11.73077 19.01234,32.86562 27.10826,46.96819 8.09592,14.10256 15.22792,26.18233 15.84995,26.84235 0.90456,0.95917 3.58737,0.35613 13.4283,-3.01994 6.76401,-2.32194 23.57312,-8.09592 37.35518,-12.83476 30.07122,-10.33713 26.76638,-10.21605 34.46581,-1.25356 8.65384,10.0736 27.81576,29.23077 39.00522,38.9981 5.09259,4.44444 9.25926,8.36657 9.25926,8.71557 0,0.54606 -10.13295,30.46059 -22.29107,65.80959 -4.33524,12.59734 -4.98813,11.21558 9.11443,19.27588 6.46486,3.69421 19.01709,10.91406 27.89649,16.04701 36.46011,21.07075 41.14435,23.77018 48.09591,27.7113 3.99098,2.26496 7.63533,4.11681 8.09354,4.11681 0.46059,0 12.74929,-13.67521 27.3077,-30.38936 14.5584,-16.71415 27.10826,-30.38937 27.88936,-30.38937 0.77873,0 6.51472,1.72365 12.74691,3.82954 6.2322,2.10351 13.75831,4.48955 16.72365,5.29677 10.03561,2.73504 27.20085,6.86135 33.40693,8.03181 13.44017,2.53087 11.63106,-0.11158 16.23694,23.67759 0.55556,2.87274 1.38177,6.93257 1.83524,9.02184 0.45346,2.08927 1.95156,9.78158 3.33095,17.09402 3.71083,19.69843 6.27493,32.19843 6.76401,33.00093 0.6529,1.0708 111.2132,0.888 111.87797,-0.1875 0.30389,-0.4939 2.49525,-10.8571 4.86467,-23.02948 9.63911,-49.47768 10.92351,-55.38461 12.28161,-56.41263 0.7573,-0.57455 5.3371,-1.79725 10.1757,-2.71842 13.7963,-2.62109 36.3295,-8.56363 50.3964,-13.28585 7.0727,-2.37655 13.293,-4.31862 13.8201,-4.31862 0.527,0 12.7944,13.56838 27.2602,30.15195 14.4658,16.58357 26.6809,30.29677 27.1486,30.47483 0.7716,0.2944 15.5532,-8.01044 57.3125,-32.20323 8.357,-4.84093 20.4819,-11.82573 26.9468,-15.51994 6.4625,-3.6942 11.9563,-7.25308 12.2079,-7.91073 0.4369,-1.13248 -4.9976,-17.75403 -19.2901,-59.0076 l -6.377,-18.40455 5.603,-4.85755 c 13.0888,-11.35091 34.143,-32.39554 45.4915,-45.47246 l 4.7436,-5.46296 4.2735,1.53608 c 6.4649,2.32906 67.519,23.22175 70.5389,24.14055 3.1054,0.94492 3.7773,-0.0261 20.3799,-29.46818 2.3955,-4.25214 16.0731,-27.95109 28.6847,-49.70086 l 9.8196,-16.93969 -2.2697,-2.16287 c -1.2512,-1.19183 -14.4516,-12.74691 -29.3376,-25.68139 -14.8861,-12.93447 -27.8277,-24.23789 -28.7607,-25.11633 -1.6216,-1.53134 -1.51,-2.15337 2.5451,-14.36135 6.3295,-19.05033 10.1567,-33.58737 14.3542,-54.51804 1.8495,-9.2284 -0.774,-7.61396 18.6325,-11.45537 17.3979,-3.44492 21.9468,-4.38034 30.0285,-6.17284 l 4.9857,-1.10873 v -61.56933 c 0,-57.80626 -0.1021,-61.60019 -1.6619,-62.08689 -1.5028,-0.46771 -14.7317,-3.08642 -38.9482,-7.7113 -11.3699,-2.16999 -11.2299,-2.02992 -13.6016,-13.74169 -3.236,-15.98291 -3.4901,-17.11301 -5.9758,-26.5907 -1.954,-7.44539 -10.0356,-32.96771 -11.5931,-36.61443 -0.3656,-0.85707 9.5394,-9.76021 54.8552,-49.31624 3.5826,-3.1244 6.3105,-6.20845 6.0636,-6.84948 -0.2469,-0.64102 -11.2915,-19.87891 -24.5465,-42.74928 -13.255,-22.87037 -25.4796,-44.03134 -27.1676,-47.02517 -1.6881,-2.99145 -3.3619,-5.61253 -3.7227,-5.82383 -0.7811,-0.46059 -1.9421,-0.0855 -44.511,14.43019 l -33.4116,11.39364 -6.8068,-8.22887 c -11.0232,-13.32858 -31.5764,-35.28965 -39.2521,-41.94207 -8.2503,-7.14862 -8.1505,-6.75451 -4.3163,-17.18423 1.6121,-4.38984 3.2859,-9.05034 3.7204,-10.35613 0.4321,-1.30579 2.9985,-8.57075 5.7027,-16.14435 10.888,-30.47958 14.4658,-40.91405 14.1216,-41.18233 -0.3395,-0.26354 -18.9578,-11.324793 -60.6672,-36.04464 -9.6628,-5.726496 -21.0256,-12.473884 -25.2493,-14.995252 -4.2236,-2.521367 -8.3357,-4.836182 -9.1358,-5.144824 -1.4458,-0.553181 -2.6756,0.776353 -44.2853,47.792022 -7.4882,8.463914 -14.2712,15.386994 -15.0736,15.386994 -0.8001,0 -5.9663,-1.50997 -11.4768,-3.35233 -14.0194,-4.69136 -35.3988,-10.410732 -50.5223,-13.516146 l -12.8205,-2.630579 -5.92355,-29.900284 c -3.25736,-16.443495 -6.34378,-32.034662 -6.85897,-34.646248 -0.51282,-2.611586 -1.28205,-6.45774 -1.7094,-8.547009 l -0.77636,-3.79867 -56.73314,-0.24454 c -44.89078,-0.194681 -56.82573,0.0047 -57.16999,0.949668 m 79.13343,161.272558 c 19.57502,1.41975 36.58594,4.07407 55.25878,8.62535 46.1135,11.23932 83.6159,30.34188 88.2859,44.97151 1.7758,5.56743 2.056,5.63391 8.6823,2.0869 18.5731,-9.9359 24.8599,-5.24217 22.3291,16.66904 l -0.7408,6.41025 h 4.8148 c 19.1857,0 55.6648,35.3775 82.6805,80.18519 25.2825,41.93257 40.273,85.95679 46.0921,135.36087 1.6453,13.98148 1.9183,55.53419 0.4321,65.84758 -2.4359,16.91358 -3.16,20.58642 -5.4606,27.72317 -2.9867,9.25688 -5.4606,13.38319 -10.7289,17.89174 l -4.0313,3.45204 5.2469,5.49857 c 8.433,8.84141 11.4245,15.9283 8.0342,19.02422 -4.1596,3.79867 -14.7317,7.75166 -20.8025,7.77778 -1.4364,0.007 -2.6116,0.18993 -2.6116,0.41073 0,0.21842 0.6624,2.98195 1.472,6.14197 2.8419,11.09687 -1.2512,24.13818 -16.434,52.33856 -21.4459,39.83855 -63.6966,82.98433 -109.1025,111.41975 -56.9967,35.69088 -134.24032,55.56743 -154.96206,39.87179 -1.73315,-1.31291 -3.28111,-2.23646 -3.44255,-2.05128 -0.15907,0.18281 -1.4886,2.79915 -2.95109,5.81434 -9.05271,18.66572 -18.97911,18.7132 -27.93685,0.14008 l -3.0057,-6.23457 -2.46913,1.61681 c -8.74881,5.73362 -8.37132,5.6434 -23.52327,5.6434 -17.55698,0 -24.9074,-1.28205 -57.91073,-10.09022 -70.82621,-18.90313 -151.06125,-84.01709 -185.91642,-150.87844 -9.32337,-17.87987 -10.83571,-24.54653 -9.05746,-39.86942 0.25879,-2.22934 -0.0546,-2.39554 -5.89981,-3.10304 -9.77208,-1.18471 -18.99335,-5.698 -18.99335,-9.29724 0,-3.36658 5.39411,-12.64483 9.89079,-17.01567 5.29202,-5.1472 5.2849,-4.71748 0.16856,-8.32384 C 154.52516,580.48828 149.14292,494.89236 166.2132,428.28743 186.36514,349.65732 242.9131,266.3691 276.14909,266.3691 c 3.68234,0 3.79155,-0.0878 3.26449,-2.71605 -5.29915,-26.50285 2.19373,-31.60019 27.05365,-18.40693 0.34663,0.18281 0.93305,-0.65052 1.30105,-1.85423 4.05745,-13.28822 14.45631,-22.01329 42.83238,-35.93779 45.37512,-22.26733 104.80532,-33.25024 158.76068,-29.34473 m -36.38414,9.08119 c -64.2189,2.45727 -143.73694,30.9378 -154.59164,55.37275 -4.87654,10.97578 -2.47151,18.11728 13.89364,41.23457 10.79059,15.24216 11.764,17.69705 10.6244,26.81861 -0.8547,6.83286 -2.34805,8.23362 -7.97483,7.47388 -10.90218,-1.46961 -12.56648,-2.69943 -26.15622,-19.32573 -17.32194,-21.19184 -23.42593,-24.87417 -36.5622,-22.05603 -25.8547,5.54368 -73.65147,76.03038 -91.83761,135.43447 -20.1472,65.80484 -20.18518,152.92497 -0.0784,174.14292 9.4302,9.95014 16.79488,9.96439 47.70656,0.0831 15.96153,-5.10208 24.4848,-4.47056 31.58357,2.33856 3.77018,3.61586 -6.10162,17.75641 -14.55603,20.85233 -38.9245,14.25688 -44.36135,18.566 -44.46344,35.25166 -0.19468,32.30769 67.93684,111.15859 121.415,140.51757 2.61159,1.43399 5.17569,2.94396 5.69801,3.35707 5.52231,4.37085 41.99192,20.59354 57.92972,25.76686 45.58405,14.80294 68.01282,15.90693 79.97626,3.94349 5.30627,-5.30627 6.61443,-11.02801 7.81576,-34.22602 1.14435,-22.06553 2.09877,-25.33001 9.07882,-31.04938 5.05224,-4.14055 4.92641,-4.14055 9.82906,0.0546 7.55698,6.46962 9.40409,14.22603 9.57978,40.28016 0.18281,27.05365 14.01234,36.99192 44.33523,31.85422 84.45628,-14.30912 164.38988,-68.09591 211.79008,-142.51187 20.0048,-31.4055 24.5561,-44.54178 19.879,-57.39078 -3.5423,-9.72697 -9.1026,-13.33571 -33.7536,-21.90171 -22.7564,-7.90599 -33.0176,-19.32811 -23.1434,-25.75736 8.3571,-5.4416 13.953,-5.8001 27.8609,-1.78538 45.9211,13.25499 55.2469,6.38177 59.8362,-44.08832 7.9249,-87.19135 -29.7579,-188.76068 -92.3885,-249.01234 -25.3039,-24.34473 -37.4074,-22.81814 -60.3941,7.60921 -13.6942,18.12678 -17.7635,21.09212 -27.9178,20.34663 -3.775,-0.27778 -3.9981,-0.47246 -5.2279,-4.56315 -2.7185,-9.04084 -1.2797,-13.83428 8.9316,-29.72934 15.7027,-24.44207 17.2246,-29.93828 11.4886,-41.49573 -12.8775,-25.94256 -100.29911,-50.51283 -170.20652,-47.83952 m 125.50092,35.47721 c 27.4929,2.48101 37.6377,27.09877 22.1985,53.87464 -15.1139,26.21795 -11.6572,42.02517 8.9435,40.8642 13.3523,-0.75498 17.6733,-3.09354 34.1406,-18.48053 15.1092,-14.11918 23.2549,-15.7075 39.036,-7.61633 13.9459,7.15099 19.784,20.61253 26.0494,60.0546 10.66,67.09402 18.7536,91.72839 42.2436,128.59924 22.17,34.79819 26.0518,48.72032 18.1553,65.13533 -9.3186,19.37559 -17.6781,22.85137 -50.8357,21.1301 -23.1553,-1.19896 -25.3894,-0.71937 -28.4995,6.13485 -5.6387,12.42403 -0.6672,20.16619 21.3532,33.24549 22.9772,13.64672 27.887,22.3433 21.0494,37.27683 -7.9701,17.41215 -21.9231,30.00237 -64.8908,58.5565 -38.9767,25.90219 -56.7735,39.95964 -85.2872,67.37417 -11.0352,10.60779 -17.1582,16.24406 -21.8448,20.11159 -17.6733,14.57739 -42.27068,18.89404 -59.06081,10.88122 -6.86134,-3.27398 -9.21671,-6.78092 -15.74093,-31.44141 -5.99715,-22.66856 -12.91904,-29.59651 -23.04724,-27.69717 -7.46676,1.40076 -11.30342,7.78015 -14.60589,24.2735 -1.09687,5.48433 -2.68519,13.39031 -3.53039,17.56885 -3.46866,17.17711 -8.35707,20.81197 -27.88936,20.74074 -22.41216,-0.0807 -36.39839,-8.93162 -74.07408,-46.86847 C 335.8547,729.71667 326.4791,722.4992 300.1377,708.4821 c -4.70086,-2.50237 -9.82906,-5.28965 -11.39601,-6.19658 -1.56696,-0.90693 -8.83191,-4.75071 -16.14435,-8.54226 -44.24027,-22.92972 -56.50523,-33.71557 -56.50523,-49.68898 0,-14.62013 4.61064,-19.71035 25.09972,-27.72317 20.84283,-8.15052 24.65574,-11.80674 24.71985,-23.7132 0.0926,-16.62631 -9.19753,-19.94065 -40.2849,-14.37085 -23.56363,4.22365 -26.99064,3.49383 -39.91799,-15.86514 -3.31189,-6.69129 -3.80471,-11.96743 -3.80471,-19.22982 0,-21.72128 2.40266,-29.4397 19.72934,-63.38319 23.11254,-45.27778 26.9397,-57.81339 30.63628,-100.38937 3.66097,-42.17711 10.17332,-64.39696 22.98196,-78.4093 6.07312,-6.6453 8.86514,-7.52137 23.99335,-7.52849 17.46914,-0.01 19.26401,0.94729 28.51377,15.19468 7.73029,11.90408 10.18756,13.92213 19.22127,15.77635 24.30674,4.99051 30.50095,-16.63342 12.77066,-44.59401 -12.88699,-20.32051 -9.70798,-38.25499 8.6942,-49.03846 7.02992,-4.11919 35.16382,-4.33286 68.97674,-0.52232 27.85137,3.13865 36.44586,3.76781 51.75688,3.78917 23.6396,0.0332 47.45964,-2.19135 84.52042,-7.89173 30.59587,-4.70561 30.95437,-4.7341 44.77917,-3.48766 m 69.0741,25.82859 c -2.4501,3.82241 -10.1591,15.79534 -17.132,26.60493 -16.3699,25.38462 -16.0043,27.19611 1.1064,5.46297 8.2265,-10.44872 13.2383,-15.50808 18.3642,-18.53514 3.6514,-2.15812 5.1115,-6.62156 4.7008,-14.37797 -0.3965,-7.4359 -1.8471,-7.26021 -7.0394,0.84521 m -377.23646,2.58547 c -0.93542,0.57929 32.18661,43.24074 38.40931,49.4753 4.39696,4.40409 0.0831,-3.94112 -8.54701,-16.53371 -5.42973,-7.92498 -9.80057,-16.41026 -11.6358,-22.58547 -1.66667,-5.61253 -14.29488,-12.78727 -18.2265,-10.35612 m 444.72936,338.10778 c 0.2991,0.48433 6.8423,3.3452 14.537,6.35802 15.3514,6.00665 20.7479,8.6586 26.047,12.80627 3.9388,3.08405 6.5147,3.34046 13.8794,1.38177 12.2317,-3.25736 10.7811,-4.29013 -15.9615,-11.34378 -4.962,-1.30817 -15.5152,-4.11444 -23.4521,-6.2322 -15.8855,-4.24026 -15.8285,-4.23077 -15.0498,-2.97008 m -508.03183,7.27208 c -14.24026,3.84615 -22.42877,5.2849 -30.1472,5.29677 l -7.35517,0.01 -5.22792,5.77635 c -5.5888,6.17521 -6.89459,9.87179 -3.09117,8.74881 1.8471,-0.54606 30.05935,-10.70513 50.5698,-18.21225 12.41216,-4.54178 9.60826,-5.49857 -4.74834,-1.61918 m 256.57407,177.58784 c -0.2944,0.99952 -0.99952,7.58547 -1.56458,14.63675 -1.23931,15.46771 -2.42402,22.53324 -4.78157,28.51614 l -1.78063,4.5133 2.87512,5.56505 c 7.8585,15.22792 8.31671,13.94112 7.72555,-21.73789 -0.47246,-28.53276 -1.0755,-36.22032 -2.47389,-31.49335"
       inkscape:connector-curvature="0"
       style="fill:#000000;fill-opacity:1;fill-rule:evenodd;stroke:#ffffff;stroke-width:0;stroke-miterlimit:4;stroke-dasharray:none;stroke-opacity:1"
       sodipodi:nodetypes="ccccccsssccsccccccccccccccccccccccccccccccscccscsccccsssccccscccccccsscccccccccccccccsccccccsccccccsscccccccccccsccsccccccccccsccccssccccccccscccccccccsscccscssscccccccccccccccccccccsccccscccccccscccccccccccscccccscccsccccccscscccccscccccccscccccsccccccccccccccccccscccccccccc" />
    <path
       id="path1"
       d="m 579.33997,222.42561 c -2.08927,0.20417 -13.62773,1.88271 -25.64102,3.72982 -37.06078,5.70038 -60.88082,7.92497 -84.52042,7.89173 -15.31102,-0.0214 -23.90551,-0.65052 -51.75688,-3.78917 -33.81292,-3.81054 -61.94682,-3.59687 -68.97674,0.52232 -18.40218,10.78347 -21.58119,28.71795 -8.6942,49.03846 17.73029,27.96059 11.53608,49.58452 -12.77066,44.59401 -9.03371,-1.85422 -11.49098,-3.87227 -19.22127,-15.77635 -9.24976,-14.24739 -11.04463,-15.20418 -28.51377,-15.19468 -15.12821,0.007 -17.92023,0.88319 -23.99335,7.52849 -12.80864,14.01234 -19.32099,36.23219 -22.98196,78.4093 -3.69658,42.57598 -7.52374,55.11159 -30.63628,100.38937 -17.32668,33.94349 -19.72934,41.66191 -19.72934,63.38319 -1.88013,28.34311 16.8926,45.33917 43.7227,35.09496 31.08737,-5.5698 40.37749,-2.25546 40.2849,14.37085 -0.0641,11.90646 -3.87702,15.56268 -24.71985,23.7132 -20.48908,8.01282 -25.09972,13.10304 -25.09972,27.72317 0,15.97341 12.26496,26.75926 56.50523,49.68898 7.31244,3.79155 14.57739,7.63533 16.14435,8.54226 1.56695,0.90693 6.69515,3.69421 11.39601,6.19658 26.3414,14.0171 35.717,21.23457 62.20322,47.90361 37.67569,37.93685 51.66192,46.78775 74.07408,46.86847 19.53229,0.0712 24.4207,-3.56363 27.88936,-20.74074 0.8452,-4.17854 2.43352,-12.08452 3.53039,-17.56885 3.30247,-16.49335 7.13913,-22.87274 14.60589,-24.2735 10.1282,-1.89934 15.80009,5.40361 21.79724,28.07217 6.52422,24.66049 8.36183,28.49953 15.22317,31.7735 16.79013,8.01282 43.15527,2.98908 60.82859,-11.58831 4.68661,-3.86753 10.80959,-9.5038 21.84473,-20.11159 28.51377,-27.41453 46.31054,-41.47198 85.28727,-67.37417 42.96771,-28.55413 56.9207,-41.14435 64.89079,-58.5565 6.8376,-14.93353 1.92782,-23.63011 -21.04938,-37.27683 -22.02042,-13.0793 -26.99193,-20.82146 -21.35328,-33.24549 3.11016,-6.85422 5.34425,-7.33381 28.49952,-6.13485 33.15765,1.72127 41.5171,-1.75451 50.83571,-21.1301 7.89649,-16.41501 4.01472,-30.33714 -18.15527,-65.13533 -23.49003,-36.87085 -31.58357,-61.50522 -42.24359,-128.59924 -6.26543,-39.44207 -12.10351,-52.90361 -26.04938,-60.0546 -15.7811,-8.09117 -23.92688,-6.50285 -39.03609,7.61633 -16.46723,15.38699 -20.78822,17.72555 -34.14055,18.48053 -20.60066,1.16097 -24.05745,-14.64625 -8.94349,-40.8642 15.88497,-21.08938 7.72792,-43.47103 -8.20038,-50.95678 -5.91643,-2.78253 -21.65005,-4.28301 -33.13628,-3.16002 M 387.58309,342.81022 c 5.87369,4.48006 6.10636,15.06885 0.49145,22.27683 l -1.81149,2.32668 -11.45774,-7.54985 c -12.53561,-8.25974 -12.58784,-8.35233 -8.14815,-14.28301 4.88604,-6.52896 14.3566,-7.78252 20.92593,-2.77065 m 208.22174,1.79487 c 3.14103,3.14103 2.38129,5.33239 -4.58452,13.22412 -7.64007,8.65385 -7.60921,8.77968 5.85945,24.52754 4.30437,5.03324 5.55318,7.46914 3.82954,7.46914 -1.61206,0 -24.10732,-22.26021 -26.33191,-26.05413 -8.19563,-13.98623 9.98813,-30.40598 21.22744,-19.16667 m -244.51804,5.41548 c 5.09734,4.48718 5.28253,5.37987 1.94682,9.34236 -3.217,3.82478 -4.71035,3.68471 -10.12345,-0.95679 -5.24692,-4.49668 -5.79772,-7.31719 -2.00855,-10.29678 3.54938,-2.79202 5.18993,-2.48575 10.18518,1.91121 m 259.67711,-2.73979 c 3.39269,3.39269 1.44825,7.90598 -6.64767,15.42735 -9.23077,8.5755 -11.54796,9.49668 -14.69611,5.83808 -2.76828,-3.21937 -2.43115,-3.89838 6.00902,-12.12963 10.85233,-10.58404 12.75404,-11.71652 15.33476,-9.1358 m 10.44635,10.44634 c 4.05745,4.05746 -1.67142,11.64293 -14.78158,19.5774 -12.37179,7.48576 -14.38034,0.82146 -2.83951,-9.42545 3.75831,-3.33808 8.12916,-7.23172 9.71035,-8.65147 3.08642,-2.77066 6.07313,-3.33808 7.91074,-1.50048 m -255.33713,1.30342 c 8.70608,3.02944 12.93685,5.52232 17.74929,10.45347 7.55935,7.74216 7.82288,6.58357 -6.08737,26.75451 -6.75214,9.79345 -13.93875,20.23979 -15.97104,23.217 -5.58879,8.18376 -5.3395,8.26448 -24.90978,-8.1434 -10.22555,-8.57075 -9.95964,-9.70086 8.47816,-35.9378 13.45204,-19.1453 13.21937,-18.96249 20.74074,-16.34378 m -25.79297,2.6567 c 6.53608,4.15242 7.39791,5.68376 5.26828,9.34235 -2.4264,4.16904 -5.92593,4.57028 -10.74549,1.22982 -9.92403,-6.87797 -4.66999,-17.02042 5.47721,-10.57217 m 291.76637,6.29629 c 3.65622,3.65622 0.45822,8.55176 -9.78632,14.98813 -16.8661,10.59829 -26.80912,6.7189 -12.29345,-4.79582 16.09449,-12.76828 18.42593,-13.84615 22.07977,-10.19231 m -299.25213,7.0133 c 5.53419,5.60541 5.74074,7.0774 1.54559,11.01614 l -2.32669,2.18661 -3.59212,-2.65907 c -9.11681,-6.74738 -10.72412,-9.95014 -6.91595,-13.75831 3.11966,-3.11965 5.7811,-2.36229 11.28917,3.21463 m 312.54748,-3.23125 c 2.21985,1.40551 2.00617,21.84948 -0.2849,27.45015 -4.99525,12.21035 -18.30959,24.97151 -33.48765,32.09164 -13.41406,6.2963 -20.69326,4.84805 -35.67427,-7.08927 -17.82051,-14.1999 -20.50095,-21.28917 -13.42118,-35.49145 8.51377,-17.08452 11.63343,-18.36895 22.10352,-9.10969 27.23884,24.09069 32.24596,26.89221 38.80342,21.69991 1.9112,-1.51472 5.49857,-3.73695 7.97008,-4.93828 l 4.4943,-2.18186 v -7.45726 c 0,-10.85233 4.58927,-18.08642 9.49668,-14.97389 m -13.29535,14.77446 c 0,7.93447 -12.11301,16.25831 -17.83238,12.25308 -3.86515,-2.70655 -2.05603,-5.2754 9.25688,-13.14814 6.81387,-4.74122 8.5755,-4.55841 8.5755,0.89506 m -309.49429,0.58167 c 6.28917,4.41121 7.15574,7.09877 3.53513,10.95204 -4.79819,5.10921 -18.58262,-4.72459 -16.03039,-11.43637 2.02517,-5.32289 4.34473,-5.23267 12.49526,0.48433 m 78.71082,-0.2018 c 24.45394,10.60541 29.53466,25.61728 16.54321,48.86277 -8.30247,14.85517 -15.03086,18.57075 -33.67046,18.59924 l -13.81529,0.0214 -4.05271,-9.98101 c -6.6358,-16.35803 -7.40503,-13.27398 9.7151,-38.96011 8.16952,-12.25546 15.25641,-22.28395 15.75261,-22.28395 0.49383,0 4.78158,1.68328 9.52754,3.74169 m 264.44207,1.26068 c 13.2716,7.52137 10.18756,18.25261 -8.92925,31.05888 -22.06316,14.78157 -26.99668,20.04986 -28.58262,30.52231 -1.46724,9.69611 -2.64008,11.28918 -8.31197,11.28918 -16.79487,0 -25.5698,-19.14055 -11.04463,-24.08832 14.78632,-5.03799 32.0584,-21.00427 39.50854,-36.51709 7.81339,-16.27256 8.91501,-17.05129 17.35993,-12.26496 m -337.59496,20.95916 c 26.78062,20.05223 32.80626,26.89934 32.80626,37.28395 0,7.82289 -0.93779,9.41833 -6.39838,10.89032 -7.97958,2.14862 -11.10399,-1.3699 -12.00855,-13.51852 l -0.58642,-7.89174 -10.92118,-7.59497 -10.92117,-7.59734 -13.1434,-0.48433 c -15.20893,-0.56268 -16.77113,-1.40313 -16.77113,-9.00997 0,-8.44254 3.48528,-10.11633 19.42545,-9.33048 l 9.45394,0.46533 9.06458,6.78775 m 235.08784,6.46487 c 8.04605,8.19325 15.56267,14.20227 25.08072,20.0546 6.74501,4.14767 6.66904,2.57597 0.93542,19.69373 -3.63723,10.85945 -5.75499,20.94967 -7.46914,35.56505 -5.77635,49.28538 -7.49525,56.2132 -15.40598,62.09402 -6.94919,5.16619 -13.9245,6.95869 -24.47768,6.28917 -10.13533,-0.6434 -13.95537,0.59355 -16.92545,5.48908 -2.28395,3.76306 -0.76211,4.2189 3.72032,1.11349 4.21178,-2.92023 16.93732,-4.60114 19.02422,-2.51425 1.82099,1.82099 -4.81244,7.67094 -13.77968,12.151 -10.77635,5.38462 -11.5812,6.11823 -6.69516,6.11823 5.8001,0 12.37417,-3.86514 22.77066,-13.38556 15.14245,-13.86752 14.52516,-13.60162 29.80294,-12.85138 48.48528,2.38604 75.05936,23.44255 75.05936,59.48006 0,15.12583 -25.19706,44.4302 -42.53562,49.46818 -5.54368,1.60969 -17.54748,-2.51187 -47.51187,-16.31766 -3.30009,-1.52184 -6.17521,-2.76591 -6.38651,-2.76591 -0.2113,0 -3.06505,-1.22032 -6.34378,-2.70892 -3.27635,-1.49098 -8.73694,-3.92925 -12.132,-5.42261 -17.52375,-7.7018 -43.20513,-26.59544 -51.42213,-37.83238 -5.20655,-7.11776 -2.42403,-37.75641 6.34378,-69.89553 1.35328,-4.96202 2.81102,-10.3039 3.23599,-11.87085 5.68139,-20.89981 16.96106,-45.35375 39.42308,-85.47008 15.89268,-28.38319 14.73172,-27.6377 25.68851,-16.48148 m -238.40931,14.04083 c 0.25167,0.41073 -1.4886,3.65147 -3.87227,7.2056 -16.78775,25.03087 -48.95774,74.53229 -48.43779,74.53229 0.5603,0 9.08594,-11.81386 24.33048,-33.7132 35.67901,-51.24881 31.82336,-46.83523 37.75404,-43.21937 1.69753,1.03514 3.08642,2.26496 3.08642,2.73504 0,0.7265 -10.95442,26.05888 -17.16524,39.69136 -1.08025,2.36942 -6.03277,13.56125 -11.00428,24.86942 -4.97388,11.30579 -9.80294,22.26733 -10.73124,24.3566 -0.93068,2.08927 -3.2906,7.43115 -5.24929,11.87084 -4.3471,9.85755 -4.16904,9.68424 -12.35518,12.10827 -3.65622,1.08262 -14.51804,4.3566 -24.1358,7.27445 -9.61776,2.92023 -17.84425,5.30864 -18.2811,5.30864 -0.43685,0 -0.79297,-9.76258 -0.79297,-21.69515 v -21.69516 l 3.91026,-6.08262 c 11.75451,-18.2906 48.7583,-63.7132 67.92497,-83.37844 l 6.84473,-7.0228 3.85565,3.05556 c 2.12251,1.67854 4.06458,3.39031 4.31861,3.79867 m 343.94349,14.8623 c 5.28965,10.40361 10.16145,20.4131 10.82621,22.24121 0.66477,1.82811 2.42403,5.95205 3.91026,9.1643 16.03514,34.69135 24.4302,74.39933 19.94302,94.34947 -0.52707,2.35043 -1.46486,7.05128 -2.07977,10.44635 -0.61491,3.39506 -1.51472,7.7754 -1.99905,9.73171 l -0.88082,3.56126 -2.57597,-1.6358 c -1.41738,-0.89981 -11.22982,-7.29108 -21.80675,-14.20466 l -19.23076,-12.57122 -0.005,-17.36942 c -0.002,-15.11159 -1.88034,-43.06743 -3.26923,-48.70845 -0.25879,-1.04464 -1.1586,-4.89079 -2.0038,-8.54701 -2.0679,-8.96249 -4.62251,-16.25119 -9.57028,-27.31007 -3.46866,-7.75166 -4.1453,-10.23741 -4.1453,-15.2208 v -5.95916 l 10.62678,-8.77493 c 5.84283,-4.82668 11.07788,-8.62535 11.63343,-8.44254 0.55318,0.18043 5.33476,8.84378 10.62678,19.24976 M 428.62772,432.75086 c 0.62678,0.62678 1.1396,2.07503 1.1396,3.217 0,2.69468 3.60637,14.52517 8.0793,26.5076 5.5152,14.77683 7.87037,24.2925 9.05983,36.62393 1.31529,13.65147 1.40076,13.38319 -5.08784,16.35328 -2.84901,1.30342 -7.93923,4.53941 -11.31055,7.18661 -8.1149,6.37939 -9.45631,6.78775 -22.2602,6.78775 -20.31577,0 -29.48481,-5.41548 -31.48386,-18.59924 -1.14435,-7.54986 -4.02659,-42.57598 -3.99573,-48.58975 l 0.019,-4.03608 h 12.7849 c 19.77683,0 29.23789,-5.36325 35.7075,-20.24217 2.00855,-4.61776 2.96059,-5.66239 5.68613,-6.23932 0.28728,-0.0593 1.03514,0.40361 1.66192,1.03039 m 151.18708,12.97959 c 0,2.4264 1.85186,3.6301 2.93923,1.90883 1.10873,-1.75214 0.57455,-3.14103 -1.35565,-3.51377 -1.05651,-0.20656 -1.58358,0.33001 -1.58358,1.60494 m -3.15052,9.29012 c -0.97341,0.97341 -0.7811,4.88604 0.27303,5.53894 1.23457,0.7621 2.41453,-4.15005 1.27256,-5.29203 -0.49383,-0.49382 -1.18709,-0.60304 -1.54559,-0.24691 m -3.81291,11.41263 c -1.24407,1.24169 -0.64578,5.0641 0.7906,5.0641 0.94966,0 1.4245,-0.94967 1.4245,-2.849 0,-2.72317 -0.8547,-3.57787 -2.2151,-2.2151 m -0.20418,14.80769 c -0.81434,2.12488 -0.1472,5.96866 0.99478,5.717 0.52231,-0.11396 1.08974,-1.3414 1.26068,-2.72555 0.37274,-3.00332 -1.36515,-5.30864 -2.25546,-2.99145 m -4.05508,13.68709 c 0.43922,3.69658 2.67569,4.02421 2.67569,0.38936 0,-2.02517 -0.45822,-2.92735 -1.48861,-2.92735 -1.05413,0 -1.39838,0.73837 -1.18708,2.53799 m -195.32763,19.62013 c 7.00854,20.38461 39.74596,26.29867 60.30389,10.89269 17.28395,-12.9511 30.698,-15.6434 34.82668,-6.98956 7.58073,15.89744 -24.61538,32.81814 -62.44302,32.81814 -18.86039,0 -18.6206,-0.18756 -11.20132,8.69183 16.50522,19.75309 22.67094,34.76971 22.67094,55.20418 v 10.41073 l -4.90266,6.03989 c -5.1567,6.35565 -7.09877,7.55223 -10.77161,6.63105 -2.71842,-0.68138 -2.75641,-0.80009 -5.2018,-16.22744 -3.29535,-20.76923 -3.97199,-24.37322 -6.3058,-33.55413 -5.75736,-22.64245 -15.93067,-33.81054 -33.1244,-36.36752 -8.85565,-1.31767 -8.84853,-1.65005 0.19943,-9.96202 l 7.35992,-6.75926 0.49383,-10.02374 c 0.66952,-13.54701 5.11396,-19.47768 8.09592,-10.80484 m 195.51994,-2.74454 c -0.73125,1.90171 -0.10209,4.57502 1.17521,5 1.24169,0.4131 2.36467,-3.08642 1.61681,-5.03799 -0.66239,-1.72602 -2.12251,-1.70703 -2.79202,0.038 m -3.55651,18.28347 c -1.07075,1.06838 -0.6529,2.18899 0.81671,2.18899 0.78348,0 1.42451,-0.40124 1.42451,-0.89269 0,-1.19895 -1.48386,-2.05603 -2.24122,-1.2963 m -0.38936,8.06506 c 0.58642,1.76163 2.63058,2.05365 2.63058,0.37512 0,-0.82622 -0.67664,-1.50285 -1.50285,-1.50285 -0.82859,0 -1.33429,0.50807 -1.12773,1.12773 m -97.65195,1.95869 c 0.22792,1.17521 0.92118,5.9829 1.53846,10.68376 0.61491,4.70085 1.48623,10.89743 1.93258,13.77018 0.65764,4.2094 1.94919,16.68091 3.11016,29.98813 0.16856,1.93019 -8.40219,6.67378 -27.92498,15.45821 -5,2.25071 -12.26495,5.93542 -16.14435,8.19088 -8.36894,4.8623 -8.44492,4.80532 -8.46391,-6.26068 -0.0309,-16.98243 -6.40076,-33.53514 -18.65622,-48.47578 -5.90693,-7.20323 -6.08262,-7.0679 9.98813,-7.76354 22.0774,-0.95441 39.41833,-6.18471 49.70798,-14.99287 3.79629,-3.25024 4.38034,-3.31909 4.91215,-0.59829 m 94.0812,1.7094 c -0.90456,1.46011 0.33238,2.40266 1.5527,1.18233 0.68139,-0.68138 0.69801,-1.2132 0.0475,-1.61206 -0.52944,-0.33001 -1.25119,-0.13532 -1.60019,0.42973 m -11.84236,7.44777 c 0,1.25593 2.86088,2.12488 4.88129,1.48385 2.92735,-0.9283 1.98956,-2.33143 -1.55745,-2.33143 -1.82811,0 -3.32384,0.38224 -3.32384,0.84758 m -185.44159,9.34235 c 15,7.39079 22.8585,22.51662 27.26496,52.48813 0.80484,5.48433 1.89696,12.58547 2.42402,15.77873 1.46012,8.86514 1.26069,10.5698 -1.45536,12.35042 -2.59972,1.70228 -6.75214,0.72175 -7.49525,-1.76875 -8.73695,-29.29725 -22.55224,-61.98955 -30.7906,-72.868 -7.18186,-9.48243 -2.59497,-12.21272 10.05223,-5.98053 m -19.61064,1.26068 c 9.39696,6.69041 28.35708,47.49526 36.50997,78.5755 1.9397,7.39316 -1.36277,12.06553 -9.84093,13.92925 -5.0546,1.10874 -4.57265,1.90408 -25.32288,-41.75213 -2.2341,-4.70086 -7.0679,-14.80532 -10.74312,-22.4549 -11.32716,-23.58024 -11.49335,-24.88841 -3.69183,-28.81528 5.53181,-2.7849 8.62298,-2.66382 13.08879,0.51756 m -27.68756,7.66145 c 2.85138,0.9924 4.25689,3.49003 20.44635,36.32478 28.07217,56.9302 26.9848,52.67807 15.04748,58.8509 -10.14007,5.24454 -11.9943,3.32622 -28.09591,-29.09069 -28.19801,-56.76638 -29.19041,-63.07217 -10.55556,-67.132 0.0522,-0.0119 1.47436,0.45821 3.15764,1.04701 m 176.7094,23.14815 c 0,0.78347 0.42735,1.4245 0.94967,1.4245 0.52232,0 0.94967,-0.64103 0.94967,-1.4245 0,-0.78348 -0.42735,-1.42451 -0.94967,-1.42451 -0.52232,0 -0.94967,0.64103 -0.94967,1.42451 m 15.19469,3.79867 c 0,0.78347 0.64102,1.4245 1.4245,1.4245 0.78347,0 1.4245,-0.64103 1.4245,-1.4245 0,-0.78348 -0.64103,-1.42451 -1.4245,-1.42451 -0.78348,0 -1.4245,0.64103 -1.4245,1.42451 m -14.51805,2.96296 c -1.50285,1.50522 -0.50807,2.36467 2.40978,2.08215 1.69753,-0.16382 2.99383,-0.72413 2.8775,-1.24644 -0.24929,-1.14435 -4.33286,-1.78775 -5.28728,-0.83571 m 14.51805,10.33238 c 0,2.36467 0.38224,3.3547 1.18708,3.08642 0.6529,-0.21842 1.18708,-1.60731 1.18708,-3.08642 0,-1.4791 -0.53418,-2.86799 -1.18708,-3.08642 -0.80484,-0.26828 -1.18708,0.72175 -1.18708,3.08642 m 18.99335,-1.89933 c 0,0.78347 0.42735,1.4245 0.94966,1.4245 0.52232,0 0.94967,-0.64103 0.94967,-1.4245 0,-0.78348 -0.42735,-1.4245 -0.94967,-1.4245 -0.52231,0 -0.94966,0.64102 -0.94966,1.4245 m 8.24074,2.9962 c -1.56695,1.56932 -0.29915,2.22697 4.29487,2.22697 2.88936,0 4.56315,-0.34663 4.03609,-0.83333 -1.22982,-1.13961 -7.53087,-2.19136 -8.33096,-1.39364 m -4.96676,8.18613 c -0.75499,1.96819 -0.21843,4.53467 0.99952,4.77446 1.32479,0.26116 1.80437,-4.08595 0.58642,-5.3039 -0.698,-0.698 -1.17521,-0.53893 -1.58594,0.52944 m 22.75403,0.0973 c -0.77635,2.02517 -0.12346,4.63676 1.27493,5.10209 0.77398,0.25879 1.18709,-0.60066 1.18709,-2.47625 0,-3.16952 -1.59782,-4.87417 -2.46202,-2.62584 m -18.72032,6.89697 c -0.75973,0.75736 0.0973,2.24121 1.2963,2.24121 0.49145,0 0.89268,-0.64102 0.89268,-1.4245 0,-1.46961 -1.1206,-1.88746 -2.18898,-0.81671 m 11.42213,-0.0285 c -0.99478,0.99477 -0.84283,4.90978 0.21605,5.56505 1.59781,0.98765 2.95821,-2.84663 1.64767,-4.6415 -0.64815,-0.88557 -1.48623,-1.30105 -1.86372,-0.92355 m 18.30721,0.8452 c 0,0.78348 0.64103,1.4245 1.4245,1.4245 0.78348,0 1.42451,-0.64102 1.42451,-1.4245 0,-0.78348 -0.64103,-1.4245 -1.42451,-1.4245 -0.78347,0 -1.4245,0.64102 -1.4245,1.4245 m -10.95204,7.17474 c -0.37749,0.61016 -0.0973,1.49098 0.62203,1.95869 1.92071,1.24644 5.10684,0.58404 5.10684,-1.06126 0,-1.73789 -4.75071,-2.481 -5.72887,-0.89743 m 22.58547,0.18518 c 0.21843,0.6529 1.60731,1.18709 3.08642,1.18709 1.47911,0 2.868,-0.53419 3.08642,-1.18709 0.26828,-0.80484 -0.72175,-1.18708 -3.08642,-1.18708 -2.36467,0 -3.3547,0.38224 -3.08642,1.18708 m -7.65669,5.69801 c 0.16381,1.69753 0.72412,3.08642 1.24644,3.08642 0.52231,0 1.08262,-1.38889 1.24643,-3.08642 0.22555,-2.33856 -0.076,-3.08642 -1.24643,-3.08642 -1.17047,0 -1.47199,0.74786 -1.24644,3.08642 m 7.41927,2.2151 c 0,0.82858 0.50808,1.33428 1.12773,1.12773 1.76164,-0.58642 2.05366,-2.63058 0.37512,-2.63058 -0.82621,0 -1.50285,0.67664 -1.50285,1.50285 m 15.19469,0 c 0,0.82858 0.50807,1.33428 1.12773,1.12773 1.76163,-0.58642 2.05365,-2.63058 0.37512,-2.63058 -0.82622,0 -1.50285,0.67664 -1.50285,1.50285 m 12.07265,1.93495 c -1.78538,1.78537 -0.56506,3.31908 2.40978,3.03181 3.75356,-0.36087 4.27588,-3.00807 0.67664,-3.42593 -1.32479,-0.15432 -2.71368,0.0237 -3.08642,0.39412 m -23.46867,1.78537 c 0,0.78348 0.64103,1.4245 1.42451,1.4245 0.78347,0 1.4245,-0.64102 1.4245,-1.4245 0,-0.78347 -0.64103,-1.4245 -1.4245,-1.4245 -0.78348,0 -1.42451,0.64103 -1.42451,1.4245 m 8.05556,2.40266 c -0.37037,0.59829 -0.24691,1.51235 0.2754,2.03466 1.38177,1.38177 5.43923,0.55318 5.43923,-1.11348 0,-1.72365 -4.74834,-2.48813 -5.71463,-0.92118 m 29.93115,5.27303 c 0,1.67854 2.04416,1.38651 2.63058,-0.37512 0.20655,-0.61966 -0.29915,-1.12773 -1.12773,-1.12773 -0.82621,0 -1.50285,0.67664 -1.50285,1.50285 m -14.5869,2.00617 c -1.13485,1.13486 -0.61253,3.13865 0.81672,3.13865 0.78347,0 1.4245,-0.61491 1.4245,-1.36752 0,-1.58832 -1.35565,-2.65907 -2.24122,-1.77113"
       inkscape:connector-curvature="0"
       style="fill:#f00000;fill-opacity:1;fill-rule:evenodd;stroke:none;stroke-width:2.37416911"
       sodipodi:nodetypes="cccscccccccsccccscsccccccscccscccccsccccccccccccccccsccccccccscccccccccccccccccccccccccccsccccscccccsccccccccccsccccsccccsccccsccccccscccccccccccscsccsccscccccsccssccsccccscssccsccccsccscccccccccscccccsccccscccscccccccccsccssccccccssccccssscccccccccccccccssccsscccccccccccccsccccsccccccccccccccccccccccsssccssscccccccscccsssccsccccscccsccssccccccssscccsccscsccscscccscccsccccccsssccsscccsccssc" />
  </g>
</svg>
