<?xml version="1.0" encoding="UTF-8" standalone="no"?>
<svg
   xmlns:dc="http://purl.org/dc/elements/1.1/"
   xmlns:cc="http://creativecommons.org/ns#"
   xmlns:rdf="http://www.w3.org/1999/02/22-rdf-syntax-ns#"
   xmlns:svg="http://www.w3.org/2000/svg"
   xmlns="http://www.w3.org/2000/svg"
   xmlns:sodipodi="http://sodipodi.sourceforge.net/DTD/sodipodi-0.dtd"
   xmlns:inkscape="http://www.inkscape.org/namespaces/inkscape"
   id="svg"
   version="1.1"
   width="969.68182"
   height="1020"
   viewBox="0 0 969.68182 1020"
   inkscape:version="0.91 r13725"
   sodipodi:docname="logo.svg">
  <metadata
     id="metadata4145">
    <rdf:RDF>
      <cc:Work
         rdf:about="">
        <dc:format>image/svg+xml</dc:format>
        <dc:type
           rdf:resource="http://purl.org/dc/dcmitype/StillImage" />
        <dc:title></dc:title>
      </cc:Work>
    </rdf:RDF>
  </metadata>
  <defs
     id="defs4143" />
  <sodipodi:namedview
     pagecolor="#00ffff"
     bordercolor="#666666"
     borderopacity="1"
     objecttolerance="10"
     gridtolerance="10"
     guidetolerance="10"
     inkscape:pageopacity="0"
     inkscape:pageshadow="2"
     inkscape:window-width="1368"
     inkscape:window-height="849"
     id="namedview4141"
     showgrid="false"
     fit-margin-top="10"
     fit-margin-left="10"
     fit-margin-right="10"
     fit-margin-bottom="10"
     inkscape:zoom="0.70710678"
     inkscape:cx="738.94431"
     inkscape:cy="368.51219"
     inkscape:window-x="-8"
     inkscape:window-y="-8"
     inkscape:window-maximized="1"
     inkscape:current-layer="svg" />
  <g
     id="svgg"
     transform="matrix(2.374169,0,0,2.374169,10.014245,10)">
    <path
       id="path0"
       d="m 189.14958,68.139301 c -29.886,2.798 -59.23573,4.842952 -63.98255,26.109918 -0.559,2.091 0.28279,1.751925 -3.02421,0.123925 -3.597,-1.77 -8.2749,-1.96937 -8.8149,-0.52037 -0.692,1.855 -2.06267,5.517411 -1.62967,7.880406 0.749,4.089 1.20989,2.64452 -0.97911,2.77852 -5.198,0.319 -11.428777,3.66366 -19.231777,12.79166 -24.753,28.956 -35.90678,76.14413 -28.77578,112.19113 1.791,9.052 3.179282,12.50149 7.960282,16.28049 0.314,0.248 0.172718,0.66228 -1.208282,2.09528 -7.031153,6.50123 -4.148398,10.39689 4.432602,11.75589 1.67,0.265 2.172812,0.1853 2.136812,0.3943 -0.036,0.209 -0.05115,1.32637 -0.319148,2.64637 -1.928,9.479 13.77928,35.06009 32.963281,51.63509 14.567,12.586 34.19809,23.49139 50.72109,28.01039 2.86,0.782 6.09726,0.80022 6.86726,1.01922 11.082,3.151 23.36897,3.95523 26.99297,0.55123 l 0.53392,-0.74919 0.55803,2.31011 c 1.339,2.805 4.78063,6.02448 5.91263,6.02448 1.184,0 6.64609,-3.44437 7.92409,-6.09437 1.423,-2.951 0.39659,-1.5737 2.44059,-0.1857 3.936,2.675 10.9087,2.63156 22.1077,0.32156 34.892,-7.197 70.41648,-33.26298 87.67848,-63.01198 8.046,-13.865 10.16249,-21.72391 7.83249,-27.39991 -0.224,-0.546 -0.8564,0.49838 1.4176,0.11638 9.005,-1.512 11.32627,-6.58007 5.07527,-12.61307 l -2.27849,-1.80191 1.49245,-1.26147 c 7.956,-7.806 9.8327,-41.29221 3.2027,-65.79821 -0.306,-1.131 -0.87676,-3.83121 -1.32576,-5.48121 -0.449,-1.65 -1.09802,-4.26 -1.67402,-5.8 -0.576,-1.54 -1.47147,-3.39173 -1.64347,-3.94173 -7.381,-23.634 -33.80245,-57.78384 -46.03945,-58.682836 -3.092,-0.227 -2.08908,1.766836 -1.62008,-1.117166 0.425,-2.62 0.52597,-6.574491 -0.20303,-8.173491 -0.674,-1.48 -7.51822,-2.565852 -11.19522,-0.612852 -3.251,1.726 -1.45894,1.672754 -2.02394,-0.211246 -3.876,-12.937 -50.16919,-24.935847 -81.47819,-22.004847 m 27.5197,6.484288 c 19.432,2.677 35.72704,8.637773 43.59304,14.780773 6.457,5.043 6.83143,9.906 -0.60857,21.550007 -7.136,11.167 -4.52058,18.71447 4.11442,13.71547 1.164,-0.674 5.48049,-3.38318 8.28449,-7.11218 7.649,-10.172 7.25468,-10.30009 12.57068,-10.05709 12.464,0.571 33.12596,30.19536 42.49896,59.05536 8.43,25.954 10.43487,60.67709 2.65587,68.78909 -3.931,4.1 -5.92111,4.12477 -16.20511,1.21477 -8.207,-2.321 -11.96168,-2.25732 -14.74568,-0.62632 -2.781,1.63 -3.01463,3.01426 -2.04863,5.27626 1.632,3.82 3.49134,4.40767 12.47634,7.63367 10.235,3.676 11.06036,4.60779 12.51236,9.22479 3.762,11.958 -20.96266,44.18716 -46.23966,61.24316 -21.901,14.778 -51.50166,25.09619 -61.19466,20.56919 -5.639,-2.633 -7.10437,-3.18874 -7.76737,-16.15374 -0.456,-8.917 -1.09952,-10.15519 -3.80252,-12.87019 -2.056,-2.065 -3.5516,-2.07059 -5.5596,-0.25759 -2.693,2.434 -2.948,4.04915 -3.5,13.67615 -0.548,9.544 -1.71466,11.16911 -3.75666,13.32811 -4.669,4.936 -10.189,4.64707 -26.482,-0.0439 -31.946,-9.198 -58.95928,-29.19859 -76.559279,-57.00659 -10.003,-15.80403 -9.441172,-21.30165 4.876828,-26.75865 2.714,-1.034 6.017736,-2.62297 7.168736,-3.06797 1.214005,-0.47 3.274195,-2.00494 4.057195,-2.87194 6.257,-6.926 -1.59259,-11.17846 -12.989593,-7.38746 -11.455,3.811 -13.150129,3.886 -17.497129,0.472 -8.029,-6.307 -8.950565,-41.22158 -2.289565,-65.81558 0.314,-1.16 0.882246,-2.98951 1.204246,-4.18051 7.568,-27.972 28.821861,-59.38072 40.698861,-59.38072 4.679,0 5.36988,0.62859 12.52788,9.46859 4.812,5.943 7.66075,7.64878 11.58975,7.73778 l 3.54059,-0.87541 0.27474,-2.80134 c 0.909,-3.683 0.288,-6.03715 -4.357,-12.50915 -11.27,-15.702001 -8.12286,-18.132386 13.71714,-27.859386 2.818,-1.254 10.30662,-4.850454 12.77162,-5.488454 0.66,-0.171 3.80766,0.604116 5.89766,0.04812 6.632,-1.764 14.76266,-4.789361 22.79366,-5.447361 4.062,-0.332 20.86904,-0.161718 25.02204,0.410282 m 62.13856,24.631865 c 0,3.457994 -0.30122,3.567014 -1.18722,4.175014 -2.2,1.51 -5.43231,5.39749 -8.23731,8.94749 -4.402,5.57 -3.71129,5.82045 -2.93529,3.79745 0.638,-1.662 12.04952,-18.692421 12.43052,-18.563421 m -157.14713,4.640301 c 2.687,1.202 2.07504,0.78448 2.72404,2.76548 1.006,3.074 3.29315,5.38103 6.59215,10.39903 2.626,3.994 3.29785,4.11421 2.63485,4.11421 -0.521,0 -14.69477,-18.41287 -14.46577,-18.78287 M 152.472,137.049 c -1.391,0.71 -3.48645,2.30553 -3.88645,3.66753 -0.196,0.67 1.02345,1.60147 5.06445,4.26347 l 4.826,3.18 0.763,-0.98 c 5.19417,-6.81913 -0.686,-13.238 -6.767,-10.131 m 88.24404,0.30507 c -3.731,1.036 -5.03004,5.67493 -2.92204,9.27193 0.937,1.598 10.412,10.974 11.091,10.974 0.726,0 0.2,-1.026 -1.613,-3.146 -5.673,-6.633 -5.686,-6.686 -2.468,-10.331 2.934,-3.324 3.70487,-4.34815 2.16485,-6.32167 -1.39807,-1.79161 -5.05533,-1.51289 -6.21941,-0.61429 M 139.454,140.029 c -1.596,1.255 -1.364,2.443 0.846,4.337 2.28,1.955 2.909,2.014 4.264,0.403 1.405,-1.669 1.327,-2.045 -0.82,-3.935 -2.104,-1.852 -2.795,-1.981 -4.29,-0.805 m 110.37906,0.0602 c -1.766,1.439 -5.90006,6.08875 -6.27406,6.78675 -0.57,1.065 1.09089,3.15523 2.37489,2.83323 2.095,-0.526 8.16219,-6.62883 8.16219,-8.27683 0,-2.452 -1.99844,-3.00389 -3.86144,-1.48489 m 3.95336,4.76449 c -0.666,0.598 -2.507,2.238 -4.09,3.644 -3.041,2.7 -3.92885,4.25832 -3.14185,5.20632 1.527,1.841 11.46906,-5.17142 11.46906,-8.02942 0,-2.428 -2.20321,-2.6479 -4.23721,-0.8209 M 145.49,145.7 c -4.31,5.372 -11.05211,14.87315 -11.44511,16.83615 -0.226,1.129 2.70718,4.0133 9.08518,8.7953 2.643,1.982 2.98893,1.73255 5.02693,-1.25145 0.856,-1.254 3.883,-5.654 6.727,-9.779 3.934,-5.704 5.109,-7.693 4.912,-8.314 -0.431,-1.356 -4.21678,-5.30726 -6.14378,-6.18526 -5.445,-2.48 -6.56985,-2.98871 -8.16222,-0.10174 m -11.0477,0.0548 c -1.283,1.958 2.3347,5.68625 5.0027,5.37525 1.741,-0.203 3.16523,-2.52187 2.13823,-3.66987 -2.322,-2.596 -5.83333,-3.56536 -6.92833,-1.89436 M 257.4,149.087 c -7.382,5.401 -9.26357,7.33372 -7.14657,8.46772 2.147,1.149 12.98989,-5.25484 12.68831,-7.72147 C 262.54015,146.54871 260.09,147.12 257.4,149.087 M 131.2,150 c -1.604,1.604 -0.927,2.953 2.913,5.795 l 1.513,1.12 0.98,-0.921 c 1.767,-1.659 1.68,-2.279 -0.651,-4.64 -2.32,-2.349 -3.441,-2.668 -4.755,-1.354 m 133.82556,0.0114 C 263.49656,151.0824 263.6,152.92 263.6,156.3 l 0,3.141 -1.893,0.919 c -1.041,0.506 -2.67011,1.11128 -3.47511,1.74928 -1.902,1.506 -2.27389,1.79972 -5.40889,-0.0933 -2.497,-1.508 -4.406,-3.046 -10.817,-8.716 -4.41,-3.9 -5.724,-3.359 -9.31,3.837 -2.982,5.982 -1.853,8.968 5.653,14.949 6.31,5.028 9.376,5.638 15.026,2.986 6.393,-2.999 12.001,-8.374 14.105,-13.517 0.965,-2.359 1.055,-10.97 0.12,-11.562 -0.796,-0.505 -1.23034,-0.96745 -2.26734,-0.24145 m -6.94466,6.08745 c -4.765,3.316 -5.97583,4.58698 -4.34783,5.72698 2.19644,1.71281 6.90183,-1.27498 7.70983,-3.37998 1.335,-3.479 -0.17438,-5.75376 -3.362,-2.347 m -131.31159,-1.16136 c -2.157,1.259 -1.59224,4.13932 1.46176,6.31132 2.752,1.956 5.67898,0.91104 5.67898,-1.85696 0,-1.693 -5.49326,-5.48659 -6.85726,-4.69059 m 26.78611,9.74459 c -7.211,10.819 -6.887,9.52 -4.092,16.41 l 1.707,4.204 5.819,-0.009 c 6.961,-0.01 8.86942,0.013 11.93042,-3.33604 7.114,-7.783 7.01358,-17.55896 0.88258,-22.05996 -1.767,-1.297 -8.666,-4.595 -9.612,-4.595 -0.209,0 -3.194,4.224 -6.635,9.386 m 117.28574,-7.85302 c -0.219,0.275 -1.22674,2.95004 -2.56674,5.74004 -3.138,6.534 -10.413,13.259 -16.641,15.381 -6.118,2.084 -2.422,10.146 4.652,10.146 2.389,0 2.883,-0.671 3.501,-4.755 0.668,-4.411 2.746,-6.63 12.039,-12.856 6.87,-4.602 8.89597,-7.73663 7.05497,-11.31363 -1.484,-2.884 -6.71582,-3.927 -8.00582,-2.309 M 120.91,162.667 c -3.3643,-0.0296 -4.38483,4.75396 -2.59483,6.96696 0.719,0.889 1.53583,0.57804 6.74883,0.77104 l 5.536,0.204 4.6,3.2 4.6,3.199 0.247,3.324 c 0.381,5.117 1.697,6.599 5.058,5.694 2.3,-0.62 2.695,-1.292 2.695,-4.587 0,-4.374 -2.538,-7.258 -13.818,-15.704 l -3.818,-2.859 -3.982,-0.196 c -2.19,-0.108 -4.563,-0.114 -5.272,-0.013 m 106.802,3.433 c -1.935,2.105 -15.004,26.403 -17.696,32.9 -1.36,3.284 -3.859,10.262 -4.44,12.4 -0.179,0.66 -0.793,2.91 -1.363,5 -3.693,13.537 -4.865,26.442 -2.672,29.44 3.461,4.733 14.278,12.691 21.659,15.935 1.43,0.629 3.73,1.656 5.11,2.284 1.381,0.627 2.583,1.141 2.672,1.141 0.089,0 1.3,0.524 2.69,1.165 12.621,5.815 17.677,7.551 20.012,6.873 7.303,-2.122 17.916,-14.465 17.916,-20.836 0,-15.179 -11.193,-24.048 -31.615,-25.053 -6.435,-0.316 -6.175,-0.428 -12.553,5.413 -4.379,4.01 -7.148,5.638 -9.591,5.638 -2.058,0 -1.719,-0.309 2.82,-2.577 3.777,-1.887 6.571,-4.351 5.804,-5.118 -0.879,-0.879 -6.239,-0.171 -8.013,1.059 -1.888,1.308 -2.529,1.116 -1.567,-0.469 1.251,-2.062 2.86,-2.583 7.129,-2.312 4.445,0.282 7.383,-0.473 10.31,-2.649 3.332,-2.477 4.056,-5.395 6.489,-26.154 0.722,-6.156 1.614,-10.406 3.146,-14.98 2.415,-7.21 2.447,-6.548 -0.394,-8.295 -4.009,-2.465 -7.175,-4.996 -10.564,-8.447 -3.432,-3.495 -4.008,-3.752 -5.289,-2.358 m -101.455,8.343 c -8.073,8.283 -23.659,27.415 -28.61,35.119 l -1.647,2.562 0,9.138 c 0,5.026 0.15,9.138 0.334,9.138 0.184,0 3.649,-1.006 7.7,-2.236 4.051,-1.229 8.626,-2.608 10.166,-3.064 3.448,-1.021 3.373,-0.948 5.204,-5.1 0.825,-1.87 1.819,-4.12 2.211,-5 0.391,-0.88 2.425,-5.497 4.52,-10.259 2.094,-4.763 4.18,-9.477 4.635,-10.475 2.616,-5.742 7.49726,-16.47882 7.49726,-16.78482 0,-0.493 -2.37618,-2.34589 -3.20818,-2.34789 -0.412,0 -2.39508,2.45171 -4.57108,5.56671 -1.96,2.805 -6.32,9.06 -9.69,13.9 -6.421,9.224 -10.012,14.2 -10.248,14.2 -0.219,0 13.331,-20.85 20.402,-31.393 2.038,-3.039 2.41248,-2.867 0.17948,-4.635 l -1.99148,-1.287 -2.883,2.958 m 141.819,1.637 -4.476,3.696 0,2.51 c 0,2.099 0.285,3.146 1.746,6.411 2.084,4.658 3.16,7.728 4.031,11.503 0.356,1.54 0.735,3.16 0.844,3.6 0.585,2.376 1.376,14.151 1.377,20.516 l 0.002,7.316 8.1,5.295 c 4.455,2.912 8.588,5.604 9.185,5.983 l 1.085,0.689 0.371,-1.5 c 0.204,-0.824 0.583,-2.669 0.842,-4.099 0.259,-1.43 0.654,-3.41 0.876,-4.4 1.89,-8.403 -1.646,-25.128 -8.4,-39.74 -0.626,-1.353 -1.367,-3.09 -1.647,-3.86 -0.876,-2.411 -8.6067,-18.29782 -9.0527,-18.44482 -0.234,-0.077 -2.4223,2.49182 -4.8833,4.52482 M 174.8,175.462 c -0.33,0.093 -1.039,1.179 -1.575,2.412 -2.725,6.267 -6.71,8.526 -15.04,8.526 l -5.385,0 -0.008,1.7 c -0.013,2.533 1.201,17.286 1.683,20.466 0.842,5.553 4.704,7.834 13.261,7.834 5.393,0 5.958,-0.172 9.376,-2.859 1.42,-1.115 3.564,-2.478 4.764,-3.027 2.733,-1.251 2.697,-1.138 2.143,-6.888 -0.501,-5.194 -1.493,-9.202 -3.816,-15.426 -1.884,-5.047 -3.403,-10.03 -3.403,-11.165 0,-0.827 -0.701,-1.89 -1.18,-1.789 -0.121,0.026 -0.49,0.123 -0.82,0.216 m 66.49296,5.72174 c 0.204,0.642 -0.19492,1.16052 -0.68092,0.86052 -0.728,-0.45 -0.71104,-1.72226 0.055,-1.57326 0.367,0.071 0.50685,0.40922 0.57585,0.62922 M 239.439,186.587 c -0.144,0.575 -0.437,0.938 -0.651,0.806 -0.444,-0.275 -0.48957,-1.80489 -0.0796,-2.21489 0.522,-0.521 0.99157,0.36889 0.73057,1.40889 M 238,190.8 c 0,0.8 -0.2,1.2 -0.6,1.2 -0.605,0 -0.857,-1.61 -0.333,-2.133 0.573,-0.574 0.933,-0.214 0.933,0.933 m -0.069,6.564 c -0.072,0.583 -0.311,1.1 -0.531,1.148 -0.481,0.106 -0.762,-1.513 -0.419,-2.408 0.375,-0.976 1.107,-0.005 0.95,1.26 m -1.531,4.669 c 0,1.531 -0.88885,1.39891 -1.07385,-0.15809 -0.089,-0.758 0.003,-1.07491 0.44685,-1.07491 0.434,0 0.627,0.38 0.627,1.233 m -86.4916,7.18955 c -0.873,0.928 -0.1304,1.68945 -0.3174,5.46145 l -0.208,4.222 -3.1,2.847 c -3.811,3.501 -3.814,3.641 -0.084,4.196 7.242,1.077 11.527,5.781 13.952,15.318 0.983,3.867 1.268,5.385 2.656,14.133 1.03,6.498 1.046,6.548 2.191,6.835 1.547,0.388 2.365,-0.116 4.537,-2.793 l 2.065,-2.544 0,-4.385 c 0,-8.607 -2.597,-14.932 -9.549,-23.252 -3.125,-3.74 -3.226,-3.661 4.718,-3.661 15.933,0 29.494,-7.127 26.301,-13.823 -1.739,-3.645 -7.389,-2.511 -14.669,2.944 -8.659,6.489 -22.448,3.998 -25.4,-4.588 -0.65,-1.893 -1.67315,-2.60734 -2.89215,-1.31134 m 86.37981,0.2043 c 0.315,0.822 -0.13438,2.11293 -0.65738,1.93893 -0.247,-0.082 -0.39679,-0.3537 -0.47079,-0.7337 -0.281,-1.45 0.64326,-2.47785 1.12226,-1.22885 M 234.8,217.224 c 0,0.207 -0.27,0.376 -0.6,0.376 -0.619,0 -0.795,-0.472 -0.344,-0.922 0.319,-0.32 0.944,0.041 0.944,0.546 m 0,3.009 c 0,0.707 -0.861,0.584 -1.108,-0.158 -0.087,-0.261 0.126,-0.475 0.475,-0.475 0.348,0 0.633,0.285 0.633,0.633 m -44.308,0.919 c -4.334,3.71 -11.638,5.913 -20.937,6.315 -6.769,0.293 -6.695,0.236 -4.207,3.27 5.162,6.293 7.845,13.265 7.858,20.418 0.008,4.661 0.04,4.685 3.565,2.637 1.634,-0.95 4.694,-2.502 6.8,-3.45 8.223,-3.7 11.833,-5.698 11.762,-6.511 -0.489,-5.605 -1.033,-10.858 -1.31,-12.631 -0.188,-1.21 -0.555,-3.82 -0.814,-5.8 -0.815,-6.208 -0.678,-5.994 -2.717,-4.248 m 42.35,0.966 c -0.514,0.514 -1.035,0.117 -0.654,-0.498 0.147,-0.238 0.451,-0.32 0.674,-0.181 0.274,0.168 0.267,0.392 -0.02,0.679 m -2.93649,2.73177 c 0,0.521 -1.20736,0.74246 -1.99636,0.43946 -1.128,-0.433 -0.77115,-0.81836 0.69085,-0.81836 0.77,0 1.28779,0.13847 1.28779,0.34347 m -86.74372,2.90715 c -1.028,0.606 -0.12507,1.06151 1.71393,3.48951 3.47,4.582 9.289,18.352 12.969,30.692 0.313,1.049 2.062,1.462 3.157,0.745 1.144,-0.75 1.228,-1.468 0.613,-5.202 -0.222,-1.345 -0.682,-4.336 -1.021,-6.646 -1.462,-9.943 -2.98055,-15.7047 -6.69255,-19.3877 -3.239,-3.213 -8.87439,-5.05677 -10.55039,-4.06877 M 135.319,229.005 c -3.286,1.654 -3.216,2.205 1.555,12.137 1.548,3.222 3.584,7.478 4.525,9.458 8.74,18.388 8.537,18.053 10.666,17.586 6.55636,-1.17625 5.72672,-2.69375 2.33572,-12.53875 -7.63,-22.15 -12.10108,-31.78254 -19.08172,-26.64225 m -11.25606,3.829 c -5.664,2.568 -3.37594,4.101 8.22306,27.451 6.782,13.654 8.03545,15.21793 12.30645,13.00893 3.913,-2.023 3.71155,-3.65393 1.75955,-7.94893 -9.461,-20.816 -14.98641,-35.91729 -18.13404,-33.8557 -0.022,0.005 -2.59808,0.61223 -3.58808,1.06123 m 187.59533,10.80115 c 3.74,1.015 8.38856,2.36051 11.13856,3.10551 7.658,2.076 6.5814,2.12451 7.06159,2.45355 -0.29651,0.45765 -5.56413,1.83732 -8.13513,-0.007 -2.221,-1.593 -5.17925,-3.15174 -9.50125,-4.74674 -5.1148,-2.44715 -6.91416,-2.18828 -0.94173,-0.90013 M 204.4,242.2 c 0,0.33 -0.18,0.6 -0.4,0.6 -0.22,0 -0.4,-0.27 -0.4,-0.6 0,-0.33 0.18,-0.6 0.4,-0.6 0.22,0 0.4,0.27 0.4,0.6 m 6.8,1.6 c 0,0.33 -0.27,0.6 -0.6,0.6 -0.33,0 -0.6,-0.27 -0.6,-0.6 0,-0.33 0.27,-0.6 0.6,-0.6 0.33,0 0.6,0.27 0.6,0.6 m -115.560643,0.4374 c -1.362,0.532 -7.869056,2.68639 -11.359056,3.93539 -1.43,0.511 -4.13,1.40651 -6,2.10551 -5.484578,1.83639 -6.750749,1.72115 -4.494921,-0.44855 1.856,-2.519 1.741129,-2.0176 5.990129,-2.2186 3.501,-0.165 5.317037,-0.74373 11.752037,-2.55473 1.84,-0.518 4.160602,-1.38819 4.160602,-1.01019 M 206.112,245.4 c 0.049,0.22 -0.497,0.456 -1.212,0.525 -1.229,0.119 -1.648,-0.243 -1.015,-0.877 0.402,-0.401 2.122,-0.13 2.227,0.352 m 4.888,4 c 0,0.623 -0.225,1.208 -0.5,1.3 -0.339,0.113 -0.5,-0.304 -0.5,-1.3 0,-0.996 0.161,-1.413 0.5,-1.3 0.275,0.092 0.5,0.677 0.5,1.3 m 7.8,-0.8 c 0,0.33 -0.18,0.6 -0.4,0.6 -0.22,0 -0.4,-0.27 -0.4,-0.6 0,-0.33 0.18,-0.6 0.4,-0.6 0.22,0 0.4,0.27 0.4,0.6 m 6.18,1.849 c 0.222,0.205 -0.483,0.351 -1.7,0.351 -1.935,0 -2.469,-0.277 -1.809,-0.938 0.337,-0.336 2.991,0.107 3.509,0.587 m -4.646,4.005 c -0.074,0.52 -0.314,0.911 -0.534,0.867 -0.513,-0.101 -0.739,-1.182 -0.421,-2.011 0.362,-0.942 1.121,-0.032 0.955,1.144 m 9.666,0.003 c 0,0.79 -0.174,1.152 -0.5,1.043 -0.589,-0.196 -0.864,-1.296 -0.537,-2.149 0.364,-0.947 1.037,-0.229 1.037,1.106 m -8,2.143 c 0,0.33 -0.169,0.6 -0.376,0.6 -0.505,0 -0.866,-0.625 -0.546,-0.944 0.45,-0.451 0.922,-0.275 0.922,0.344 m 4.764,1.466 c -0.504,0.943 -1.164,0.589 -1.164,-0.623 0,-1.256 0.482,-1.62 1.074,-0.81 0.35,0.479 0.376,0.899 0.09,1.433 M 234.8,256.6 c 0,0.33 -0.27,0.6 -0.6,0.6 -0.33,0 -0.6,-0.27 -0.6,-0.6 0,-0.33 0.27,-0.6 0.6,-0.6 0.33,0 0.6,0.27 0.6,0.6 m -3.4,3.4 c 0,0.693 -1.342,0.972 -2.151,0.447 -0.303,-0.197 -0.421,-0.568 -0.262,-0.825 0.412,-0.667 2.413,-0.354 2.413,0.378 m 9.7,-0.3 c -0.092,0.275 -0.677,0.5 -1.3,0.5 -0.623,0 -1.208,-0.225 -1.3,-0.5 -0.113,-0.339 0.304,-0.5 1.3,-0.5 0.996,0 1.413,0.161 1.3,0.5 m -4.775,2.4 c -0.069,0.715 -0.305,1.3 -0.525,1.3 -0.22,0 -0.456,-0.585 -0.525,-1.3 -0.095,-0.985 0.032,-1.3 0.525,-1.3 0.493,0 0.62,0.315 0.525,1.3 m 3.183,0.775 c -0.247,0.742 -1.108,0.865 -1.108,0.158 0,-0.348 0.285,-0.633 0.633,-0.633 0.349,0 0.562,0.214 0.475,0.475 m 6.4,0 c -0.247,0.742 -1.108,0.865 -1.108,0.158 0,-0.348 0.285,-0.633 0.633,-0.633 0.349,0 0.562,0.214 0.475,0.475 m 6.292,1.525 c 0,0.385 -0.467,0.645 -1.3,0.725 -1.253,0.121 -1.767,-0.525 -1.015,-1.277 0.506,-0.506 2.315,-0.075 2.315,0.552 m -11,0.2 c 0,0.33 -0.27,0.6 -0.6,0.6 -0.33,0 -0.6,-0.27 -0.6,-0.6 0,-0.33 0.27,-0.6 0.6,-0.6 0.33,0 0.6,0.27 0.6,0.6 m 4.6,1.4 c 0,0.702 -1.709,1.051 -2.291,0.469 -0.638,-0.638 0.072,-1.326 1.229,-1.192 0.623,0.072 1.062,0.371 1.062,0.723 m 11.308,1.675 c -0.247,0.742 -1.108,0.865 -1.108,0.158 0,-0.348 0.285,-0.633 0.633,-0.633 0.349,0 0.562,0.214 0.475,0.475 m -6.308,1.749 c 0,0.317 -0.27,0.576 -0.6,0.576 -0.602,0 -0.822,-0.844 -0.344,-1.322 0.373,-0.374 0.944,0.077 0.944,0.746 m -50.79752,57.10815 c 0.0208,9.01699 -0.0905,17.62195 -1.38214,16.11344 -1.909,-2.954 -1.86211,-3.21114 -1.08711,-4.71614 0.828,-1.607 1.3327,-7.22004 1.8587,-13.46204 0.249,-2.952 0.20992,-3.93663 0.32292,-4.22963 0.576,-1.502 -0.0192,-1.40815 0.22081,5.75985"
       inkscape:connector-curvature="0"
       style="fill:#faf9f9;fill-rule:evenodd;stroke:none"
       sodipodi:nodetypes="ccccccsccccscscccccsccsccccccsssccccccccccccccccccccscsccccsccccccccsccccccccccccccccccscccccccccsccscccccccccsccccscccccccccccccccsccccccccsccccccsccccccccccscccccccsccccsccccccccccccscccccccccccsccsccscsccccccccccccsscsccccscccsccccccscccccccccscccccccscccsccccscccccccccccsccccccccscccccccccccssscccccccccsccccscccccccccccccccccsccccccccccccccccccccccccscccsssccsssccccccccccccccscccsssccscccccccccccscccscccsssccccccscsccscsccssccsscccsccsssccscccssccscccccccc" />
    <path
       id="path1"
       d="m 239.8,87.091 c -0.88,0.086 -5.74,0.793 -10.8,1.571 -15.61,2.401 -25.643,3.338 -35.6,3.324 -6.449,-0.009 -10.069,-0.274 -21.8,-1.596 -14.242,-1.605 -26.092,-1.515 -29.053,0.22 -7.751,4.542 -9.09,12.096 -3.662,20.655 7.468,11.777 4.859,20.885 -5.379,18.783 -3.805,-0.781 -4.84,-1.631 -8.096,-6.645 -3.896,-6.001 -4.652,-6.404 -12.01,-6.4 -6.372,0.003 -7.548,0.372 -10.106,3.171 -5.395,5.902 -8.138,15.261 -9.68,33.026 -1.557,17.933 -3.169,23.213 -12.904,42.284 -7.298,14.297 -8.31,17.548 -8.31,26.697 -0.79191,11.93812 7.115163,19.09686 18.416,14.782 13.094,-2.346 17.007,-0.95 16.968,6.053 -0.027,5.015 -1.633,6.555 -10.412,9.988 -8.63,3.375 -10.572,5.519 -10.572,11.677 0,6.728 5.166,11.271 23.8,20.929 3.08,1.597 6.14,3.216 6.8,3.598 0.66,0.382 2.82,1.556 4.8,2.61 11.095,5.904 15.044,8.944 26.2,20.177 15.869,15.979 21.76,19.707 31.2,19.741 8.227,0.03 10.286,-1.501 11.747,-8.736 0.356,-1.76 1.025,-5.09 1.487,-7.4 1.391,-6.947 3.007,-9.634 6.152,-10.224 4.266,-0.8 6.655,2.276 9.181,11.824 2.748,10.387 3.522,12.004 6.412,13.383 7.072,3.375 18.177,1.259 25.621,-4.881 1.974,-1.629 4.553,-4.003 9.201,-8.471 12.01,-11.547 19.506,-17.468 35.923,-28.378 18.098,-12.027 23.975,-17.33 27.332,-24.664 2.88,-6.29 0.812,-9.953 -8.866,-15.701 -9.275,-5.509 -11.369,-8.77 -8.994,-14.003 1.31,-2.887 2.251,-3.089 12.004,-2.584 13.966,0.725 17.487,-0.739 21.412,-8.9 3.326,-6.914 1.691,-12.778 -7.647,-27.435 -9.894,-15.53 -13.303,-25.906 -17.793,-54.166 -2.639,-16.613 -5.098,-22.283 -10.972,-25.295 -6.647,-3.408 -10.078,-2.739 -16.442,3.208 -6.936,6.481 -8.756,7.466 -14.38,7.784 -8.677,0.489 -10.133,-6.169 -3.767,-17.212 6.69075,-8.88285 3.255,-18.31 -3.454,-21.463 -2.492,-1.172 -9.119,-1.804 -13.957,-1.331 m -80.768,50.706 c 2.474,1.887 2.572,6.347 0.207,9.383 l -0.763,0.98 -4.826,-3.18 c -5.28,-3.479 -5.302,-3.518 -3.432,-6.016 2.058,-2.75 6.047,-3.278 8.814,-1.167 m 87.703,0.756 c 1.323,1.323 1.003,2.246 -1.931,5.57 -3.218,3.645 -3.205,3.698 2.468,10.331 1.813,2.12 2.339,3.146 1.613,3.146 -0.679,0 -10.154,-9.376 -11.091,-10.974 -3.452,-5.891 4.207,-12.807 8.941,-8.073 m -102.991,2.281 c 2.147,1.89 2.225,2.266 0.82,3.935 -1.355,1.611 -1.984,1.552 -4.264,-0.403 -2.21,-1.894 -2.442,-3.082 -0.846,-4.337 1.495,-1.176 2.186,-1.047 4.29,0.805 M 253.12,139.68 c 1.429,1.429 0.61,3.33 -2.8,6.498 -3.888,3.612 -4.864,4 -6.19,2.459 -1.166,-1.356 -1.024,-1.642 2.531,-5.109 4.571,-4.458 5.372,-4.935 6.459,-3.848 m 4.4,4.4 c 1.709,1.709 -0.704,4.904 -6.226,8.246 -5.211,3.153 -6.057,0.346 -1.196,-3.97 1.583,-1.406 3.424,-3.046 4.09,-3.644 1.3,-1.167 2.558,-1.406 3.332,-0.632 m -107.548,0.549 c 3.667,1.276 5.449,2.326 7.476,4.403 3.184,3.261 3.295,2.773 -2.564,11.269 -2.844,4.125 -5.871,8.525 -6.727,9.779 -2.354,3.447 -2.249,3.481 -10.492,-3.43 -4.307,-3.61 -4.195,-4.086 3.571,-15.137 5.666,-8.064 5.568,-7.987 8.736,-6.884 m -10.864,1.119 c 2.753,1.749 3.116,2.394 2.219,3.935 -1.022,1.756 -2.496,1.925 -4.526,0.518 -4.18,-2.897 -1.967,-7.169 2.307,-4.453 M 262,148.4 c 1.54,1.54 0.193,3.602 -4.122,6.313 -7.104,4.464 -11.292,2.83 -5.178,-2.02 6.779,-5.378 7.761,-5.832 9.3,-4.293 m -126.045,2.954 c 2.331,2.361 2.418,2.981 0.651,4.64 l -0.98,0.921 -1.513,-1.12 c -3.84,-2.842 -4.517,-4.191 -2.913,-5.795 1.314,-1.314 2.435,-0.995 4.755,1.354 M 267.6,149.993 c 0.935,0.592 0.845,9.203 -0.12,11.562 -2.104,5.143 -7.712,10.518 -14.105,13.517 -5.65,2.652 -8.716,2.042 -15.026,-2.986 -7.506,-5.981 -8.635,-8.967 -5.653,-14.949 3.586,-7.196 4.9,-7.737 9.31,-3.837 11.473,10.147 13.582,11.327 16.344,9.14 0.805,-0.638 2.316,-1.574 3.357,-2.08 l 1.893,-0.919 0,-3.141 c 0,-4.571 1.933,-7.618 4,-6.307 m -5.6,6.223 c 0,3.342 -5.102,6.848 -7.511,5.161 -1.628,-1.14 -0.866,-2.222 3.899,-5.538 2.87,-1.997 3.612,-1.92 3.612,0.377 m -130.359,0.245 c 2.649,1.858 3.014,2.99 1.489,4.613 -2.021,2.152 -7.827,-1.99 -6.752,-4.817 0.853,-2.242 1.83,-2.204 5.263,0.204 m 33.153,-0.085 c 10.3,4.467 12.44,10.79 6.968,20.581 -3.497,6.257 -6.331,7.822 -14.182,7.834 l -5.819,0.009 -1.707,-4.204 c -2.795,-6.89 -3.119,-5.591 4.092,-16.41 3.441,-5.162 6.426,-9.386 6.635,-9.386 0.208,0 2.014,0.709 4.013,1.576 m 111.383,0.531 c 5.59,3.168 4.291,7.688 -3.761,13.082 -9.293,6.226 -11.371,8.445 -12.039,12.856 -0.618,4.084 -1.112,4.755 -3.501,4.755 -7.074,0 -10.77,-8.062 -4.652,-10.146 6.228,-2.122 13.503,-8.847 16.641,-15.381 3.291,-6.854 3.755,-7.182 7.312,-5.166 m -142.195,8.828 c 11.28,8.446 13.818,11.33 13.818,15.704 0,3.295 -0.395,3.967 -2.695,4.587 -3.361,0.905 -4.677,-0.577 -5.058,-5.694 l -0.247,-3.324 -4.6,-3.199 -4.6,-3.2 -5.536,-0.204 C 118.658,170.168 118,169.814 118,166.61 c 0,-3.556 1.468,-4.261 8.182,-3.93 l 3.982,0.196 3.818,2.859 m 99.019,2.723 c 3.389,3.451 6.555,5.982 10.564,8.447 2.841,1.747 2.809,1.085 0.394,8.295 -1.532,4.574 -2.424,8.824 -3.146,14.98 -2.433,20.759 -3.157,23.677 -6.489,26.154 -2.927,2.176 -5.865,2.931 -10.31,2.649 -4.269,-0.271 -5.878,0.25 -7.129,2.312 -0.962,1.585 -0.321,1.777 1.567,0.469 1.774,-1.23 7.134,-1.938 8.013,-1.059 0.767,0.767 -2.027,3.231 -5.804,5.118 -4.539,2.268 -4.878,2.577 -2.82,2.577 2.443,0 5.212,-1.628 9.591,-5.638 6.378,-5.841 6.118,-5.729 12.553,-5.413 20.422,1.005 31.615,9.874 31.615,25.053 0,6.371 -10.613,18.714 -17.916,20.836 -2.335,0.678 -7.391,-1.058 -20.012,-6.873 -1.39,-0.641 -2.601,-1.165 -2.69,-1.165 -0.089,0 -1.291,-0.514 -2.672,-1.141 -1.38,-0.628 -3.68,-1.655 -5.11,-2.284 -7.381,-3.244 -18.198,-11.202 -21.659,-15.935 -2.193,-2.998 -1.021,-15.903 2.672,-29.44 0.57,-2.09 1.184,-4.34 1.363,-5 2.393,-8.803 7.144,-19.103 16.605,-36 6.694,-11.955 6.205,-11.641 10.82,-6.942 m -100.418,5.914 c 0.106,0.173 -0.627,1.538 -1.631,3.035 -7.071,10.543 -20.621,31.393 -20.402,31.393 0.236,0 3.827,-4.976 10.248,-14.2 15.028,-21.586 13.404,-19.727 15.902,-18.204 0.715,0.436 1.3,0.954 1.3,1.152 0,0.306 -4.614,10.976 -7.23,16.718 -0.455,0.998 -2.541,5.712 -4.635,10.475 -2.095,4.762 -4.129,9.379 -4.52,10.259 -0.392,0.88 -1.386,3.13 -2.211,5 -1.831,4.152 -1.756,4.079 -5.204,5.1 -1.54,0.456 -6.115,1.835 -10.166,3.064 -4.051,1.23 -7.516,2.236 -7.7,2.236 C 96.15,230.4 96,226.288 96,221.262 l 0,-9.138 1.647,-2.562 c 4.951,-7.704 20.537,-26.836 28.61,-35.119 l 2.883,-2.958 1.624,1.287 c 0.894,0.707 1.712,1.428 1.819,1.6 m 144.869,6.26 c 2.228,4.382 4.28,8.598 4.56,9.368 0.28,0.77 1.021,2.507 1.647,3.86 6.754,14.612 10.29,31.337 8.4,39.74 -0.222,0.99 -0.617,2.97 -0.876,4.4 -0.259,1.43 -0.638,3.275 -0.842,4.099 l -0.371,1.5 -1.085,-0.689 c -0.597,-0.379 -4.73,-3.071 -9.185,-5.983 l -8.1,-5.295 -0.002,-7.316 c -0.001,-6.365 -0.792,-18.14 -1.377,-20.516 -0.109,-0.44 -0.488,-2.06 -0.844,-3.6 -0.871,-3.775 -1.947,-6.845 -4.031,-11.503 -1.461,-3.265 -1.746,-4.312 -1.746,-6.411 l 0,-2.51 4.476,-3.696 c 2.461,-2.033 4.666,-3.633 4.9,-3.556 0.233,0.076 2.247,3.725 4.476,8.108 M 176.32,175.68 c 0.264,0.264 0.48,0.874 0.48,1.355 0,1.135 1.519,6.118 3.403,11.165 2.323,6.224 3.315,10.232 3.816,15.426 0.554,5.75 0.59,5.637 -2.143,6.888 -1.2,0.549 -3.344,1.912 -4.764,3.027 -3.418,2.687 -3.983,2.859 -9.376,2.859 -8.557,0 -12.419,-2.281 -13.261,-7.834 -0.482,-3.18 -1.696,-17.933 -1.683,-20.466 l 0.008,-1.7 5.385,0 c 8.33,0 12.315,-2.259 15.04,-8.526 0.846,-1.945 1.247,-2.385 2.395,-2.628 0.121,-0.025 0.436,0.17 0.7,0.434 m 63.68,5.467 c 0,1.022 0.78,1.529 1.238,0.804 0.467,-0.738 0.242,-1.323 -0.571,-1.48 -0.445,-0.087 -0.667,0.139 -0.667,0.676 m -1.327,3.913 c -0.41,0.41 -0.329,2.058 0.115,2.333 0.52,0.321 1.017,-1.748 0.536,-2.229 -0.208,-0.208 -0.5,-0.254 -0.651,-0.104 m -1.606,4.807 c -0.524,0.523 -0.272,2.133 0.333,2.133 0.4,0 0.6,-0.4 0.6,-1.2 0,-1.147 -0.36,-1.507 -0.933,-0.933 m -0.086,6.237 c -0.343,0.895 -0.062,2.514 0.419,2.408 0.22,-0.048 0.459,-0.565 0.531,-1.148 0.157,-1.265 -0.575,-2.236 -0.95,-1.26 m -1.708,5.765 c 0.185,1.557 1.127,1.695 1.127,0.164 0,-0.853 -0.193,-1.233 -0.627,-1.233 -0.444,0 -0.589,0.311 -0.5,1.069 m -82.272,8.264 c 2.952,8.586 16.741,11.077 25.4,4.588 7.28,-5.455 12.93,-6.589 14.669,-2.944 3.193,6.696 -10.368,13.823 -26.301,13.823 -7.944,0 -7.843,-0.079 -4.718,3.661 6.952,8.32 9.549,14.645 9.549,23.252 l 0,4.385 -2.065,2.544 c -2.172,2.677 -2.99,3.181 -4.537,2.793 -1.145,-0.287 -1.161,-0.337 -2.191,-6.835 -1.388,-8.748 -1.673,-10.266 -2.656,-14.133 -2.425,-9.537 -6.71,-14.241 -13.952,-15.318 -3.73,-0.555 -3.727,-0.695 0.084,-4.196 l 3.1,-2.847 0.208,-4.222 c 0.282,-5.706 2.154,-8.204 3.41,-4.551 m 82.353,-1.156 c -0.308,0.801 -0.043,1.927 0.495,2.106 0.523,0.174 0.996,-1.3 0.681,-2.122 -0.279,-0.727 -0.894,-0.719 -1.176,0.016 m -1.498,7.701 c -0.451,0.45 -0.275,0.922 0.344,0.922 0.33,0 0.6,-0.169 0.6,-0.376 0,-0.505 -0.625,-0.866 -0.944,-0.546 m -0.164,3.397 c 0.247,0.742 1.108,0.865 1.108,0.158 0,-0.348 -0.285,-0.633 -0.633,-0.633 -0.349,0 -0.562,0.214 -0.475,0.475 m -41.131,0.825 c 0.096,0.495 0.388,2.52 0.648,4.5 0.259,1.98 0.626,4.59 0.814,5.8 0.277,1.773 0.821,7.026 1.31,12.631 0.071,0.813 -3.539,2.811 -11.762,6.511 -2.106,0.948 -5.166,2.5 -6.8,3.45 -3.525,2.048 -3.557,2.024 -3.565,-2.637 -0.013,-7.153 -2.696,-14.125 -7.858,-20.418 -2.488,-3.034 -2.562,-2.977 4.207,-3.27 9.299,-0.402 16.603,-2.605 20.937,-6.315 1.599,-1.369 1.845,-1.398 2.069,-0.252 m 39.627,0.72 c -0.381,0.615 0.14,1.012 0.654,0.498 0.287,-0.287 0.294,-0.511 0.02,-0.679 -0.223,-0.139 -0.527,-0.057 -0.674,0.181 m -4.988,3.137 c 0,0.529 1.205,0.895 2.056,0.625 1.233,-0.391 0.838,-0.982 -0.656,-0.982 -0.77,0 -1.4,0.161 -1.4,0.357 m -78.108,3.935 c 6.318,3.113 9.628,9.484 11.484,22.108 0.339,2.31 0.799,5.301 1.021,6.646 0.615,3.734 0.531,4.452 -0.613,5.202 -1.095,0.717 -2.844,0.304 -3.157,-0.745 -3.68,-12.34 -9.499,-26.11 -12.969,-30.692 -3.025,-3.994 -1.093,-5.144 4.234,-2.519 m -8.26,0.531 c 3.958,2.818 11.944,20.005 15.378,33.096 0.817,3.114 -0.574,5.082 -4.145,5.867 -2.129,0.467 -1.926,0.802 -10.666,-17.586 -0.941,-1.98 -2.977,-6.236 -4.525,-9.458 -4.771,-9.932 -4.841,-10.483 -1.555,-12.137 2.33,-1.173 3.632,-1.122 5.513,0.218 m -11.662,3.227 c 1.201,0.418 1.793,1.47 8.612,15.3 11.824,23.979 11.366,22.188 6.338,24.788 -4.271,2.209 -5.052,1.401 -11.834,-12.253 -11.877,-23.91 -12.295,-26.566 -4.446,-28.276 0.022,-0.005 0.621,0.193 1.33,0.441 m 74.43,9.75 c 0,0.33 0.18,0.6 0.4,0.6 0.22,0 0.4,-0.27 0.4,-0.6 0,-0.33 -0.18,-0.6 -0.4,-0.6 -0.22,0 -0.4,0.27 -0.4,0.6 m 6.4,1.6 c 0,0.33 0.27,0.6 0.6,0.6 0.33,0 0.6,-0.27 0.6,-0.6 0,-0.33 -0.27,-0.6 -0.6,-0.6 -0.33,0 -0.6,0.27 -0.6,0.6 m -6.115,1.248 c -0.633,0.634 -0.214,0.996 1.015,0.877 0.715,-0.069 1.261,-0.305 1.212,-0.525 -0.105,-0.482 -1.825,-0.753 -2.227,-0.352 M 210,249.4 c 0,0.996 0.161,1.413 0.5,1.3 0.275,-0.092 0.5,-0.677 0.5,-1.3 0,-0.623 -0.225,-1.208 -0.5,-1.3 -0.339,-0.113 -0.5,0.304 -0.5,1.3 m 8,-0.8 c 0,0.33 0.18,0.6 0.4,0.6 0.22,0 0.4,-0.27 0.4,-0.6 0,-0.33 -0.18,-0.6 -0.4,-0.6 -0.22,0 -0.4,0.27 -0.4,0.6 m 3.471,1.262 c -0.66,0.661 -0.126,0.938 1.809,0.938 1.217,0 1.922,-0.146 1.7,-0.351 -0.518,-0.48 -3.172,-0.923 -3.509,-0.587 m -2.092,3.448 c -0.318,0.829 -0.092,1.91 0.421,2.011 0.558,0.11 0.76,-1.721 0.247,-2.234 -0.294,-0.294 -0.495,-0.227 -0.668,0.223 m 9.584,0.041 c -0.327,0.853 -0.052,1.953 0.537,2.149 0.326,0.109 0.5,-0.253 0.5,-1.043 0,-1.335 -0.673,-2.053 -1.037,-1.106 m -7.885,2.905 c -0.32,0.319 0.041,0.944 0.546,0.944 0.207,0 0.376,-0.27 0.376,-0.6 0,-0.619 -0.472,-0.795 -0.922,-0.344 m 4.811,-0.012 c -0.419,0.419 -0.355,2.068 0.091,2.344 0.673,0.416 1.246,-1.199 0.694,-1.955 -0.273,-0.373 -0.626,-0.548 -0.785,-0.389 m 7.711,0.356 c 0,0.33 0.27,0.6 0.6,0.6 0.33,0 0.6,-0.27 0.6,-0.6 0,-0.33 -0.27,-0.6 -0.6,-0.6 -0.33,0 -0.6,0.27 -0.6,0.6 m -4.613,3.022 c -0.159,0.257 -0.041,0.628 0.262,0.825 0.809,0.525 2.151,0.246 2.151,-0.447 0,-0.732 -2.001,-1.045 -2.413,-0.378 m 9.513,0.078 c 0.092,0.275 0.677,0.5 1.3,0.5 0.623,0 1.208,-0.225 1.3,-0.5 0.113,-0.339 -0.304,-0.5 -1.3,-0.5 -0.996,0 -1.413,0.161 -1.3,0.5 m -3.225,2.4 c 0.069,0.715 0.305,1.3 0.525,1.3 0.22,0 0.456,-0.585 0.525,-1.3 0.095,-0.985 -0.032,-1.3 -0.525,-1.3 -0.493,0 -0.62,0.315 -0.525,1.3 m 3.125,0.933 c 0,0.349 0.214,0.562 0.475,0.475 0.742,-0.247 0.865,-1.108 0.158,-1.108 -0.348,0 -0.633,0.285 -0.633,0.633 m 6.4,0 c 0,0.349 0.214,0.562 0.475,0.475 0.742,-0.247 0.865,-1.108 0.158,-1.108 -0.348,0 -0.633,0.285 -0.633,0.633 m 5.085,0.815 c -0.752,0.752 -0.238,1.398 1.015,1.277 1.581,-0.152 1.801,-1.267 0.285,-1.443 -0.558,-0.065 -1.143,0.01 -1.3,0.166 M 240,264.6 c 0,0.33 0.27,0.6 0.6,0.6 0.33,0 0.6,-0.27 0.6,-0.6 0,-0.33 -0.27,-0.6 -0.6,-0.6 -0.33,0 -0.6,0.27 -0.6,0.6 m 3.393,1.012 c -0.156,0.252 -0.104,0.637 0.116,0.857 0.582,0.582 2.291,0.233 2.291,-0.469 0,-0.726 -2,-1.048 -2.407,-0.388 M 256,267.833 c 0,0.707 0.861,0.584 1.108,-0.158 0.087,-0.261 -0.126,-0.475 -0.475,-0.475 -0.348,0 -0.633,0.285 -0.633,0.633 m -6.144,0.845 c -0.478,0.478 -0.258,1.322 0.344,1.322 0.33,0 0.6,-0.259 0.6,-0.576 0,-0.669 -0.571,-1.12 -0.944,-0.746"
       inkscape:connector-curvature="0"
       style="fill:#f00000;fill-rule:evenodd;stroke:none;fill-opacity:1"
       sodipodi:nodetypes="cccscccccccsccccscsccccccscccscccccsccccccccccccccccsccccccccscccccccccccccccccccccccccccsccccscccccsccccccccccsccccsccccsccccsccccccscccccccccccscsccsccscccccsccssccsccccscssccsccccsccscccccccccscccccsccccscccscccccccccsccssccccccssccccssscccccccccccccccssccsscccccccccccccsccccsccccccccccccccccccccccsssccssscccccccscccsssccsccccscccsccssccccccssscccsccscsccscscccscccsccccccsssccsscccsccssc" />
    <path
       id="path2"
       d="m 176.994,0.497 c -0.175,0.479 -0.696,3.1 -4.609,23.202 l -1.694,8.699 -1.445,0.344 c -0.795,0.19 -2.616,0.564 -4.046,0.833 -6.318,1.186 -16.778,4.04 -23.386,6.38 -1.313,0.465 -2.608,0.845 -2.879,0.845 -0.271,0 -5.476,-5.715 -11.566,-12.7 -6.09,-6.985 -11.233,-12.761 -11.429,-12.836 -0.196,-0.075 -3.908,1.918 -8.248,4.428 -4.341,2.511 -13.427,7.764 -20.192,11.675 -6.765,3.91 -12.3,7.347 -12.3,7.637 0,0.46 1.549,5.059 9.28,27.563 l 1.638,4.767 -2.559,2.206 C 80.347,76.309 68.132,88.503 64.971,92.096 L 62.6,94.792 60.8,94.151 C 51.318,90.777 31.938,84.257 30.956,84.111 29.633,83.914 29.576,83.989 25.2,91.8 23.711,94.458 9.636,118.799 7.876,121.761 l -1.641,2.761 1.421,1.239 c 0.782,0.681 6.265,5.452 12.183,10.601 5.919,5.149 11.169,9.747 11.668,10.217 l 0.908,0.854 -1.979,5.983 c -2.245,6.786 -4.41,15.068 -5.851,22.374 -0.687,3.485 -0.816,3.648 -3.177,4.032 -1.681,0.273 -18.943,3.63 -20.511,3.988 l -0.903,0.207 0.103,25.664 0.103,25.663 10.2,1.964 c 5.61,1.081 10.919,2.173 11.797,2.428 l 1.597,0.464 0.714,3.6 c 1.286,6.49 3.539,15.085 5.688,21.702 l 2.112,6.501 -12.654,11.049 c -6.96,6.077 -12.777,11.259 -12.928,11.516 -0.15,0.257 2.075,4.509 4.944,9.449 2.87,4.941 8.008,13.843 11.418,19.783 3.41,5.94 6.414,11.028 6.676,11.306 0.381,0.404 1.511,0.15 5.656,-1.272 2.849,-0.978 9.929,-3.41 15.734,-5.406 12.666,-4.354 11.274,-4.303 14.517,-0.528 3.645,4.243 11.716,12.312 16.429,16.426 2.145,1.872 3.9,3.524 3.9,3.671 0,0.23 -4.268,12.83 -9.389,27.719 -1.826,5.306 -2.101,4.724 3.839,8.119 2.723,1.556 8.01,4.597 11.75,6.759 15.357,8.875 17.33,10.012 20.258,11.672 1.681,0.954 3.216,1.734 3.409,1.734 0.194,0 5.37,-5.76 11.502,-12.8 6.132,-7.04 11.418,-12.8 11.747,-12.8 0.328,0 2.744,0.726 5.369,1.613 2.625,0.886 5.795,1.891 7.044,2.231 4.227,1.152 11.457,2.89 14.071,3.383 5.661,1.066 4.899,-0.047 6.839,9.973 0.234,1.21 0.582,2.92 0.773,3.8 0.191,0.88 0.822,4.12 1.403,7.2 1.563,8.297 2.643,13.562 2.849,13.9 0.275,0.451 46.843,0.374 47.123,-0.079 0.128,-0.208 1.051,-4.573 2.049,-9.7 4.06,-20.84 4.601,-23.328 5.173,-23.761 0.319,-0.242 2.248,-0.757 4.286,-1.145 5.811,-1.104 15.302,-3.607 21.227,-5.596 2.979,-1.001 5.599,-1.819 5.821,-1.819 0.222,0 5.389,5.715 11.482,12.7 6.093,6.985 11.238,12.761 11.435,12.836 0.325,0.124 6.551,-3.374 24.14,-13.564 3.52,-2.039 8.627,-4.981 11.35,-6.537 2.722,-1.556 5.036,-3.055 5.142,-3.332 0.184,-0.477 -2.105,-7.478 -8.125,-24.854 l -2.686,-7.752 2.36,-2.046 c 5.513,-4.781 14.381,-13.645 19.161,-19.153 l 1.998,-2.301 1.8,0.647 c 2.723,0.981 28.439,9.781 29.711,10.168 1.308,0.398 1.591,-0.011 8.584,-12.412 1.009,-1.791 6.77,-11.773 12.082,-20.934 l 4.136,-7.135 -0.956,-0.911 c -0.527,-0.502 -6.087,-5.369 -12.357,-10.817 -6.27,-5.448 -11.721,-10.209 -12.114,-10.579 -0.683,-0.645 -0.636,-0.907 1.072,-6.049 2.666,-8.024 4.278,-14.147 6.046,-22.963 0.779,-3.887 -0.326,-3.207 7.848,-4.825 7.328,-1.451 9.244,-1.845 12.648,-2.6 l 2.1,-0.467 0,-25.933 c 0,-24.348 -0.043,-25.946 -0.7,-26.151 -0.633,-0.197 -6.205,-1.3 -16.405,-3.248 -4.789,-0.914 -4.73,-0.855 -5.729,-5.788 -1.363,-6.732 -1.47,-7.208 -2.517,-11.2 -0.823,-3.136 -4.227,-13.886 -4.883,-15.422 -0.154,-0.361 4.018,-4.111 23.105,-20.772 1.509,-1.316 2.658,-2.615 2.554,-2.885 -0.104,-0.27 -4.756,-8.373 -10.339,-18.006 -5.583,-9.633 -10.732,-18.546 -11.443,-19.807 -0.711,-1.26 -1.416,-2.364 -1.568,-2.453 -0.329,-0.194 -0.818,-0.036 -18.748,6.078 l -14.073,4.799 -2.867,-3.466 c -4.643,-5.614 -13.3,-14.864 -16.533,-17.666 -3.475,-3.011 -3.433,-2.845 -1.818,-7.238 0.679,-1.849 1.384,-3.812 1.567,-4.362 0.182,-0.55 1.263,-3.61 2.402,-6.8 4.586,-12.838 6.093,-17.233 5.948,-17.346 -0.143,-0.111 -7.985,-4.77 -25.553,-15.182 -4.07,-2.412 -8.856,-5.254 -10.635,-6.316 -1.779,-1.062 -3.511,-2.037 -3.848,-2.167 -0.609,-0.233 -1.127,0.327 -18.653,20.13 -3.154,3.565 -6.011,6.481 -6.349,6.481 -0.337,0 -2.513,-0.636 -4.834,-1.412 -5.905,-1.976 -14.91,-4.385 -21.28,-5.693 l -5.4,-1.108 -2.495,-12.594 C 227.534,13.067 226.234,6.5 226.017,5.4 225.801,4.3 225.477,2.68 225.297,1.8 L 224.97,0.2 201.074,0.097 c -18.908,-0.082 -23.935,0.002 -24.08,0.4 m 33.331,67.928 c 8.245,0.598 15.41,1.716 23.275,3.633 19.423,4.734 35.219,12.78 37.186,18.942 0.748,2.345 0.866,2.373 3.657,0.879 7.823,-4.185 10.471,-2.208 9.405,7.021 l -0.312,2.7 2.028,0 c 8.081,0 23.446,14.901 34.825,33.774 10.649,17.662 16.963,36.205 19.414,57.014 0.693,5.889 0.808,23.391 0.182,27.735 -1.026,7.124 -1.331,8.671 -2.3,11.677 -1.258,3.899 -2.3,5.637 -4.519,7.536 l -1.698,1.454 2.21,2.316 c 3.552,3.724 4.812,6.709 3.384,8.013 -1.752,1.6 -6.205,3.265 -8.762,3.276 -0.605,0.003 -1.1,0.08 -1.1,0.173 0,0.092 0.279,1.256 0.62,2.587 1.197,4.674 -0.527,10.167 -6.922,22.045 -9.033,16.78 -26.829,34.953 -45.954,46.93 -24.007,15.033 -56.542,23.405 -65.27,16.794 -0.73,-0.553 -1.382,-0.942 -1.45,-0.864 -0.067,0.077 -0.627,1.179 -1.243,2.449 -3.813,7.862 -7.994,7.882 -11.767,0.059 l -1.266,-2.626 -1.04,0.681 C 189.223,345.038 189.382,345 183,345 c -7.395,0 -10.491,-0.54 -24.392,-4.25 C 128.776,332.788 94.981,305.362 80.3,277.2 76.373,269.669 75.736,266.861 76.485,260.407 76.594,259.468 76.462,259.398 74,259.1 c -4.116,-0.499 -8,-2.4 -8,-3.916 0,-1.418 2.272,-5.326 4.166,-7.167 2.229,-2.168 2.226,-1.987 0.071,-3.506 -9.369,-6.604 -11.636,-42.657 -4.446,-70.711 8.488,-33.119 32.306,-68.2 46.305,-68.2 1.551,0 1.597,-0.037 1.375,-1.144 -2.232,-11.163 0.924,-13.31 11.395,-7.753 0.146,0.077 0.393,-0.274 0.548,-0.781 1.709,-5.597 6.089,-9.272 18.041,-15.137 19.112,-9.379 44.144,-14.005 66.87,-12.36 M 195,72.25 c -27.049,1.035 -60.542,13.031 -65.114,23.323 -2.054,4.623 -1.041,7.631 5.852,17.368 4.545,6.42 4.955,7.454 4.475,11.296 -0.36,2.878 -0.989,3.468 -3.359,3.148 -4.592,-0.619 -5.293,-1.137 -11.017,-8.14 -7.296,-8.926 -9.867,-10.477 -15.4,-9.29 -10.89,2.335 -31.022,32.024 -38.682,57.045 -8.486,27.717 -8.502,64.412 -0.033,73.349 3.972,4.191 7.074,4.197 20.094,0.035 6.723,-2.149 10.313,-1.883 13.303,0.985 1.588,1.523 -2.57,7.479 -6.131,8.783 -16.395,6.005 -18.685,7.82 -18.728,14.848 -0.082,13.608 28.615,46.82 51.14,59.186 1.1,0.604 2.18,1.24 2.4,1.414 2.326,1.841 17.687,8.674 24.4,10.853 19.2,6.235 28.647,6.7 33.686,1.661 2.235,-2.235 2.786,-4.645 3.292,-14.416 0.482,-9.294 0.884,-10.669 3.824,-13.078 2.128,-1.744 2.075,-1.744 4.14,0.023 3.183,2.725 3.961,5.992 4.035,16.966 0.077,11.395 5.902,15.581 18.674,13.417 35.573,-6.027 69.241,-28.682 89.206,-60.026 8.426,-13.228 10.343,-18.761 8.373,-24.173 -1.492,-4.097 -3.834,-5.617 -14.217,-9.225 -9.585,-3.33 -13.907,-8.141 -9.748,-10.849 3.52,-2.292 5.877,-2.443 11.735,-0.752 19.342,5.583 23.27,2.688 25.203,-18.57 3.338,-36.725 -12.534,-79.506 -38.914,-104.884 -10.658,-10.254 -15.756,-9.611 -25.438,3.205 -5.768,7.635 -7.482,8.884 -11.759,8.57 -1.59,-0.117 -1.684,-0.199 -2.202,-1.922 -1.145,-3.808 -0.539,-5.827 3.762,-12.522 6.614,-10.295 7.255,-12.61 4.839,-17.478 C 261.267,81.473 224.445,71.124 195,72.25 m 52.861,14.943 c 11.58,1.045 15.853,11.414 9.35,22.692 -6.366,11.043 -4.91,17.701 3.767,17.212 5.624,-0.318 7.444,-1.303 14.38,-7.784 6.364,-5.947 9.795,-6.616 16.442,-3.208 5.874,3.012 8.333,8.682 10.972,25.295 4.49,28.26 7.899,38.636 17.793,54.166 9.338,14.657 10.973,20.521 7.647,27.435 -3.925,8.161 -7.446,9.625 -21.412,8.9 -9.753,-0.505 -10.694,-0.303 -12.004,2.584 -2.375,5.233 -0.281,8.494 8.994,14.003 9.678,5.748 11.746,9.411 8.866,15.701 -3.357,7.334 -9.234,12.637 -27.332,24.664 -16.417,10.91 -23.913,16.831 -35.923,28.378 -4.648,4.468 -7.227,6.842 -9.201,8.471 -7.444,6.14 -17.80442,7.95817 -24.87642,4.58317 -2.89,-1.379 -3.88208,-2.85612 -6.63008,-13.24312 -2.526,-9.548 -5.4415,-12.46605 -9.7075,-11.66605 -3.145,0.59 -4.761,3.277 -6.152,10.224 -0.462,2.31 -1.131,5.64 -1.487,7.4 -1.461,7.235 -3.52,8.766 -11.747,8.736 -9.44,-0.034 -15.331,-3.762 -31.2,-19.741 -11.156,-11.233 -15.105,-14.273 -26.2,-20.177 -1.98,-1.054 -4.14,-2.228 -4.8,-2.61 -0.66,-0.382 -3.72,-2.001 -6.8,-3.598 -18.634,-9.658 -23.8,-14.201 -23.8,-20.929 0,-6.158 1.942,-8.302 10.572,-11.677 8.779,-3.433 10.385,-4.973 10.412,-9.988 0.039,-7.003 -3.874,-8.399 -16.968,-6.053 -9.925,1.779 -11.368458,1.4716 -16.813458,-6.6824 C 72.607574,227.46223 72.4,225.23992 72.4,222.181 c 0,-9.149 1.012,-12.4 8.31,-26.697 9.735,-19.071 11.347,-24.351 12.904,-42.284 1.542,-17.765 4.285,-27.124 9.68,-33.026 2.558,-2.799 3.734,-3.168 10.106,-3.171 7.358,-0.004 8.114,0.399 12.01,6.4 3.256,5.014 4.291,5.864 8.096,6.645 10.238,2.102 12.847,-7.006 5.379,-18.783 -5.428,-8.559 -4.089,-16.113 3.662,-20.655 2.961,-1.735 14.811,-1.825 29.053,-0.22 11.731,1.322 15.351,1.587 21.8,1.596 9.957,0.014 19.99,-0.923 35.6,-3.324 12.887,-1.982 13.038,-1.994 18.861,-1.469 m 29.094,10.879 c -1.032,1.61 -4.279,6.653 -7.216,11.206 -6.895,10.692 -6.741,11.455 0.466,2.301 3.465,-4.401 5.576,-6.532 7.735,-7.807 1.538,-0.909 2.153,-2.789 1.98,-6.056 -0.167,-3.132 -0.778,-3.058 -2.965,0.356 m -158.892,1.089 c -0.394,0.244 13.557,18.213 16.178,20.839 1.852,1.855 0.035,-1.66 -3.6,-6.964 -2.287,-3.338 -4.128,-6.912 -4.901,-9.513 -0.702,-2.364 -6.021,-5.386 -7.677,-4.362 m 187.32,142.411 c 0.126,0.204 2.882,1.409 6.123,2.678 6.466,2.53 8.739,3.647 10.971,5.394 1.659,1.299 2.744,1.407 5.846,0.582 5.152,-1.372 4.541,-1.807 -6.723,-4.778 -2.09,-0.551 -6.535,-1.733 -9.878,-2.625 -6.691,-1.786 -6.667,-1.782 -6.339,-1.251 M 91.4,244.635 c -5.998,1.62 -9.447,2.226 -12.698,2.231 l -3.098,0.004 -2.202,2.433 c -2.354,2.601 -2.904,4.158 -1.302,3.685 0.778,-0.23 12.661,-4.509 21.3,-7.671 5.228,-1.913 4.047,-2.316 -2,-0.682 m 108.069,74.8 c -0.124,0.421 -0.421,3.195 -0.659,6.165 -0.522,6.515 -1.021,9.491 -2.014,12.011 l -0.75,1.901 1.211,2.344 c 3.31,6.414 3.503,5.872 3.254,-9.156 -0.199,-12.018 -0.453,-15.256 -1.042,-13.265"
       inkscape:connector-curvature="0"
       style="fill:#000000;fill-rule:evenodd;stroke:none;fill-opacity:1"
       sodipodi:nodetypes="ccccccsssccsccccccccccccccccccccccccccccccscccscsccccsssccccscccccccsscccccccccccccccsccccccsccccccsscccccccccccsccsccccccccccsccccssccccccccscccccccccsscccscssscccccccccccccccccccccsccccscccccccscccccccccccscccccscccsccccccscscccccscccccccscccccsccccccccccccccccccscccccccccc" />
  </g>
</svg>
