<svg id="svg" xmlns="http://www.w3.org/2000/svg" viewBox="0 0 1024.19 1023.89"><defs><style>.cls-1{fill:#faf9f9;}.cls-1,.cls-2,.cls-3,.cls-4{fill-rule:evenodd;}.cls-3{stroke:#fff;stroke-linecap:round;stroke-linejoin:round;stroke-width:25px;}.cls-4{fill:#f00000;}.cls-5{font-size:69px;}.cls-5,.cls-6{fill:#ffd400;font-family:Cambria-Bold, Cambria;font-weight:700;}.cls-6{font-size:85px;}</style></defs><title>LaTeReslogo_with_border</title><g id="g4579"><path id="path0" class="cls-1" d="M485.54,174.11c-71,6.64-140.64,11.5-151.91,62-1.32,5,.67,4.16-7.18.3-8.54-4.21-19.64-4.68-20.93-1.24-1.64,4.4-4.89,13.1-3.86,18.71,1.77,9.71,2.87,6.28-2.33,6.6-12.34.75-27.13,8.69-45.66,30.37-58.77,68.74-85.25,180.77-68.32,266.36,4.25,21.49,7.55,29.68,18.9,38.65.75.59.41,1.57-2.87,5-16.69,15.44-9.85,24.69,10.53,27.91,4,.63,5.16.44,5.07.94a52.2,52.2,0,0,1-.76,6.28c-4.58,22.51,32.72,83.24,78.26,122.59,34.59,29.88,81.19,55.78,120.42,66.5,6.79,1.86,14.48,1.9,16.31,2.42,26.31,7.49,55.48,9.39,64.08,1.31l1.27-1.78,1.33,5.49c3.17,6.66,11.35,14.3,14,14.3s15.78-8.18,18.82-14.47c3.37-7,.94-3.73,5.79-.44,9.35,6.35,25.9,6.25,52.49.77,82.84-17.09,167.18-79,208.16-149.61,19.1-32.91,24.13-51.57,18.6-65-.53-1.29-2,1.19,3.36.28,21.38-3.59,26.89-15.62,12.05-30L825.78,584l3.55-3c18.89-18.53,23.34-98,7.6-156.22-.73-2.68-2.08-9.09-3.15-13s-2.6-10.11-4-13.77-3.5-8.05-3.9-9.36c-17.53-56.11-80.26-137.19-109.31-139.32-7.34-.54-5,4.19-3.85-2.65,1-6.22,1.25-15.61-.48-19.41-1.6-3.51-17.85-6.09-26.58-1.45-7.72,4.09-3.46,4-4.8-.5-9.2-30.72-119.11-59.21-193.45-52.25m65.34,15.4c46.14,6.35,84.82,20.5,103.5,35.09,15.33,12,16.22,23.52-1.45,51.16-16.94,26.51-10.73,44.43,9.77,32.57,2.77-1.6,13-8,19.67-16.89,18.16-24.15,17.22-24.45,29.85-23.88,29.59,1.36,78.64,71.69,100.9,140.21,20,61.62,24.77,144.06,6.3,163.32-9.33,9.73-14.06,9.79-38.47,2.88-19.49-5.51-28.4-5.36-35-1.49S740.68,578.63,743,584c3.88,9.07,8.29,10.47,29.63,18.12,24.3,8.73,26.25,10.94,29.7,21.91,8.93,28.39-49.77,104.9-109.78,145.4-52,35.08-122.27,59.58-145.29,48.83-13.38-6.25-16.86-7.57-18.44-38.35-1.08-21.17-2.61-24.11-9-30.56-4.89-4.9-8.44-4.91-13.2-.61-6.4,5.78-7,9.62-8.31,32.47-1.3,22.66-4.07,26.52-8.92,31.65-11.09,11.71-24.19,11-62.87-.11-75.85-21.84-140-69.32-181.77-135.34-23.75-37.52-22.41-50.58,11.58-63.53,6.44-2.46,14.29-6.23,17-7.29a34.43,34.43,0,0,0,9.63-6.81c14.86-16.45-3.78-26.54-30.84-17.54s-31.22,9.22-41.54,1.12c-19.06-15-21.25-97.87-5.44-156.26.75-2.75,2.1-7.1,2.86-9.93,18-66.41,68.43-141,96.63-141,11.11,0,12.75,1.5,29.74,22.48,11.43,14.11,18.19,18.16,27.52,18.38l8.41-2.08.65-6.65c2.16-8.75.68-14.34-10.35-29.7-26.75-37.28-19.28-43.05,32.57-66.15,6.69-3,24.47-11.51,30.32-13,1.57-.4,9,1.44,14,.12,15.75-4.19,35.05-11.37,54.12-12.93,9.64-.79,49.55-.39,59.41,1m147.52,58.48c0,8.21-.71,8.47-2.81,9.91-5.23,3.59-12.9,12.82-19.56,21.24-10.45,13.23-8.81,13.82-7,9,1.51-3.95,28.61-44.38,29.51-44.07m-373.09,11c6.38,2.86,4.92,1.87,6.47,6.57,2.38,7.3,7.81,12.78,15.65,24.69,6.23,9.48,7.83,9.77,6.25,9.77-1.24,0-34.89-43.72-34.34-44.6m78.84,88.1c-3.3,1.68-8.28,5.47-9.23,8.7-.46,1.59,2.43,3.8,12,10.12l11.45,7.55,1.82-2.32c12.33-16.19-1.63-31.43-16.07-24.06m209.51.73c-8.86,2.46-12,13.47-6.94,22,2.22,3.8,24.72,26.06,26.33,26.06s.47-2.44-3.83-7.47c-13.47-15.75-13.5-15.88-5.86-24.53,7-7.89,8.8-10.32,5.14-15-3.32-4.25-12-3.59-14.77-1.46m-240.49,6.75c-3.79,3-3.24,5.8,2,10.3,5.41,4.64,6.91,4.78,10.12,1s3.15-4.85-1.94-9.34-6.64-4.7-10.19-1.91m262.06.14c-4.19,3.42-14,14.46-14.89,16.12-1.36,2.52,2.58,7.49,5.63,6.72,5-1.25,19.38-15.74,19.38-19.65,0-5.82-4.74-7.13-9.17-3.52M640,355.91c-1.58,1.42-6,5.31-9.71,8.65-7.22,6.41-9.33,10.11-7.46,12.36,3.63,4.37,27.23-12.28,27.23-19.06,0-5.77-5.23-6.29-10.06-1.95m-258.07,2.34c-10.23,12.76-26.24,35.32-27.17,40-.54,2.68,6.43,9.52,21.57,20.88,6.27,4.7,7.1,4.11,11.93-3,2-3,9.22-13.43,16-23.22,9.34-13.54,12.13-18.27,11.66-19.74-1-3.22-10-12.6-14.59-14.68-12.93-5.89-15.6-7.1-19.38-.25m-26.23.13c-3,4.65,5.55,13.5,11.88,12.77,4.13-.49,7.52-6,5.08-8.72-5.52-6.16-13.85-8.46-16.45-4.49m291.42,8.36c-17.53,12.82-22,17.41-17,20.1s30.84-12.48,30.12-18.33c-1-7.8-6.77-6.44-13.15-1.77M348,368.46c-3.81,3.81-2.21,7,6.91,13.76l3.59,2.66,2.33-2.19c4.2-3.94,4-5.41-1.55-11s-8.16-6.34-11.28-3.22m317.72,0c-3.63,2.54-3.38,6.91-3.38,14.93v7.46l-4.5,2.18c-2.47,1.2-6.34,2.64-8.25,4.15-4.51,3.58-5.4,4.28-12.84-.22-5.93-3.58-10.46-7.23-25.68-20.69-10.47-9.26-13.59-8-22.11,9.11-7.08,14.2-4.39,21.29,13.43,35.49,15,11.94,22.26,13.38,35.67,7.09,15.18-7.12,28.49-19.88,33.49-32.09,2.29-5.6,2.5-26,.28-27.45-1.89-1.2-2.92-2.3-5.38-.58m-16.49,14.46c-11.31,7.87-14.19,10.89-10.32,13.59,5.21,4.07,16.39-3,18.3-8,3.17-8.26-.41-13.66-8-5.57m-311.75-2.76c-5.13,3-3.78,9.83,3.47,15,6.53,4.65,13.48,2.17,13.48-4.41,0-4-13-13-16.28-11.13m63.59,23.13c-17.12,25.69-16.35,22.6-9.71,39l4,10,13.82,0c16.52,0,21.05,0,28.32-7.92,16.89-18.48,16.65-41.69,2.1-52.37-4.2-3.08-20.58-10.91-22.82-10.91-.5,0-7.59,10-15.76,22.28M680.89,383.5c-.52.65-2.91,7-6.09,13.63-7.45,15.51-24.73,31.48-39.51,36.51-14.53,4.95-5.75,24.09,11,24.09,5.67,0,6.85-1.59,8.31-11.29,1.59-10.47,6.52-15.74,28.59-30.52C699.54,405,704.35,397.55,700,389.06c-3.53-6.85-16-9.32-19-5.48m-357.44,15c-8-.07-10.41,11.28-6.16,16.54,1.7,2.11,3.64,1.37,16,1.83l13.14.48,10.92,7.6,10.92,7.59.59,7.9c.9,12.14,4,15.66,12,13.51,5.46-1.47,6.4-3.06,6.4-10.89,0-10.38-6-17.23-32.81-37.28L345.5,399l-9.46-.46a101.5,101.5,0,0,0-12.51,0m253.56,8.15c-4.59,5-35.62,62.68-42,78.11-3.23,7.79-9.16,24.36-10.54,29.44-.43,1.56-1.89,6.91-3.24,11.87-8.77,32.14-11.55,62.78-6.34,69.89,8.21,11.24,33.9,30.13,51.42,37.84,3.39,1.49,8.85,3.93,12.13,5.42s6.13,2.71,6.35,2.71,3.08,1.24,6.38,2.76c30,13.81,42,17.93,47.51,16.32,17.34-5,42.54-34.34,42.54-49.47,0-36-26.57-57.09-75.06-59.48-15.28-.75-14.66-1-29.8,12.85-10.4,9.52-17,13.39-22.77,13.39-4.89,0-4.09-.73,6.69-6.12,9-4.48,15.6-10.33,13.78-12.15-2.09-2.09-14.81-.41-19,2.51-4.49,3.11-6,2.65-3.72-1.11,3-4.89,6.79-6.13,16.92-5.49,10.56.67,17.53-1.12,24.48-6.29,7.91-5.88,9.63-12.81,15.41-62.09C609.91,473,612,462.89,615.66,452c5.74-17.11,5.81-15.54-.93-19.69a125.39,125.39,0,0,1-25.08-20c-8.15-8.3-9.52-8.91-12.56-5.6m-240.87,19.8c-19.17,19.67-56.17,65.09-67.92,83.38L264.38,516v21.69c0,11.93.36,21.7.8,21.7s8.66-2.39,18.28-5.31,20.48-6.19,24.13-7.28c8.19-2.42,8-2.25,12.36-12.11,2-4.44,4.32-9.78,5.25-11.87s5.76-13,10.73-24.35,9.92-22.5,11-24.87c6.22-13.63,17.8-39.13,17.8-39.85,0-1.17-5.64-5.57-7.61-5.58-1,0-5.69,5.82-10.85,13.22-4.66,6.66-15,21.51-23,33-15.24,21.9-23.77,33.71-24.33,33.71s31.65-49.5,48.44-74.53c4.84-7.21,5.72-6.81.42-11l-4.73-3.06-6.84,7m336.7,3.89-10.62,8.78v6c0,5,.67,7.46,4.14,15.22,4.95,11.05,7.5,18.34,9.57,27.31.85,3.65,1.75,7.5,2,8.54,1.38,5.64,3.26,33.6,3.26,48.71v17.37l19.23,12.57c10.58,6.92,20.39,13.31,21.81,14.21l2.57,1.63.88-3.56c.49-2,1.39-6.34,2-9.73s1.56-8.1,2.08-10.45c4.49-20-3.91-59.65-19.94-94.35-1.49-3.21-3.25-7.33-3.91-9.16-2.08-5.72-20.43-43.44-21.49-43.79-.56-.18-5.75,5.91-11.6,10.74m-221.45-1.47c-.78.22-2.47,2.8-3.74,5.73-6.47,14.88-15.93,20.24-35.71,20.24H399.24l0,4c0,6,2.85,41,4,48.59,2,13.18,11.17,18.6,31.49,18.6,12.8,0,14.14-.41,22.26-6.79a70.15,70.15,0,0,1,11.31-7.19c6.49-3,6.4-2.7,5.09-16.35-1.19-12.33-3.55-21.85-9.06-36.62-4.48-12-8.08-23.82-8.08-26.51,0-2-1.67-4.49-2.8-4.25-.29.06-1.17.29-1.95.51M609.34,442.5c.48,1.52-.47,2.75-1.62,2-1.73-1.07-1.69-4.09.13-3.73a1.93,1.93,0,0,1,1.37,1.49m-4.29,13c-.34,1.36-1,2.22-1.54,1.91-1.06-.65-1.16-4.29-.19-5.26,1.24-1.24,2.35.88,1.73,3.35m-3.41,10c0,1.9-.48,2.85-1.43,2.85-1.43,0-2-3.82-.79-5.07s2.22-.5,2.22,2.22m-.17,15.58c-.17,1.39-.74,2.61-1.26,2.73-1.14.25-1.81-3.59-1-5.72.89-2.32,2.63,0,2.25,3M597.72,492c0,3.63-2.11,3.32-2.55-.38-.21-1.8,0-2.55,1.06-2.55s1.49.9,1.49,2.93M392.37,509.07c-2.07,2.2-.31,4-.75,13l-.49,10-7.36,6.76c-9,8.31-9.06,8.64-.2,10,17.19,2.56,27.36,13.72,33.12,36.37,2.33,9.18,3,12.78,6.31,33.55,2.44,15.43,2.48,15.55,5.2,16.23,3.67.92,5.61-.28,10.77-6.63l4.9-6V611.85c0-20.44-6.16-35.46-22.67-55.21-7.42-8.88-7.66-8.69,11.2-8.69,37.83,0,70-16.92,62.45-32.82-4.13-8.65-17.55-6-34.83,7-20.56,15.41-53.3,9.49-60.3-10.89-1.55-4.5-4-6.19-6.87-3.11m205.08.48c.75,1.95-.32,5-1.56,4.6-.59-.19-.94-.84-1.12-1.74-.67-3.44,1.53-5.88,2.66-2.92m-4,19.52c0,.5-.64.9-1.42.9-1.47,0-1.89-1.12-.82-2.19.76-.76,2.24.09,2.24,1.29m0,7.15c0,1.68-2,1.38-2.63-.38-.21-.62.3-1.13,1.13-1.13a1.51,1.51,0,0,1,1.5,1.51m-105.19,2.18c-10.29,8.81-27.64,14-49.71,15-16.07.7-15.9.56-10,7.77,12.25,14.94,18.62,31.49,18.66,48.47,0,11.07.09,11.12,8.46,6.26,3.88-2.25,11.14-5.94,16.14-8.19,19.53-8.78,28.1-13.53,27.93-15.46-1.16-13.3-2.45-25.78-3.11-30-.45-2.88-1.32-9.07-1.93-13.77-1.94-14.74-1.61-14.24-6.45-10.09m100.54,2.29c-1.22,1.22-2.46.28-1.55-1.18a1.18,1.18,0,0,1,1.6-.43c.65.4.63.93-.05,1.61m-7,6.49c0,1.24-2.87,1.76-4.74,1-2.68-1-1.83-1.94,1.64-1.94,1.83,0,3.06.33,3.06.81M376.31,553c-2.44,1.44-.29,2.52,4.07,8.28,8.24,10.88,22.06,43.57,30.79,72.87.75,2.49,4.9,3.47,7.5,1.77s2.91-3.49,1.45-12.35c-.52-3.2-1.62-10.3-2.42-15.78-3.47-23.61-7.08-37.29-15.89-46-7.69-7.63-21.07-12-25.05-9.66m-19,3.94c-7.8,3.93-7.63,5.24,3.7,28.82,3.67,7.65,8.51,17.75,10.74,22.45,20.75,43.66,20.27,42.87,25.32,41.76,15.57-2.8,13.6-6.4,5.55-29.77-18.12-52.59-28.73-75.46-45.3-63.26M331,565.12c-13.45,6.1-8,9.74,19.52,65.18,16.11,32.42,19.08,36.13,29.22,30.88,9.29-4.8,8.81-8.67,4.18-18.87-22.46-49.42-35.58-85.27-43.05-80.38a70.44,70.44,0,0,0-8.52,2.52M777.74,590.1c8.88,2.41,19.92,5.6,26.45,7.37,18.18,4.93,15.62,5,16.76,5.82-.7,1.09-13.21,4.37-19.31,0-5.28-3.79-12.3-7.49-22.56-11.27-12.14-5.81-16.42-5.2-2.24-2.14m-255.09-2.51c0,.78-.43,1.43-1,1.43s-.95-.65-.95-1.43.42-1.42.95-1.42,1,.64,1,1.42m16.14,3.8a1.43,1.43,0,1,1-1.43-1.42,1.43,1.43,0,0,1,1.43,1.42m-274.36,1c-3.23,1.26-18.68,6.38-27,9.34-3.39,1.21-9.8,3.34-14.24,5-13,4.36-16,4.09-10.68-1.06,4.41-6,4.14-4.79,14.23-5.27,8.31-.39,12.62-1.77,27.9-6.07,4.37-1.23,9.87-3.29,9.87-2.4M525.81,595c.12.52-1.18,1.08-2.88,1.24-2.92.29-3.91-.57-2.41-2.08,1-1,5-.31,5.29.84m11.6,9.5c0,1.47-.53,2.86-1.18,3.08-.81.27-1.19-.72-1.19-3.08s.38-3.36,1.19-3.09c.65.22,1.18,1.61,1.18,3.09m18.52-1.9c0,.78-.42,1.42-.95,1.42s-1-.64-1-1.42.43-1.43,1-1.43.95.64.95,1.43M570.61,607c.52.48-1.15.83-4,.83-4.59,0-5.86-.66-4.3-2.23.8-.8,7.11.26,8.34,1.4m-11,9.5c-.17,1.24-.74,2.17-1.26,2.06-1.22-.24-1.76-2.8-1-4.77.86-2.24,2.66-.08,2.26,2.71m22.95,0c0,1.88-.41,2.74-1.18,2.48-1.4-.47-2.05-3.08-1.28-5.1.87-2.25,2.46-.55,2.46,2.62m-19,5.09c0,.78-.4,1.42-.89,1.42-1.2,0-2.06-1.48-1.3-2.24,1.07-1.07,2.19-.65,2.19.82M574.84,625c-1.2,2.24-2.76,1.4-2.76-1.48s1.14-3.85,2.55-1.92a2.84,2.84,0,0,1,.21,3.4m19.08-3.48a1.43,1.43,0,1,1-1.42-1.43,1.43,1.43,0,0,1,1.42,1.43m-8.07,8.07c0,1.65-3.19,2.31-5.11,1.06a1.49,1.49,0,0,1-.62-2c1-1.58,5.73-.84,5.73.9m23-.71c-.22.65-1.61,1.19-3.09,1.19s-2.87-.54-3.09-1.19c-.26-.81.73-1.19,3.09-1.19s3.36.38,3.09,1.19m-11.34,5.7c-.16,1.69-.72,3.08-1.25,3.08s-1.08-1.39-1.24-3.08c-.23-2.34.07-3.09,1.24-3.09s1.48.75,1.25,3.09m7.56,1.84c-.59,1.76-2.63,2-2.63.37a1.5,1.5,0,0,1,1.5-1.5c.83,0,1.33.51,1.13,1.13m15.19,0c-.58,1.76-2.63,2-2.63.37a1.51,1.51,0,0,1,1.5-1.5c.83,0,1.34.51,1.13,1.13m14.94,3.62c0,.91-1.11,1.53-3.09,1.72-3,.29-4.19-1.25-2.41-3,1.21-1.2,5.5-.18,5.5,1.31m-26.12.47a1.42,1.42,0,1,1-1.42-1.42,1.43,1.43,0,0,1,1.42,1.42M620,643.87c0,1.66-4.06,2.49-5.44,1.11s.17-3.15,2.91-2.83c1.48.17,2.53.88,2.53,1.72m26.84,4c-.58,1.76-2.63,2.06-2.63.38a1.52,1.52,0,0,1,1.51-1.51c.82,0,1.33.51,1.12,1.13m-15,4.16a1.4,1.4,0,0,1-1.43,1.36c-1.43,0-2-2-.81-3.14.88-.88,2.24.19,2.24,1.78M511.3,787.58c.05,21.41-.21,41.84-3.28,38.26-4.53-7-4.42-7.63-2.58-11.2,2-3.82,3.17-17.14,4.42-32,.59-7,.49-9.35.76-10,1.37-3.57,0-3.35.53,13.67"/><path id="path2-9" class="cls-2" d="M1010.62,452.6c-1.14-.42-7.36-1.65-55.09-10.94l-20.65-4-.82-3.43c-.45-1.89-1.33-6.22-2-9.61a448.78,448.78,0,0,0-15.15-55.52,43.52,43.52,0,0,1-2-6.84c0-.64,13.57-13,30.16-27.46s30.29-26.67,30.47-27.13-4.55-9.28-10.51-19.58-18.44-31.88-27.72-47.94-17.44-29.21-18.13-29.21c-1.09,0-12,3.68-65.44,22l-11.32,3.89-5.24-6.08c-6.57-7.63-35.52-36.63-44.05-44.13l-6.4-5.63,1.52-4.27c8-22.52,23.49-68.53,23.84-70.86.46-3.14.29-3.27-18.26-13.66-6.31-3.54-64.1-37-71.13-41.13l-6.56-3.9-2.94,3.37L688.05,79.49c-12.22,14.05-23.14,26.51-24.25,27.7l-2,2.16-14.21-4.7a465.25,465.25,0,0,0-53.12-13.89c-8.27-1.64-8.66-1.94-9.57-7.55-.65-4-8.62-45-9.47-48.69l-.49-2.15L514,32.62l-60.93.24-4.66,24.22c-2.57,13.32-5.16,25.92-5.76,28l-1.11,3.79L433,90.57a498.89,498.89,0,0,0-51.53,13.51l-15.43,5-26.23-30c-14.43-16.53-26.73-30.34-27.34-30.69S301.74,53.28,290,60.09s-32.86,19-47,27.11-26.18,15.23-26.84,15.85c-1,.91-.35,3.59,3,13.43,2.32,6.76,8.1,23.57,12.84,37.35,10.33,30.08,10.21,26.77,1.25,34.47-10.07,8.65-29.23,27.82-39,39-4.44,5.09-8.37,9.26-8.71,9.26-.55,0-30.46-10.14-65.81-22.3-12.6-4.33-11.22-5-19.28,9.12-3.69,6.46-10.91,19-16.05,27.9-21.07,36.46-23.77,41.14-27.71,48.09-2.26,4-4.11,7.64-4.11,8.09S66.31,320.22,83,334.78s30.39,27.11,30.39,27.89-1.72,6.52-3.83,12.75-4.49,13.76-5.29,16.72c-2.74,10-6.86,27.2-8,33.41-2.53,13.44.11,11.63-23.68,16.24-2.87.55-6.93,1.38-9,1.83s-9.79,1.95-17.1,3.33c-19.7,3.71-32.2,6.28-33,6.77-1.07.65-.89,111.21.19,111.87.49.31,10.86,2.5,23,4.87,49.48,9.64,55.38,10.92,56.41,12.28.58.76,1.8,5.34,2.72,10.18a459.51,459.51,0,0,0,13.29,50.39c2.37,7.08,4.31,13.3,4.31,13.82s-13.56,12.8-30.15,27.26S53,711.07,52.79,711.54c-.3.77,8,15.55,32.2,57.31,4.84,8.36,11.83,20.49,15.52,26.95s7.25,12,7.91,12.21c1.13.44,17.76-5,59-19.29l18.4-6.38,4.86,5.6a564.21,564.21,0,0,0,45.47,45.5l5.47,4.74-1.54,4.27C237.76,848.92,216.87,910,216,913s0,3.78,29.47,20.38c4.25,2.4,28,16.08,49.7,28.69l16.94,9.82,2.16-2.27c1.19-1.25,12.75-14.45,25.68-29.34s24.24-27.83,25.12-28.76c1.53-1.62,2.15-1.51,14.36,2.54a417.73,417.73,0,0,0,54.52,14.36c9.23,1.85,7.61-.78,11.45,18.63,3.45,17.4,4.38,22,6.18,30l1.11,5H514.2c57.81,0,61.6-.1,62.09-1.66s3.09-14.73,7.71-38.95c2.17-11.37,2-11.23,13.74-13.6,16-3.23,17.12-3.49,26.6-6,7.44-2,33-10,36.61-11.6.86-.36,9.76,9.54,49.32,54.86,3.12,3.58,6.2,6.31,6.85,6.06S737,959.9,759.86,946.65s44-25.48,47-27.17a37.66,37.66,0,0,0,5.82-3.72c.46-.79.09-2-14.43-44.52l-11.39-33.41,8.23-6.8c13.33-11,35.29-31.58,41.94-39.26,7.15-8.25,6.76-8.15,17.18-4.31,4.39,1.61,9.06,3.28,10.36,3.72s8.57,3,16.15,5.7c30.48,10.89,40.91,14.47,41.18,14.12s11.32-19,36-60.66c5.73-9.67,12.48-21,15-25.25s4.83-8.34,5.14-9.14c.56-1.45-.77-2.68-47.79-44.28-8.46-7.49-15.39-14.28-15.39-15.08s1.51-6,3.36-11.48a499.7,499.7,0,0,0,13.51-50.52l2.63-12.82,29.9-5.92L999,569c2.61-.51,6.46-1.28,8.55-1.71l3.79-.78.25-56.73c.19-44.89,0-56.83-1-57.17M849.35,531.73A323.13,323.13,0,0,1,840.72,587c-11.24,46.12-30.34,83.62-45,88.29-5.57,1.77-5.63,2.05-2.09,8.68,9.94,18.57,5.25,24.86-16.67,22.33l-6.41-.74v4.81c0,19.19-35.37,55.67-80.18,82.68-41.93,25.29-86,40.28-135.36,46.1-14,1.64-55.54,1.91-65.85.43-16.91-2.44-20.59-3.16-27.72-5.46-9.26-3-13.39-5.46-17.89-10.73l-3.46-4-5.5,5.24c-8.84,8.44-15.92,11.43-19,8-3.8-4.16-7.75-14.73-7.78-20.8,0-1.44-.19-2.62-.41-2.62s-3,.67-6.14,1.48c-11.1,2.84-24.14-1.25-52.34-16.44-39.84-21.44-83-63.69-111.42-109.1-35.69-57-55.57-134.24-39.87-155,1.31-1.73,2.24-3.28,2.05-3.44s-2.8-1.49-5.81-3c-18.67-9-18.72-19-.14-27.93l6.23-3-1.62-2.47c-5.73-8.75-5.64-8.37-5.64-23.52C192.71,449.3,194,442,202.8,409c18.9-70.83,84-151.06,150.88-185.92,17.88-9.32,24.55-10.83,39.87-9.05,2.23.25,2.4-.06,3.1-5.9,1.19-9.78,5.7-19,9.3-19,3.37,0,12.64,5.4,17,9.89,5.14,5.29,4.71,5.29,8.32.17C447,176.9,532.56,171.52,599.17,188.59c78.63,20.15,161.92,76.7,161.92,109.93,0,3.68.09,3.79,2.71,3.27,26.51-5.3,31.6,2.19,18.41,27-.18.35.65.93,1.85,1.3,13.29,4.06,22,14.46,35.94,42.83,22.27,45.38,33.25,104.81,29.35,158.76m-9.08-36.38c-2.46-64.22-30.94-143.74-55.38-154.59-11-4.88-18.11-2.47-41.23,13.89-15.24,10.79-17.7,11.77-26.82,10.63-6.83-.86-8.23-2.35-7.47-8,1.47-10.9,2.7-12.57,19.32-26.15,21.19-17.33,24.88-23.43,22.06-36.57-5.55-25.85-76-73.65-135.44-91.83-65.8-20.15-152.92-20.19-174.14-.08-9.95,9.43-10,16.79-.08,47.7,5.1,16,4.47,24.49-2.34,31.59-3.62,3.77-17.76-6.1-20.85-14.56-14.26-38.92-18.57-44.36-35.26-44.46-32.3-.2-111.15,67.93-140.51,121.41-1.44,2.61-2.95,5.18-3.36,5.7C234.4,355.57,218.18,392,213,408c-14.8,45.58-15.9,68-3.94,80,5.31,5.3,11,6.61,34.23,7.81,22.06,1.15,11.83-8.19,17.55-1.21,4.14,5.05-1.94,19-6.14,23.86-6.47,7.56,5.35,5.66-20.7,5.84-27.05.18-37,14-31.85,44.34C216.46,653.05,270.24,733,344.66,780.39c31.4,20,44.54,24.55,57.39,19.87,9.73-3.54,13.33-9.1,21.9-33.75,7.91-22.76,19.33-33,25.76-23.14,5.44,8.35,5.8,14,1.78,27.86-13.25,45.92-6.38,55.25,44.09,59.83,87.19,7.93,188.76-29.75,249-92.38,24.35-25.31,22.82-37.41-7.61-60.4-18.12-13.69-21.09-17.76-20.34-27.92.28-3.77.47-4,4.56-5.22,9-2.72,13.84-1.28,29.73,8.93,24.44,15.7,29.94,17.22,41.5,11.49,25.94-12.88,50.51-100.3,47.84-170.21m-35.48,125.5c-2.48,27.49-27.1,37.64-53.88,22.2-26.21-15.11-42-11.66-40.86,8.94.75,13.35,3.09,17.68,18.48,34.14,14.12,15.11,15.71,23.26,7.62,39-7.15,14-20.62,19.78-60.06,26.05C609,761.88,584.36,770,547.49,793.46c-34.8,22.17-48.72,26-65.13,18.16-19.38-9.32-22.85-17.68-21.13-50.84,1.2-23.15.72-25.39-6.14-28.5-12.42-5.64-20.16-.66-33.24,21.36-13.65,23-22.35,27.88-37.28,21-17.41-8-30-21.92-58.56-64.89-25.9-39-40-56.77-67.37-85.28-10.61-11-16.24-17.16-20.11-21.85C224,585,219.63,560.39,227.65,543.6c3.27-6.86,6.48-8.37,31.14-14.89-8-6.64-8-6.64-9.86-16.76-1.4-7.47,11.69-11.89,13.58-21.74l-17.57-3.53c-17.17-3.47-20.81-8.36-20.74-27.89.08-22.41,8.93-36.4,46.87-74.08,26.67-26.48,33.89-35.86,47.9-62.2,2.51-4.7,5.29-9.83,6.2-11.4s4.75-8.83,8.54-16.14c22.93-44.24,33.72-56.51,49.69-56.51,14.62,0,19.71,4.62,27.73,25.1,8.15,20.85,11.8,24.66,23.71,24.72,16.62.1,19.94-9.19,14.37-40.28-4.22-23.56-3.49-27,15.86-39.92,6.7-3.31,12-3.8,19.23-3.8,21.73,0,29.44,2.4,63.39,19.73C593,247.12,605.5,251,648.08,254.64c42.17,3.66,64.39,10.18,78.41,23,6.64,6.08,7.52,8.87,7.52,24,0,17.47-.94,19.26-15.19,28.51-11.9,7.73-13.92,10.19-15.78,19.22-5,24.31,16.64,30.5,44.6,12.77,20.32-12.88,38.25-9.7,49,8.7,4.12,7,4.33,35.16.52,69-3.14,27.86-3.77,36.45-3.79,51.76,0,23.64,2.19,47.46,7.89,84.52,4.71,30.6,4.74,31,3.49,44.78M779,689.92c-3.82-2.45-15.8-10.15-26.6-17.13q-38.08-24.56-5.47,1.11c10.45,8.23,15.51,13.24,18.54,18.36,2.16,3.65,6.62,5.11,14.38,4.7,7.43-.39,7.26-1.84-.85-7m-2.59-377.23c-.57-.94-43.24,32.18-49.47,38.41-4.4,4.39,3.94.08,16.53-8.55,7.93-5.43,16.41-9.8,22.59-11.64,5.61-1.66,12.79-14.29,10.35-18.22M438.27,757.42c-.49.3-3.35,6.84-6.36,14.53-6,15.36-8.66,20.75-12.81,26-3.08,3.94-3.34,6.52-1.38,13.88,3.26,12.23,4.29,10.78,11.34-16,1.31-5,4.12-15.52,6.24-23.45,4.24-15.89,4.23-15.83,3-15.05m-7.28-508c-3.84-14.24-5.28-22.43-5.29-30.15v-7.36l-5.78-5.22c-6.17-5.59-9.87-6.9-8.75-3.1.55,1.85,10.71,30.06,18.21,50.57,4.55,12.42,5.5,9.61,1.62-4.74M253.41,506c-1-.29-7.59-1-14.64-1.56-15.47-1.24-22.53-2.43-28.52-4.79l-4.51-1.78-5.57,2.88c-15.22,7.86-13.94,8.31,21.74,7.72,28.54-.47,36.22-1.07,31.5-2.47"/><path id="path2" class="cls-3" d="M456.68,13.52c-.42,1.13-1.65,7.36-10.94,55.08l-4,20.66-3.43.81c-1.88.45-6.21,1.34-9.6,2a448.31,448.31,0,0,0-55.52,15.15,43.36,43.36,0,0,1-6.84,2c-.64,0-13-13.57-27.46-30.15s-26.67-30.3-27.13-30.47-9.28,4.55-19.59,10.51L244.2,86.81c-16.06,9.28-29.2,17.44-29.2,18.13,0,1.09,3.68,12,22,65.44l3.89,11.32-6.07,5.23c-7.63,6.58-36.63,35.53-44.13,44.06l-5.63,6.4-4.28-1.52c-22.51-8-68.52-23.49-70.85-23.84-3.14-.47-3.28-.29-13.67,18.26-3.53,6.31-36.95,64.1-41.13,71.13L51.27,308l3.37,2.95,28.93,25.16c14.05,12.23,26.51,23.14,27.7,24.26l2.15,2-4.69,14.2a465.81,465.81,0,0,0-13.9,53.12c-1.63,8.28-1.93,8.66-7.54,9.58-4,.64-45,8.61-48.7,9.46l-26.09,5,.24,56.44.91,55.43,47.51,10.16c13.32,2.56,25.92,5.16,28,5.76l3.8,1.1,1.69,8.55a493.69,493.69,0,0,0,13.51,51.52l5,15.44-30,26.23c-16.53,14.43-30.34,26.73-30.7,27.34s4.93,10.71,11.74,22.43,19,32.87,27.11,47,15.23,26.19,15.85,26.85c.9.95,3.59.35,13.43-3l37.35-12.84c30.07-10.34,26.77-10.22,34.47-1.25,8.65,10.07,27.81,29.23,39,39,5.1,4.44,9.26,8.36,9.26,8.71,0,.55-10.13,30.46-22.29,65.81-4.33,12.6-5,11.22,9.12,19.28,6.46,3.69,19,10.91,27.89,16,36.46,21.07,41.15,23.77,48.1,27.71,4,2.27,7.63,4.12,8.09,4.12s12.75-13.67,27.31-30.39,27.11-30.39,27.89-30.39,6.51,1.73,12.75,3.83,13.75,4.49,16.72,5.3c10,2.73,27.2,6.86,33.41,8,13.44,2.53,11.63-.11,16.23,23.68.56,2.87,1.39,6.93,1.84,9s1.95,9.78,3.33,17.09c3.71,19.7,6.28,32.2,6.76,33,.66,1.07,111.22.88,111.88-.19.31-.5,2.5-10.86,4.87-23,9.64-49.48,10.92-55.39,12.28-56.41.76-.58,5.34-1.8,10.17-2.72A461.93,461.93,0,0,0,647.39,915c7.07-2.38,13.29-4.32,13.82-4.32s12.8,13.57,27.26,30.15,26.68,30.3,27.15,30.48c.77.29,15.55-8,57.31-32.2,8.36-4.84,20.48-11.83,27-15.52s12-7.26,12.21-7.91c.43-1.14-5-17.76-19.29-59l-6.38-18.41,5.6-4.85A561,561,0,0,0,837.51,788l4.75-5.46,4.27,1.54c6.47,2.33,67.52,23.22,70.54,24.14s3.78,0,20.38-29.47c2.4-4.25,16.07-28,28.68-49.7L976,712.08l-2.27-2.16c-1.25-1.2-14.45-12.75-29.33-25.69S916.52,660,915.59,659.12c-1.63-1.53-1.51-2.16,2.54-14.36a417.73,417.73,0,0,0,14.36-54.52c1.85-9.23-.78-7.62,18.63-11.46,17.4-3.44,22-4.38,30-6.17l30.17-6.11.25-56.73c0-57.81.61-56.68-1-57.17s-40.88-7.84-65.1-12.47c-11.37-2.17-11.23-2-13.6-13.74-3.24-16-3.49-17.11-6-26.59-2-7.44-10-33-11.6-36.61-.36-.86,9.54-9.76,54.86-49.32,3.58-3.12,6.31-6.21,6.06-6.85S964,287.14,950.72,264.27s-25.48-44-27.16-47a37.7,37.7,0,0,0-3.73-5.83c-.78-.46-1.94-.08-44.51,14.43l-33.41,11.4L835.1,229c-11-13.33-31.57-35.29-39.25-41.94-8.25-7.15-8.15-6.76-4.31-17.19,1.61-4.39,3.28-9,3.72-10.35s3-8.58,5.7-16.15c10.89-30.48,14.47-40.91,14.12-41.18s-19-11.33-60.67-36c-9.66-5.72-21-12.47-25.25-15S720.83,46.33,720,46c-1.45-.55-2.68.78-44.29,47.8-7.48,8.46-14.27,15.38-15.07,15.38s-6-1.51-11.48-3.35a503.81,503.81,0,0,0-50.52-13.52L585.85,89.7l-5.92-29.9c-3.26-16.44-6.35-32-6.86-34.64s-1.28-6.46-1.71-8.55l-.78-3.8-56.73-.24c-44.89-.2-56.83,0-57.17.95m79.13,161.27a322.14,322.14,0,0,1,55.26,8.63c46.11,11.23,83.62,30.34,88.29,45,1.77,5.56,2,5.63,8.68,2.08,18.57-9.93,24.86-5.24,22.33,16.67l-.74,6.41h4.81c19.19,0,55.67,35.38,82.68,80.19,25.29,41.93,40.28,85.95,46.09,135.36,1.65,14,1.92,55.53.44,65.85-2.44,16.91-3.16,20.58-5.46,27.72-3,9.26-5.46,13.38-10.73,17.89l-4,3.45,5.24,5.5c8.44,8.84,11.43,15.93,8,19-4.16,3.79-14.73,7.75-20.81,7.77-1.43,0-2.61.19-2.61.41s.67,3,1.48,6.15c2.84,11.09-1.26,24.13-16.44,52.34-21.44,39.83-63.7,83-109.1,111.41-57,35.7-134.24,55.57-155,39.88-1.74-1.32-3.28-2.24-3.45-2s-1.48,2.79-3,5.81c-9,18.67-19,18.71-27.93.14l-3-6.23-2.47,1.61c-8.75,5.74-8.37,5.65-23.52,5.65-17.56,0-24.91-1.29-57.91-10.09-70.83-18.91-151.06-84-185.92-150.88-9.32-17.88-10.83-24.55-9.06-39.87.26-2.23-.05-2.4-5.9-3.11-9.77-1.18-19-5.69-19-9.29,0-3.37,5.39-12.65,9.89-17,5.29-5.15,5.29-4.72.17-8.32C181,577.17,175.59,491.57,192.66,425c20.16-78.63,76.7-161.92,109.94-161.92,3.68,0,3.79-.09,3.26-2.72-5.29-26.5,2.2-31.6,27.06-18.4.34.18.93-.65,1.3-1.86,4.06-13.29,14.46-22,42.83-35.94,45.38-22.26,104.81-33.25,158.76-29.34m-36.38,9.08c-64.22,2.46-143.74,30.94-154.59,55.37-4.88,11-2.48,18.12,13.89,41.24,10.79,15.24,11.76,17.7,10.62,26.82-.85,6.83-2.34,8.23-8,7.47-10.9-1.47-12.57-2.7-26.16-19.33-17.32-21.19-23.42-24.87-36.56-22.05-25.85,5.54-73.65,76-91.84,135.43-20.14,65.81-20.18,152.93-.08,174.15,9.44,9.95,16.8,10,47.71.08,16-5.1,24.49-4.47,31.59,2.34,3.77,3.61-6.11,17.75-14.56,20.85-38.93,14.26-44.36,18.57-44.46,35.25C226.82,673.8,295,752.65,348.43,782c2.61,1.43,5.18,2.94,5.7,3.36,5.52,4.37,42,20.59,57.93,25.76,45.58,14.81,68,15.91,80,4,5.31-5.31,6.62-11,7.82-34.23,1.14-22.06,2.1-25.33,9.08-31.05,5.05-4.14,4.93-4.14,9.83.06,7.56,6.47,9.4,14.22,9.58,40.28.18,27.05,14,37,44.33,31.85,84.46-14.31,164.39-68.1,211.79-142.51,20-31.41,24.56-44.54,19.88-57.39-3.54-9.73-9.1-13.34-33.75-21.9-22.76-7.91-33-19.33-23.14-25.76,8.35-5.44,13.95-5.8,27.86-1.79,45.92,13.26,55.24,6.39,59.83-44.08,7.93-87.2-29.76-188.77-92.39-249-25.3-24.34-37.4-22.82-60.39,7.61-13.69,18.13-17.76,21.09-27.92,20.35-3.77-.28-4-.47-5.23-4.56-2.71-9.05-1.28-13.84,8.94-29.73,15.7-24.45,17.22-29.94,11.48-41.5-12.87-25.94-100.29-50.51-170.2-47.84m125.5,35.48c27.49,2.48,37.64,27.1,22.2,53.87-15.12,26.22-11.66,42,8.94,40.87,13.35-.76,17.67-3.1,34.14-18.48,15.11-14.12,23.26-15.71,39-7.62,13.94,7.15,19.78,20.61,26,60.05,10.66,67.1,18.75,91.73,42.24,128.6,22.17,34.8,26.05,48.72,18.16,65.14-9.32,19.37-17.68,22.85-50.84,21.13-23.16-1.2-25.39-.72-28.5,6.13-5.64,12.43-.67,20.17,21.35,33.25,23,13.65,27.89,22.34,21,37.28-8,17.41-21.92,30-64.89,58.55-39,25.91-56.77,40-85.28,67.38-11,10.6-17.16,16.24-21.85,20.11-17.67,14.58-42.27,18.89-59.06,10.88-6.86-3.27-9.22-6.78-15.74-31.44-6-22.67-12.92-29.6-23.05-27.7-7.47,1.4-11.3,7.78-14.6,24.27-1.1,5.49-2.69,13.4-3.54,17.57-3.46,17.18-8.35,20.82-27.88,20.74-22.42-.08-36.4-8.93-74.08-46.86-26.48-26.67-35.86-33.89-62.2-47.91-4.7-2.5-9.83-5.29-11.4-6.19s-8.83-4.75-16.14-8.55c-44.24-22.93-56.51-33.71-56.51-49.69,0-14.62,4.61-19.71,25.1-27.72,20.85-8.15,24.66-11.81,24.72-23.71.09-16.63-9.2-19.94-40.28-14.37-23.57,4.22-27,3.49-39.92-15.87-3.31-6.69-3.81-12-3.81-19.23,0-21.72,2.41-29.44,19.73-63.38,23.12-45.28,26.94-57.81,30.64-100.39,3.66-42.18,10.17-64.4,23-78.41,6.08-6.64,8.87-7.52,24-7.53,17.46,0,19.26.95,28.51,15.2,7.73,11.9,10.19,13.92,19.22,15.77,24.31,5,30.5-16.63,12.77-44.59-12.89-20.32-9.71-38.26,8.7-49,7-4.12,35.16-4.33,69-.52,27.85,3.14,36.45,3.77,51.76,3.79,23.64,0,47.46-2.19,84.52-7.89,30.6-4.71,31-4.74,44.78-3.49M694,245.18c-2.45,3.82-10.16,15.79-17.13,26.6q-24.55,38.09,1.11,5.46c8.22-10.44,13.24-15.5,18.36-18.53,3.65-2.16,5.11-6.62,4.7-14.38-.39-7.43-1.84-7.26-7,.85m-377.23,2.58c-.94.58,32.18,43.24,38.41,49.48,4.39,4.4.08-3.94-8.55-16.54-5.43-7.92-9.8-16.41-11.64-22.58-1.66-5.61-14.29-12.79-18.22-10.36M761.5,585.87c.29.48,6.84,3.35,14.53,6.36,15.35,6,20.75,8.66,26.05,12.8,3.94,3.09,6.51,3.34,13.88,1.39,12.23-3.26,10.78-4.29-16-11.35-5-1.31-15.52-4.11-23.45-6.23-15.89-4.24-15.83-4.23-15-3m-508,7.27c-14.24,3.85-22.42,5.29-30.14,5.3H216l-5.23,5.78c-5.59,6.17-6.89,9.87-3.09,8.74,1.85-.54,30.06-10.7,50.57-18.21,12.41-4.54,9.61-5.5-4.75-1.62M510,770.73c-.3,1-1,7.59-1.57,14.64-1.24,15.46-2.42,22.53-4.78,28.51l-1.78,4.52,2.88,5.56c7.85,15.23,8.31,13.94,7.72-21.74C512,773.69,511.44,766,510,770.73"/><path id="path2-9-2" data-name="path2-9" class="cls-2" d="M456.68,13.52c-.42,1.13-1.65,7.36-10.94,55.08l-4,20.66-3.43.81c-1.88.45-6.21,1.34-9.6,2a448.31,448.31,0,0,0-55.52,15.15,43.36,43.36,0,0,1-6.84,2c-.64,0-13-13.57-27.46-30.15s-26.67-30.3-27.13-30.47-9.28,4.55-19.59,10.51L244.2,86.81c-16.06,9.28-29.2,17.44-29.2,18.13,0,1.09,3.68,12,22,65.44l3.89,11.32-6.07,5.23c-7.63,6.58-36.63,35.53-44.13,44.06l-5.63,6.4-4.28-1.52c-22.51-8-68.52-23.49-70.85-23.84-3.14-.47-3.28-.29-13.67,18.26-3.53,6.31-36.95,64.1-41.13,71.13L51.27,308l3.37,2.95,28.93,25.16c14.05,12.23,26.51,23.14,27.7,24.26l2.15,2-4.69,14.2a463.74,463.74,0,0,0-13.9,53.12c-1.63,8.28-1.93,8.66-7.54,9.58-4,.64-45,8.61-48.7,9.46l-26.09,5,.24,56.44.91,55.43,47.51,10.16c13.32,2.56,25.92,5.16,28,5.76l3.8,1.1,1.69,8.55a493.69,493.69,0,0,0,13.51,51.52l5,15.44-30,26.23c-16.53,14.43-30.34,26.73-30.7,27.34s4.93,10.71,11.74,22.43,19,32.87,27.11,47,15.23,26.19,15.85,26.85c.9.95,3.59.35,13.43-3l37.35-12.84c30.07-10.34,26.77-10.22,34.47-1.25,8.65,10.07,27.81,29.23,39,39,5.1,4.44,9.26,8.36,9.26,8.71,0,.55-10.13,30.46-22.29,65.81-4.33,12.6-5,11.22,9.12,19.28,6.46,3.69,19,10.91,27.89,16,36.46,21.07,41.15,23.77,48.1,27.71,4,2.27,7.63,4.12,8.09,4.12s12.75-13.67,27.31-30.39,27.11-30.39,27.89-30.39,6.51,1.73,12.75,3.83,13.75,4.49,16.72,5.3c10,2.73,27.2,6.86,33.41,8,13.44,2.53,11.63-.11,16.23,23.68.56,2.87,1.39,6.93,1.84,9s1.95,9.78,3.33,17.09c3.71,19.7,6.28,32.2,6.76,33,.66,1.07,111.22.88,111.88-.19.31-.5,2.5-10.86,4.87-23,9.64-49.48,10.92-55.39,12.28-56.41.76-.58,5.34-1.8,10.17-2.72A461.93,461.93,0,0,0,647.39,915c7.07-2.38,13.29-4.32,13.82-4.32s12.8,13.57,27.26,30.15,26.68,30.3,27.15,30.48c.77.29,15.55-8,57.31-32.2,8.36-4.84,20.48-11.83,27-15.52s12-7.26,12.21-7.91c.43-1.14-5-17.76-19.29-59l-6.38-18.41,5.6-4.85A561,561,0,0,0,837.51,788l4.75-5.46,4.27,1.54c6.47,2.33,67.52,23.22,70.54,24.14s3.78,0,20.38-29.47c2.4-4.25,16.07-28,28.68-49.7L976,712.08l-2.27-2.16c-1.25-1.2-14.45-12.75-29.33-25.69S916.52,660,915.59,659.12c-1.63-1.53-1.51-2.16,2.54-14.36a417.73,417.73,0,0,0,14.36-54.52c1.85-9.23-.78-7.62,18.63-11.46,17.4-3.44,22-4.38,30-6.17l30.17-6.11.25-56.57c0-57.8.61-56.84-1-57.33s-40.88-7.84-65.1-12.47c-11.37-2.17-11.23-2-13.6-13.74-3.24-16-3.49-17.11-6-26.59-2-7.44-10-33-11.59-36.61-.36-.86,9.54-9.76,54.86-49.32,3.58-3.12,6.31-6.21,6.06-6.85S964,287.14,950.72,264.27s-25.48-44-27.16-47a37.7,37.7,0,0,0-3.73-5.83c-.78-.46-1.94-.08-44.51,14.43l-33.41,11.4L835.1,229c-11-13.33-31.57-35.29-39.25-41.94-8.25-7.15-8.15-6.76-4.31-17.19,1.61-4.39,3.28-9,3.72-10.35s3-8.58,5.7-16.15c10.89-30.48,14.46-40.91,14.12-41.18s-19-11.33-60.67-36c-9.66-5.72-21-12.47-25.25-15S720.83,46.33,720,46c-1.45-.55-2.68.78-44.29,47.8-7.49,8.46-14.27,15.38-15.07,15.38s-6-1.51-11.48-3.35a503.81,503.81,0,0,0-50.52-13.52L585.85,89.7l-5.92-29.9c-3.26-16.44-6.35-32-6.86-34.64s-1.28-6.46-1.71-8.55l-.78-3.8-56.73-.24c-44.89-.2-56.83,0-57.17.95m79.13,161.27a322.14,322.14,0,0,1,55.26,8.63c46.11,11.23,83.62,30.34,88.29,45,1.77,5.56,2,5.63,8.68,2.08,18.57-9.93,24.86-5.24,22.33,16.67l-.74,6.41h4.81c19.19,0,55.67,35.38,82.68,80.19,25.29,41.93,40.28,85.95,46.09,135.36,1.65,14,1.92,55.53.44,65.85-2.44,16.91-3.16,20.58-5.46,27.72-3,9.26-5.46,13.38-10.73,17.89l-4,3.45,5.24,5.5c8.44,8.84,11.43,15.93,8,19-4.16,3.79-14.73,7.75-20.81,7.77-1.43,0-2.61.19-2.61.41s.67,3,1.48,6.15c2.84,11.09-1.26,24.13-16.44,52.34-21.44,39.83-63.7,83-109.1,111.41-57,35.7-134.24,55.57-155,39.88-1.74-1.32-3.28-2.24-3.45-2s-1.48,2.79-3,5.81c-9,18.67-19,18.71-27.93.14l-3-6.23-2.47,1.61c-8.75,5.74-8.37,5.65-23.52,5.65-17.56,0-24.91-1.29-57.91-10.09-70.83-18.91-151.06-84-185.92-150.88-9.32-17.88-10.83-24.55-9.06-39.87.26-2.23-.05-2.4-5.9-3.11-9.77-1.18-19-5.69-19-9.29,0-3.37,5.39-12.65,9.89-17,5.29-5.15,5.29-4.72.17-8.32C181,577.17,175.59,491.57,192.66,425c20.16-78.63,76.7-161.92,109.94-161.92,3.68,0,3.79-.09,3.26-2.72-5.29-26.5,2.2-31.6,27.06-18.4.34.18.93-.65,1.3-1.86,4.06-13.29,14.46-22,42.83-35.94,45.38-22.26,104.81-33.25,158.76-29.34m-36.38,9.08c-64.22,2.46-143.74,30.94-154.59,55.37-4.88,11-2.48,18.12,13.89,41.24,10.79,15.24,11.76,17.7,10.62,26.82-.85,6.83-2.34,8.23-8,7.47-10.9-1.47-12.57-2.7-26.16-19.33-17.32-21.19-23.42-24.87-36.56-22.05-25.85,5.54-73.65,76-91.84,135.43-20.14,65.81-20.18,152.93-.08,174.15,9.44,9.95,16.8,10,47.71.08,16-5.1,24.49-4.47,31.59,2.34,3.77,3.61-6.11,17.75-14.56,20.85-38.93,14.26-44.36,18.57-44.46,35.25C226.82,673.8,295,752.65,348.43,782c2.61,1.43,5.18,2.94,5.7,3.36,5.52,4.37,42,20.59,57.93,25.76,45.58,14.81,68,15.91,80,4,5.31-5.31,6.62-11,7.82-34.23,1.14-22.06,2.1-25.33,9.08-31.05,5.05-4.14,4.93-4.14,9.83.06,7.56,6.47,9.4,14.22,9.58,40.28.18,27.05,14,37,44.33,31.85,84.46-14.31,164.39-68.1,211.79-142.51,20-31.41,24.56-44.54,19.88-57.39-3.54-9.73-9.1-13.34-33.75-21.9-22.76-7.91-33-19.33-23.14-25.76,8.35-5.44,13.95-5.8,27.86-1.79,45.92,13.26,55.24,6.39,59.83-44.08,7.93-87.2-29.76-188.77-92.39-249-25.3-24.34-37.4-22.82-60.39,7.61-13.69,18.13-17.76,21.09-27.92,20.35-3.77-.28-4-.47-5.23-4.56-2.71-9.05-1.28-13.84,8.94-29.73,15.7-24.45,17.22-29.94,11.48-41.5-12.87-25.94-100.29-50.51-170.2-47.84m125.5,35.48c27.49,2.48,37.64,27.1,22.2,53.87-15.12,26.22-11.66,42,8.94,40.87,13.35-.76,17.67-3.1,34.14-18.48,15.11-14.12,23.26-15.71,39-7.62,13.94,7.15,19.78,20.61,26,60.05,10.66,67.1,18.75,91.73,42.24,128.6,22.17,34.8,26.05,48.72,18.16,65.14-9.32,19.37-17.68,22.85-50.84,21.13-23.16-1.2-25.39-.72-28.5,6.13-5.64,12.43-.67,20.17,21.35,33.25,23,13.65,27.89,22.34,21,37.28-8,17.41-21.92,30-64.89,58.55-39,25.91-56.77,40-85.28,67.38-11,10.6-17.16,16.24-21.85,20.11-17.67,14.58-42.27,18.89-59.06,10.88-6.86-3.27-8.37-6.48-14.9-31.14-6-22.67-13.76-29.9-23.89-28-7.47,1.4-11.3,7.78-14.6,24.27-1.1,5.49-2.69,13.4-3.54,17.57-3.46,17.18-8.35,20.82-27.88,20.74-22.42-.08-36.4-8.93-74.08-46.86-26.48-26.67-35.86-33.89-62.2-47.91-4.7-2.5-9.83-5.29-11.4-6.19s-8.83-4.75-16.14-8.55c-44.24-22.93-56.51-33.71-56.51-49.69,0-14.62,4.61-19.71,25.1-27.72,20.85-8.15,24.66-11.81,24.72-23.71.09-16.63-9.2-19.94-40.28-14.37-23.57,4.22-27,3.49-39.92-15.87-3.31-6.69-3.81-12-3.81-19.23,0-21.72,2.41-29.44,19.73-63.38,23.12-45.28,26.94-57.81,30.64-100.39,3.66-42.18,10.17-64.4,23-78.41,6.08-6.64,8.87-7.52,24-7.53,17.46,0,19.26.95,28.51,15.2,7.73,11.9,10.19,13.92,19.22,15.77,24.31,5,30.5-16.63,12.77-44.59-12.89-20.32-9.71-38.26,8.7-49,7-4.12,35.16-4.33,69-.52,27.85,3.14,36.45,3.77,51.76,3.79,23.64,0,47.46-2.19,84.52-7.89,30.6-4.71,31-4.74,44.78-3.49M694,245.18c-2.45,3.82-10.16,15.79-17.13,26.6q-24.55,38.09,1.11,5.46c8.22-10.44,13.24-15.5,18.36-18.53,3.65-2.16,5.11-6.62,4.7-14.38-.39-7.43-1.84-7.26-7,.85m-377.23,2.58c-.94.58,32.18,43.24,38.41,49.48,4.39,4.4.08-3.94-8.55-16.54-5.43-7.92-9.8-16.41-11.64-22.58-1.66-5.61-14.29-12.79-18.22-10.36M761.5,585.87c.29.48,6.84,3.35,14.53,6.36,15.35,6,20.75,8.66,26.05,12.8,3.94,3.09,6.51,3.34,13.88,1.39,12.23-3.26,10.78-4.29-16-11.35-5-1.31-15.52-4.11-23.45-6.23-15.89-4.24-15.83-4.23-15-3m-508,7.27c-14.24,3.85-22.42,5.29-30.14,5.3H216l-5.23,5.78c-5.59,6.17-6.89,9.87-3.09,8.74,1.85-.54,30.06-10.7,50.57-18.21,12.41-4.54,9.61-5.5-4.75-1.62M510,770.73c-.3,1-1,7.59-1.57,14.64-1.24,15.47-2.42,22.53-4.78,28.51l-1.78,4.52,2.88,5.56c7.85,15.23,8.31,13.94,7.72-21.74C512,773.69,511.44,766,510,770.73"/><path id="path1" class="cls-4" d="M605.79,219.11c-2.09.2-13.63,1.88-25.64,3.73-37.06,5.7-60.88,7.92-84.52,7.89-15.31,0-23.91-.65-51.76-3.79-33.81-3.81-61.94-3.6-69,.52-18.41,10.78-21.59,28.72-8.7,49,17.73,28,11.54,49.58-12.77,44.59-9-1.85-11.49-3.87-19.22-15.77-9.25-14.25-11-15.21-28.51-15.2-15.13,0-17.92.89-24,7.53-12.81,14-19.32,36.23-23,78.41-3.7,42.58-7.52,55.11-30.64,100.39-17.32,33.94-19.73,41.66-19.73,63.38-1.88,28.35,16.9,45.34,43.73,35.1,31.08-5.57,40.37-2.26,40.28,14.37-.06,11.9-3.87,15.56-24.72,23.71-20.49,8-25.1,13.1-25.1,27.72,0,16,12.27,26.76,56.51,49.69,7.31,3.8,14.58,7.64,16.14,8.55s6.7,3.69,11.4,6.19c26.34,14,35.72,21.24,62.2,47.91,37.68,37.93,51.66,46.78,74.08,46.86,19.53.08,24.42-3.56,27.89-20.74l3.53-17.56c3.3-16.5,7.13-22.88,14.6-24.28,10.13-1.9,17.9,5.33,23.89,28,6.53,24.66,6.27,28.57,13.13,31.85,16.79,8,43.16,3,60.83-11.59,4.69-3.87,10.81-9.5,21.85-20.11,28.51-27.42,46.31-41.47,85.28-67.38,43-28.55,56.92-41.14,64.89-58.55,6.84-14.94,1.93-23.63-21-37.28-22-13.08-27-20.82-21.35-33.25,3.11-6.85,5.34-7.33,28.5-6.13,33.16,1.72,41.52-1.76,50.84-21.13,7.89-16.42,4-30.34-18.16-65.14C774.05,439.77,766,415.14,755.3,348c-6.27-39.44-12.11-52.9-26-60.05-15.78-8.09-23.93-6.5-39,7.62-16.47,15.38-20.79,17.72-34.14,18.48-20.6,1.16-24.06-14.65-8.94-40.87,15.88-21.09,7.73-43.47-8.2-51-5.92-2.79-21.65-4.29-33.14-3.16M414,339.49c5.88,4.48,6.11,15.07.5,22.28l-1.82,2.32-11.45-7.55c-12.54-8.26-12.59-8.35-8.15-14.28A14.91,14.91,0,0,1,414,339.49m208.23,1.8c3.14,3.14,2.38,5.33-4.59,13.22-7.64,8.65-7.61,8.78,5.86,24.53,4.3,5,5.55,7.47,3.83,7.47S603.25,364.25,601,360.45c-8.2-14,10-30.4,21.23-19.16M377.74,346.7c5.09,4.49,5.28,5.38,1.94,9.34s-4.71,3.69-10.12-1c-5.25-4.5-5.8-7.32-2-10.3,3.55-2.79,5.19-2.49,10.19,1.91M637.41,344c3.4,3.39,1.45,7.91-6.64,15.43-9.23,8.57-11.55,9.5-14.7,5.84-2.77-3.22-2.43-3.9,6-12.13,10.85-10.59,12.75-11.72,15.33-9.14m10.45,10.45c4.06,4-1.67,11.64-14.78,19.57-12.37,7.49-14.38.83-2.84-9.42,3.76-3.34,8.13-7.23,9.71-8.65,3.09-2.77,6.07-3.34,7.91-1.5m-255.34,1.3c8.71,3,12.94,5.52,17.75,10.45,7.56,7.75,7.83,6.59-6.08,26.76-6.76,9.79-13.94,20.24-16,23.22-5.58,8.18-5.33,8.26-24.91-8.15-10.22-8.57-9.95-9.7,8.48-35.94,13.46-19.14,13.22-19,20.74-16.34m-25.79,2.66c6.54,4.15,7.4,5.68,5.27,9.34-2.43,4.17-5.93,4.57-10.75,1.23-9.92-6.88-4.67-17,5.48-10.57m291.77,6.29c3.65,3.66.46,8.56-9.79,15-16.87,10.6-26.81,6.72-12.29-4.79,16.09-12.77,18.42-13.85,22.08-10.2m-299.26,7c5.54,5.6,5.75,7.07,1.55,11l-2.33,2.19-3.59-2.66c-9.12-6.75-10.72-10-6.91-13.76,3.12-3.12,5.78-2.36,11.28,3.22m312.55-3.23c2.22,1.4,2,21.85-.28,27.45-5,12.21-18.31,25-33.49,32.09-13.41,6.29-20.69,4.85-35.67-7.09-17.82-14.2-20.51-21.29-13.43-35.49,8.52-17.09,11.64-18.37,22.11-9.11,27.24,24.09,32.24,26.89,38.8,21.7a51.76,51.76,0,0,1,8-4.94l4.5-2.18v-7.46c0-10.85,4.59-18.09,9.49-15M658.5,383.22c0,7.93-12.12,16.26-17.84,12.25-3.86-2.7-2-5.27,9.26-13.14,6.82-4.75,8.58-4.56,8.58.89M349,383.8c6.29,4.41,7.16,7.1,3.54,10.95-4.8,5.11-18.58-4.72-16-11.43,2-5.33,4.34-5.23,12.49.48m78.71-.2c24.46,10.61,29.54,25.62,16.55,48.86-8.31,14.86-15,18.57-33.67,18.6l-13.82,0-4-10c-6.64-16.36-7.41-13.27,9.71-39,8.17-12.25,15.26-22.28,15.76-22.28a84.63,84.63,0,0,1,9.52,3.74m264.45,1.26c13.27,7.52,10.18,18.25-8.93,31.06-22.07,14.78-27,20.05-28.59,30.52-1.46,9.7-2.64,11.29-8.31,11.29-16.79,0-25.57-19.14-11-24.09,14.78-5,32.06-21,39.51-36.51,7.81-16.28,8.91-17.06,17.36-12.27m-337.6,21c26.78,20.05,32.81,26.9,32.81,37.28,0,7.83-.94,9.42-6.4,10.89-8,2.15-11.11-1.37-12-13.51l-.59-7.9L357.45,425l-10.92-7.6-13.14-.48c-15.21-.57-16.77-1.41-16.77-9,0-8.45,3.48-10.12,19.42-9.33l9.46.46,9.06,6.79m235.09,6.46a125.09,125.09,0,0,0,25.08,20.06c6.74,4.15,6.67,2.58.93,19.69-3.63,10.86-5.75,21-7.46,35.57-5.78,49.28-7.5,56.21-15.41,62.09-6.95,5.17-13.92,7-24.48,6.29-10.13-.64-13.95.6-16.92,5.49-2.29,3.76-.77,4.22,3.72,1.11,4.21-2.92,16.93-4.6,19-2.51,1.82,1.82-4.81,7.67-13.78,12.15-10.77,5.39-11.58,6.12-6.69,6.12,5.8,0,12.37-3.87,22.77-13.39,15.14-13.86,14.52-13.6,29.8-12.85,48.49,2.39,75.06,23.44,75.06,59.48,0,15.13-25.2,44.43-42.54,49.47-5.54,1.61-17.54-2.51-47.51-16.32-3.3-1.52-6.17-2.76-6.38-2.76s-3.07-1.22-6.35-2.71-8.74-3.93-12.13-5.42c-17.52-7.71-43.21-26.6-51.42-37.84-5.21-7.11-2.43-37.75,6.34-69.89,1.35-5,2.81-10.31,3.24-11.87,5.68-20.9,17-45.36,39.42-85.47,15.89-28.39,14.73-27.64,25.69-16.49M351.24,426.33c.25.41-1.49,3.65-3.87,7.2-16.79,25-49,74.53-48.44,74.53s9.09-11.81,24.33-33.71c35.68-51.25,31.82-46.83,37.75-43.22,1.7,1,3.09,2.27,3.09,2.74,0,.72-11,26.05-17.16,39.69-1.09,2.37-6,13.56-11,24.87s-9.8,22.26-10.73,24.35-3.29,7.43-5.25,11.87c-4.35,9.86-4.17,9.69-12.35,12.11-3.66,1.09-14.52,4.36-24.14,7.28s-17.85,5.31-18.28,5.31-.79-9.77-.79-21.7V516l3.91-6.09c11.75-18.29,48.75-63.71,67.92-83.38l6.85-7,3.85,3.06a35.91,35.91,0,0,1,4.32,3.8m343.94,14.86c5.29,10.4,10.16,20.41,10.83,22.24s2.42,5.95,3.91,9.16c16,34.69,24.43,74.4,19.94,94.35-.52,2.35-1.46,7-2.08,10.45s-1.51,7.77-2,9.73l-.88,3.56-2.57-1.63c-1.42-.9-11.23-7.29-21.81-14.21l-19.23-12.57V544.9c0-15.11-1.88-43.07-3.26-48.71-.26-1-1.16-4.89-2-8.54-2.07-9-4.62-16.26-9.57-27.31-3.47-7.76-4.14-10.24-4.14-15.23v-5.95l10.62-8.78c5.85-4.83,11.08-8.62,11.64-8.44s5.33,8.84,10.62,19.25m-240.1-11.76a5.22,5.22,0,0,1,1.14,3.22c0,2.69,3.6,14.52,8.08,26.51,5.51,14.77,7.87,24.29,9.06,36.62,1.31,13.65,1.4,13.38-5.09,16.35A70.15,70.15,0,0,0,457,519.32c-8.12,6.38-9.46,6.79-22.26,6.79-20.32,0-29.49-5.42-31.49-18.6-1.14-7.55-4-42.58-4-48.59l0-4H412c19.78,0,29.24-5.36,35.71-20.24,2-4.62,3-5.66,5.69-6.24.28-.06,1,.4,1.66,1m151.19,13c0,2.43,1.85,3.63,2.93,1.91s.58-3.14-1.35-3.51c-1.06-.21-1.58.33-1.58,1.6m-3.16,9.29c-1,1-.78,4.89.28,5.54,1.23.76,2.41-4.15,1.27-5.29a1.14,1.14,0,0,0-1.55-.25m-3.81,11.41c-1.24,1.25-.64,5.07.79,5.07.95,0,1.43-.95,1.43-2.85,0-2.72-.86-3.58-2.22-2.22m-.2,14.81c-.82,2.13-.15,6,1,5.72.52-.12,1.09-1.34,1.26-2.73.38-3-1.36-5.31-2.25-3M595,491.61c.44,3.7,2.68,4,2.68.39,0-2-.46-2.93-1.49-2.93s-1.4.74-1.19,2.54M399.72,511.23c7,20.38,39.74,26.3,60.3,10.89,17.28-12.95,30.7-15.64,34.83-7C502.43,531,470.23,548,432.4,548c-18.86,0-18.62-.19-11.2,8.69,16.51,19.75,22.67,34.77,22.67,55.21v10.41l-4.9,6c-5.16,6.35-7.1,7.55-10.77,6.63-2.72-.68-2.76-.8-5.2-16.23-3.3-20.77-4-24.37-6.31-33.55-5.76-22.65-15.93-33.81-33.12-36.37-8.86-1.32-8.85-1.65.2-10l7.36-6.76.49-10c.67-13.54,5.11-19.47,8.1-10.8m195.52-2.75c-.74,1.91-.11,4.58,1.17,5s2.37-3.08,1.62-5c-.67-1.73-2.13-1.71-2.79,0m-3.56,18.29c-1.07,1.07-.65,2.19.82,2.19.78,0,1.42-.4,1.42-.9,0-1.2-1.48-2-2.24-1.29m-.39,8.06c.59,1.76,2.63,2.06,2.63.38a1.51,1.51,0,0,0-1.5-1.51c-.83,0-1.34.51-1.13,1.13m-97.65,2c.23,1.18.92,6,1.54,10.68s1.48,10.9,1.93,13.78c.66,4.2,1.95,16.68,3.11,30,.17,1.93-8.4,6.68-27.93,15.46-5,2.25-12.26,5.94-16.14,8.19-8.37,4.86-8.45,4.81-8.46-6.26,0-17-6.41-33.53-18.66-48.47-5.91-7.21-6.08-7.07,10-7.77,22.07-1,39.42-6.18,49.71-15,3.79-3.25,4.38-3.32,4.91-.6m94.08,1.71c-.91,1.46.33,2.4,1.55,1.18.68-.68.7-1.21.05-1.61a1.18,1.18,0,0,0-1.6.43M575.88,546c0,1.25,2.86,2.12,4.88,1.48,2.92-.93,2-2.33-1.56-2.33-1.83,0-3.32.38-3.32.85m-185.45,9.34c15,7.39,22.86,22.52,27.27,52.49.8,5.48,1.9,12.58,2.42,15.78,1.46,8.86,1.26,10.57-1.45,12.35s-6.75.72-7.5-1.77c-8.73-29.3-22.55-62-30.79-72.87-7.18-9.48-2.59-12.21,10.05-6m-19.61,1.26c9.4,6.69,28.36,47.5,36.51,78.58,1.94,7.39-1.36,12.06-9.84,13.93-5.05,1.1-4.57,1.9-25.32-41.76-2.23-4.7-7.07-14.8-10.74-22.45C350.1,561.27,349.93,560,357.74,556c5.53-2.78,8.62-2.66,13.08.52m-27.68,7.66c2.85,1,4.25,3.49,20.44,36.33,28.07,56.93,27,52.68,15.05,58.85-10.14,5.24-12,3.32-28.1-29.09-28.19-56.77-29.19-63.07-10.55-67.13,0,0,1.47.45,3.16,1m176.71,23.15c0,.78.42,1.43.95,1.43s1-.65,1-1.43-.43-1.42-1-1.42-.95.64-.95,1.42m15.19,3.8a1.43,1.43,0,1,0,1.42-1.42,1.43,1.43,0,0,0-1.42,1.42m-14.52,3c-1.5,1.51-.51,2.37,2.41,2.08,1.7-.16,3-.72,2.88-1.24-.25-1.15-4.33-1.79-5.29-.84M535,604.45c0,2.37.38,3.36,1.19,3.09.65-.22,1.18-1.61,1.18-3.09s-.53-2.86-1.18-3.08c-.81-.27-1.19.72-1.19,3.08m19-1.89c0,.78.43,1.42,1,1.42s.95-.64.95-1.42-.42-1.43-.95-1.43-1,.64-1,1.43m8.24,3c-1.56,1.57-.29,2.23,4.3,2.23,2.89,0,4.56-.35,4-.83-1.23-1.14-7.54-2.2-8.34-1.4m-5,8.19c-.76,2-.22,4.53,1,4.77s1.8-4.08.58-5.3c-.69-.7-1.17-.54-1.58.53m22.75.1c-.77,2-.12,4.63,1.28,5.1.77.26,1.18-.6,1.18-2.48,0-3.17-1.59-4.87-2.46-2.62m-18.72,6.89c-.76.76.1,2.24,1.3,2.24.49,0,.89-.64.89-1.42,0-1.47-1.12-1.89-2.19-.82m11.42,0c-1,1-.84,4.91.22,5.57,1.6,1,3-2.85,1.65-4.64-.65-.89-1.49-1.3-1.87-.93m18.31.85a1.43,1.43,0,1,0,1.43-1.43,1.43,1.43,0,0,0-1.43,1.43m-11,7.17a1.49,1.49,0,0,0,.62,2c1.92,1.25,5.11.59,5.11-1.06s-4.75-2.48-5.73-.9m22.58.19c.22.65,1.61,1.19,3.09,1.19s2.87-.54,3.09-1.19c.27-.81-.72-1.19-3.09-1.19s-3.35.38-3.09,1.19m-7.65,5.7c.16,1.69.72,3.08,1.24,3.08s1.09-1.39,1.25-3.08c.23-2.34-.08-3.09-1.25-3.09s-1.47.75-1.24,3.09m7.42,2.21c0,.83.5,1.34,1.12,1.13,1.77-.59,2.06-2.63.38-2.63a1.5,1.5,0,0,0-1.5,1.5m15.19,0c0,.83.51,1.34,1.13,1.13,1.76-.59,2.05-2.63.37-2.63a1.51,1.51,0,0,0-1.5,1.5m12.07,1.94c-1.78,1.78-.56,3.32,2.41,3,3.76-.36,4.28-3,.68-3.43a5,5,0,0,0-3.09.4m-23.46,1.78a1.42,1.42,0,1,0,1.42-1.42,1.43,1.43,0,0,0-1.42,1.42m8.05,2.41a1.72,1.72,0,0,0,.28,2c1.38,1.38,5.44.55,5.44-1.11s-4.75-2.49-5.72-.92m29.93,5.27c0,1.68,2,1.38,2.63-.38.21-.62-.3-1.12-1.13-1.12a1.5,1.5,0,0,0-1.5,1.5m-14.58,2c-1.14,1.14-.62,3.14.81,3.14a1.4,1.4,0,0,0,1.43-1.36c0-1.59-1.36-2.66-2.24-1.78"/></g><text class="cls-5" transform="matrix(-0.28, -0.96, 1.17, -0.34, 183.07, 619.61)">L</text><text class="cls-5" transform="translate(172.59 585.1) rotate(-99.92) scale(1 1.22)">A</text><text class="cls-5" transform="translate(165.15 542.82) rotate(-93.03) scale(1 1.22)">P</text><text class="cls-5" transform="matrix(0.06, -1, 1.22, 0.08, 162.9, 502.52)">P</text><text class="cls-5" transform="translate(165.44 462.22) rotate(-79.87) scale(1 1.22)">E</text><text class="cls-5" transform="matrix(0.28, -0.96, 1.17, 0.34, 172.03, 424.81)">E</text><text class="cls-5" transform="translate(182.38 388.42) rotate(-66.85) scale(1 1.22)">N</text><text class="cls-5" transform="matrix(0.51, -0.86, 1.05, 0.62, 199.89, 347.22)">R</text><text class="cls-5" transform="matrix(0.61, -0.79, 0.97, 0.74, 221.82, 309.57)">A</text><text class="cls-5" transform="matrix(0.7, -0.71, 0.87, 0.86, 247.73, 275.44)">N</text><text class="cls-5" transform="translate(279.07 243.54) rotate(-37.92) scale(1 1.22)">N</text><text class="cls-5" transform="translate(313.27 216.7) rotate(-30.87) scale(1 1.22)">A</text><text class="cls-5" transform="matrix(0.92, -0.4, 0.49, 1.12, 349.97, 194.54)">N</text><text class="cls-5" transform="translate(391.57 176.89) rotate(-18.48) scale(1 1.22)"> </text><text class="cls-5" transform="translate(404.44 171.87) rotate(-14.31) scale(1 1.22)">T</text><text class="cls-5" transform="matrix(0.99, -0.13, 0.16, 1.21, 445.25, 161.47)">E</text><text class="cls-5" transform="matrix(1, -0.02, 0.03, 1.22, 482.85, 156.27)">E</text><text class="cls-5" transform="matrix(1, 0.09, -0.12, 1.21, 520.67, 154.99)">K</text><text class="cls-5" transform="matrix(0.97, 0.22, -0.27, 1.19, 565.37, 159.11)">K</text><text class="cls-5" transform="translate(609.19 169.03) rotate(20.04) scale(1 1.22)">A</text><text class="cls-5" transform="matrix(0.89, 0.46, -0.56, 1.09, 649.53, 183.59)">R</text><text class="cls-5" transform="translate(688.43 203.99) rotate(32.55) scale(1 1.22)">I</text><text class="cls-5" transform="translate(707.66 215.55) rotate(37.99) scale(1 1.22)">R</text><text class="cls-5" transform="matrix(0.71, 0.7, -0.86, 0.87, 742.03, 242.46)">E</text><text class="cls-5" transform="translate(769.03 269.22) rotate(50.64) scale(1 1.22)">S</text><text class="cls-5" transform="matrix(0.55, 0.83, -1.02, 0.67, 790.5, 295.06)">E</text><text class="cls-5" transform="matrix(0.45, 0.89, -1.09, 0.55, 811.58, 326.5)">R</text><text class="cls-5" transform="matrix(0.35, 0.94, -1.14, 0.42, 829.95, 362.61)">V</text><text class="cls-5" transform="translate(844.21 402.26) rotate(75.01) scale(1 1.22)">I</text><text class="cls-5" transform="matrix(0.18, 0.98, -1.2, 0.21, 850.39, 423.97)">L</text><text class="cls-5" transform="translate(857.05 459.39) rotate(86.41) scale(1 1.22)">Ä</text><text class="cls-5" transform="matrix(-0.03, 1, -1.22, -0.04, 859.34, 502.56)">I</text><text class="cls-5" transform="matrix(-0.11, 0.99, -1.21, -0.14, 858.9, 525.17)">S</text><text class="cls-5" transform="matrix(-0.22, 0.98, -1.19, -0.26, 855.29, 558.56)">E</text><text class="cls-5" transform="translate(847.36 595.63) rotate(109) scale(1 1.22)">T</text><text class="cls-6" transform="matrix(0.95, 0.42, -0.48, 1.1, 322.2, 877.06)">L</text><text class="cls-6" transform="matrix(1, 0.28, -0.32, 1.16, 372.66, 898.93)">A</text><text class="cls-6" transform="matrix(1.03, 0.14, -0.16, 1.19, 426.99, 913.91)">T</text><text class="cls-6" transform="matrix(1.04, -0.01, 0.01, 1.2, 489.25, 921.69)">E</text><text class="cls-6" transform="matrix(1.03, -0.16, 0.18, 1.19, 546.73, 921.01)">R</text><text class="cls-6" transform="matrix(0.99, -0.31, 0.36, 1.15, 610.69, 910.32)">E</text><text class="cls-6" transform="matrix(0.95, -0.43, 0.5, 1.09, 664.71, 893)">S</text></svg>